{"0":[{"name":"G4","midi":67,"time":0,"velocity":0.5039370078740157,"duration":1.125,"track":"3"},{"name":"E4","midi":64,"time":0,"velocity":0.5039370078740157,"duration":1.125,"track":"3"},{"name":"C4","midi":60,"time":0,"velocity":0.5039370078740157,"duration":1.125,"track":"4"},{"name":"C3","midi":48,"time":0,"velocity":0.5039370078740157,"duration":1.125,"track":"4"}],"6":[{"name":"B4","midi":71,"time":6,"velocity":0.5039370078740157,"duration":0.375,"track":"3"},{"name":"G4","midi":67,"time":6,"velocity":0.5039370078740157,"duration":0.375,"track":"3"},{"name":"C4","midi":60,"time":6,"velocity":0.5039370078740157,"duration":0.375,"track":"4"},{"name":"F2","midi":41,"time":6,"velocity":0.5039370078740157,"duration":0.375,"track":"4"}],"9":[{"name":"F#4","midi":66,"time":9,"velocity":0.5039370078740157,"duration":1.125,"track":"3"},{"name":"D4","midi":62,"time":9,"velocity":0.5039370078740157,"duration":1.125,"track":"3"},{"name":"A3","midi":57,"time":9,"velocity":0.5039370078740157,"duration":1.125,"track":"4"},{"name":"D3","midi":50,"time":9,"velocity":0.5039370078740157,"duration":1.125,"track":"4"}],"15":[{"name":"C5","midi":72,"time":15,"velocity":0.5039370078740157,"duration":0.375,"track":"3"},{"name":"F#4","midi":66,"time":15,"velocity":0.5039370078740157,"duration":0.375,"track":"3"},{"name":"A3","midi":57,"time":15,"velocity":0.5039370078740157,"duration":0.375,"track":"4"},{"name":"D3","midi":50,"time":15,"velocity":0.5039370078740157,"duration":0.375,"track":"4"}],"18":[{"name":"F4","midi":65,"time":18,"velocity":0.5039370078740157,"duration":1.125,"track":"3"},{"name":"D4","midi":62,"time":18,"velocity":0.5039370078740157,"duration":1.125,"track":"3"},{"name":"B3","midi":59,"time":18,"velocity":0.5039370078740157,"duration":1.125,"track":"4"},{"name":"G3","midi":55,"time":18,"velocity":0.5039370078740157,"duration":1.125,"track":"4"}],"24":[{"name":"C5","midi":72,"time":24,"velocity":0.5039370078740157,"duration":0.375,"track":"3"},{"name":"A4","midi":69,"time":24,"velocity":0.5039370078740157,"duration":0.375,"track":"3"},{"name":"C4","midi":60,"time":24,"velocity":0.5039370078740157,"duration":0.375,"track":"4"},{"name":"F3","midi":53,"time":24,"velocity":0.5039370078740157,"duration":0.375,"track":"4"}],"27":[{"name":"C5","midi":72,"time":27,"velocity":0.5039370078740157,"duration":1.125,"track":"3"},{"name":"E4","midi":64,"time":27,"velocity":0.5039370078740157,"duration":1.125,"track":"3"},{"name":"G3","midi":55,"time":27,"velocity":0.5039370078740157,"duration":1.125,"track":"4"},{"name":"C3","midi":48,"time":27,"velocity":0.5039370078740157,"duration":1.125,"track":"4"}],"33":[{"name":"C5","midi":72,"time":33,"velocity":0.5039370078740157,"duration":0.375,"track":"3"},{"name":"E4","midi":64,"time":33,"velocity":0.5039370078740157,"duration":0.375,"track":"3"},{"name":"G3","midi":55,"time":33,"velocity":0.5039370078740157,"duration":0.75,"track":"4"},{"name":"G2","midi":43,"time":33,"velocity":0.5039370078740157,"duration":0.375,"track":"4"}],"36":[{"name":"A4","midi":69,"time":36,"velocity":0.5039370078740157,"duration":0.375,"track":"3"},{"name":"F4","midi":65,"time":36,"velocity":0.5039370078740157,"duration":0.375,"track":"3"},{"name":"C4","midi":60,"time":36,"velocity":0.5039370078740157,"duration":0.375,"track":"4"},{"name":"C3","midi":48,"time":36,"velocity":0.5039370078740157,"duration":0.375,"track":"4"}],"45":[{"name":"A4","midi":69,"time":45,"velocity":0.5039370078740157,"duration":0.375,"track":"3"},{"name":"D4","midi":62,"time":45,"velocity":0.5039370078740157,"duration":0.375,"track":"3"},{"name":"C4","midi":60,"time":45,"velocity":0.5039370078740157,"duration":0.375,"track":"4"},{"name":"D3","midi":50,"time":45,"velocity":0.5039370078740157,"duration":0.375,"track":"4"}],"54":[{"name":"F4","midi":65,"time":54,"velocity":0.5039370078740157,"duration":0.375,"track":"3"},{"name":"D4","midi":62,"time":54,"velocity":0.5039370078740157,"duration":0.375,"track":"3"},{"name":"B3","midi":59,"time":54,"velocity":0.5039370078740157,"duration":0.375,"track":"4"},{"name":"G3","midi":55,"time":54,"velocity":0.5039370078740157,"duration":0.75,"track":"4"}],"63":[{"name":"E5","midi":76,"time":63,"velocity":0.5039370078740157,"duration":0.375,"track":"3"},{"name":"G4","midi":67,"time":63,"velocity":0.5039370078740157,"duration":0.75,"track":"3"},{"name":"C4","midi":60,"time":63,"velocity":0.5039370078740157,"duration":0.375,"track":"4"},{"name":"C3","midi":48,"time":63,"velocity":0.5039370078740157,"duration":0.375,"track":"4"}],"72":[{"name":"G4","midi":67,"time":72,"velocity":0.5039370078740157,"duration":4.125,"track":"3"},{"name":"E4","midi":64,"time":72,"velocity":0.5039370078740157,"duration":1.125,"track":"3"},{"name":"G3","midi":55,"time":72,"velocity":0.5039370078740157,"duration":2.25,"track":"4"},{"name":"C3","midi":48,"time":72,"velocity":0.5039370078740157,"duration":1.125,"track":"4"}],"81":[{"name":"G4","midi":67,"time":81,"velocity":0.5039370078740157,"duration":2.25,"track":"3"},{"name":"D4","midi":62,"time":81,"velocity":0.5039370078740157,"duration":1.125,"track":"3"},{"name":"B3","midi":59,"time":81,"velocity":0.5039370078740157,"duration":1.125,"track":"4"},{"name":"G3","midi":55,"time":81,"velocity":0.5039370078740157,"duration":2.25,"track":"4"}],"90":[{"name":"F4","midi":65,"time":90,"velocity":0.5039370078740157,"duration":1.125,"track":"3"},{"name":"D4","midi":62,"time":90,"velocity":0.5039370078740157,"duration":1.125,"track":"3"},{"name":"A3","midi":57,"time":90,"velocity":0.5039370078740157,"duration":1.125,"track":"4"},{"name":"A3","midi":57,"time":90,"velocity":0.5039370078740157,"duration":1.125,"track":"4"}],"99":[{"name":"C5","midi":72,"time":99,"velocity":0.5039370078740157,"duration":1.125,"track":"3"},{"name":"A4","midi":69,"time":99,"velocity":0.5039370078740157,"duration":1.125,"track":"3"},{"name":"C4","midi":60,"time":99,"velocity":0.5039370078740157,"duration":1.125,"track":"4"},{"name":"F3","midi":53,"time":99,"velocity":0.5039370078740157,"duration":1.125,"track":"4"}],"108":[{"name":"E4","midi":64,"time":108,"velocity":0.5039370078740157,"duration":1.125,"track":"3"},{"name":"C4","midi":60,"time":108,"velocity":0.5039370078740157,"duration":1.125,"track":"3"},{"name":"G3","midi":55,"time":108,"velocity":0.5039370078740157,"duration":9,"track":"4"},{"name":"C3","midi":48,"time":108,"velocity":0.5039370078740157,"duration":1.125,"track":"4"}],"111":[{"name":"A4","midi":69,"time":111,"velocity":0.5039370078740157,"duration":0.375,"track":"3"},{"name":"F4","midi":65,"time":111,"velocity":0.5039370078740157,"duration":0.375,"track":"3"},{"name":"C4","midi":60,"time":111,"velocity":0.5039370078740157,"duration":0.375,"track":"4"},{"name":"A2","midi":45,"time":111,"velocity":0.5039370078740157,"duration":0.375,"track":"4"}],"117":[{"name":"B4","midi":71,"time":117,"velocity":0.5039370078740157,"duration":1.125,"track":"3"},{"name":"G4","midi":67,"time":117,"velocity":0.5039370078740157,"duration":3.375,"track":"3"},{"name":"D4","midi":62,"time":117,"velocity":0.5039370078740157,"duration":1.125,"track":"4"},{"name":"G3","midi":55,"time":117,"velocity":0.5039370078740157,"duration":5.25,"track":"4"}],"120":[{"name":"A4","midi":69,"time":120,"velocity":0.5039370078740157,"duration":0.375,"track":"3"},{"name":"F#4","midi":66,"time":120,"velocity":0.5039370078740157,"duration":0.375,"track":"3"},{"name":"C4","midi":60,"time":120,"velocity":0.5039370078740157,"duration":0.375,"track":"4"},{"name":"D3","midi":50,"time":120,"velocity":0.5039370078740157,"duration":0.375,"track":"4"}],"126":[{"name":"E4","midi":64,"time":126,"velocity":0.5039370078740157,"duration":1.125,"track":"3"},{"name":"C4","midi":60,"time":126,"velocity":0.5039370078740157,"duration":1.125,"track":"3"},{"name":"A3","midi":57,"time":126,"velocity":0.5039370078740157,"duration":1.125,"track":"4"},{"name":"A3","midi":57,"time":126,"velocity":0.5039370078740157,"duration":53.25,"track":"4"}],"129":[{"name":"A4","midi":69,"time":129,"velocity":0.5039370078740157,"duration":0.375,"track":"3"},{"name":"F4","midi":65,"time":129,"velocity":0.5039370078740157,"duration":0.375,"track":"3"},{"name":"C4","midi":60,"time":129,"velocity":0.5039370078740157,"duration":0.375,"track":"4"},{"name":"F3","midi":53,"time":129,"velocity":0.5039370078740157,"duration":0.375,"track":"4"}],"135":[{"name":"A4","midi":69,"time":135,"velocity":0.5039370078740157,"duration":1.125,"track":"3"},{"name":"F4","midi":65,"time":135,"velocity":0.5039370078740157,"duration":1.125,"track":"3"},{"name":"C4","midi":60,"time":135,"velocity":0.5039370078740157,"duration":1.125,"track":"4"},{"name":"F3","midi":53,"time":135,"velocity":0.5039370078740157,"duration":1.125,"track":"4"}],"138":[{"name":"B4","midi":71,"time":138,"velocity":0.5039370078740157,"duration":0.375,"track":"3"},{"name":"D4","midi":62,"time":138,"velocity":0.5039370078740157,"duration":0.375,"track":"3"},{"name":"G3","midi":55,"time":138,"velocity":0.5039370078740157,"duration":1.125,"track":"4"},{"name":"G2","midi":43,"time":138,"velocity":0.5039370078740157,"duration":0.375,"track":"4"}],"141":[{"name":"D4","midi":62,"time":141,"velocity":0.5039370078740157,"duration":0.375,"track":"3"},{"name":"B3","midi":59,"time":141,"velocity":0.5039370078740157,"duration":0.375,"track":"4"},{"name":"G3","midi":55,"time":141,"velocity":0.5039370078740157,"duration":0.75,"track":"4"}],"144":[{"name":"D5","midi":74,"time":144,"velocity":0.5039370078740157,"duration":1.125,"track":"3"}],"147":[{"name":"F4","midi":65,"time":147,"velocity":0.5039370078740157,"duration":0.375,"track":"3"},{"name":"D4","midi":62,"time":147,"velocity":0.5039370078740157,"duration":0.375,"track":"4"},{"name":"C3","midi":48,"time":147,"velocity":0.5039370078740157,"duration":0.375,"track":"4"}],"159":[{"name":"D4","midi":62,"time":159,"velocity":0.5039370078740157,"duration":0.375,"track":"3"},{"name":"B3","midi":59,"time":159,"velocity":0.5039370078740157,"duration":0.375,"track":"4"},{"name":"G3","midi":55,"time":159,"velocity":0.5039370078740157,"duration":0.75,"track":"4"}],"162":[{"name":"D5","midi":74,"time":162,"velocity":0.5039370078740157,"duration":1.125,"track":"3"}],"165":[{"name":"F4","midi":65,"time":165,"velocity":0.5039370078740157,"duration":0.375,"track":"3"},{"name":"D4","midi":62,"time":165,"velocity":0.5039370078740157,"duration":0.375,"track":"4"},{"name":"C3","midi":48,"time":165,"velocity":0.5039370078740157,"duration":0.375,"track":"4"}],"174":[{"name":"G4","midi":67,"time":174,"velocity":0.5039370078740157,"duration":3.75,"track":"3"},{"name":"F4","midi":65,"time":174,"velocity":0.5039370078740157,"duration":0.375,"track":"3"}],"183":[{"name":"D5","midi":74,"time":183,"velocity":0.5039370078740157,"duration":0.375,"track":"3"},{"name":"F4","midi":65,"time":183,"velocity":0.5039370078740157,"duration":0.375,"track":"3"},{"name":"G3","midi":55,"time":183,"velocity":0.5039370078740157,"duration":0.375,"track":"4"},{"name":"G3","midi":55,"time":183,"velocity":0.5039370078740157,"duration":0.75,"track":"4"}],"1.125":[{"name":"A4","midi":69,"time":1.125,"velocity":0.5039370078740157,"duration":0.375,"track":"3"},{"name":"F4","midi":65,"time":1.125,"velocity":0.5039370078740157,"duration":0.375,"track":"3"},{"name":"C4","midi":60,"time":1.125,"velocity":0.5039370078740157,"duration":0.375,"track":"4"},{"name":"C3","midi":48,"time":1.125,"velocity":0.5039370078740157,"duration":0.375,"track":"4"}],"1.5":[{"name":"G4","midi":67,"time":1.5,"velocity":0.5039370078740157,"duration":0.375,"track":"3"},{"name":"E4","midi":64,"time":1.5,"velocity":0.5039370078740157,"duration":0.375,"track":"3"},{"name":"C4","midi":60,"time":1.5,"velocity":0.5039370078740157,"duration":0.375,"track":"4"},{"name":"C3","midi":48,"time":1.5,"velocity":0.5039370078740157,"duration":0.375,"track":"4"}],"1.875":[{"name":"F#4","midi":66,"time":1.875,"velocity":0.5039370078740157,"duration":0.375,"track":"3"},{"name":"D#4","midi":63,"time":1.875,"velocity":0.5039370078740157,"duration":0.375,"track":"3"},{"name":"A3","midi":57,"time":1.875,"velocity":0.5039370078740157,"duration":0.375,"track":"4"},{"name":"C3","midi":48,"time":1.875,"velocity":0.5039370078740157,"duration":0.375,"track":"4"}],"2.25":[{"name":"G4","midi":67,"time":2.25,"velocity":0.5039370078740157,"duration":1.125,"track":"3"},{"name":"E4","midi":64,"time":2.25,"velocity":0.5039370078740157,"duration":1.125,"track":"3"},{"name":"G3","midi":55,"time":2.25,"velocity":0.5039370078740157,"duration":1.125,"track":"4"},{"name":"C3","midi":48,"time":2.25,"velocity":0.5039370078740157,"duration":1.125,"track":"4"}],"3.375":[{"name":"E4","midi":64,"time":3.375,"velocity":0.5039370078740157,"duration":1.125,"track":"3"},{"name":"C4","midi":60,"time":3.375,"velocity":0.5039370078740157,"duration":1.125,"track":"3"},{"name":"G3","midi":55,"time":3.375,"velocity":0.5039370078740157,"duration":1.125,"track":"4"},{"name":"C3","midi":48,"time":3.375,"velocity":0.5039370078740157,"duration":1.125,"track":"4"}],"4.5":[{"name":"C5","midi":72,"time":4.5,"velocity":0.5039370078740157,"duration":1.125,"track":"3"},{"name":"E4","midi":64,"time":4.5,"velocity":0.5039370078740157,"duration":1.125,"track":"3"},{"name":"A3","midi":57,"time":4.5,"velocity":0.5039370078740157,"duration":1.125,"track":"4"},{"name":"A2","midi":45,"time":4.5,"velocity":0.5039370078740157,"duration":1.125,"track":"4"}],"5.625":[{"name":"C5","midi":72,"time":5.625,"velocity":0.5039370078740157,"duration":0.375,"track":"3"},{"name":"A4","midi":69,"time":5.625,"velocity":0.5039370078740157,"duration":0.375,"track":"3"},{"name":"C4","midi":60,"time":5.625,"velocity":0.5039370078740157,"duration":0.375,"track":"4"},{"name":"F2","midi":41,"time":5.625,"velocity":0.5039370078740157,"duration":0.375,"track":"4"}],"6.375":[{"name":"A4","midi":69,"time":6.375,"velocity":0.5039370078740157,"duration":0.375,"track":"3"},{"name":"F4","midi":65,"time":6.375,"velocity":0.5039370078740157,"duration":0.375,"track":"3"},{"name":"C4","midi":60,"time":6.375,"velocity":0.5039370078740157,"duration":0.375,"track":"4"},{"name":"A2","midi":45,"time":6.375,"velocity":0.5039370078740157,"duration":0.375,"track":"4"}],"6.75":[{"name":"G4","midi":67,"time":6.75,"velocity":0.5039370078740157,"duration":1.875,"track":"3"},{"name":"E4","midi":64,"time":6.75,"velocity":0.5039370078740157,"duration":1.875,"track":"3"},{"name":"C4","midi":60,"time":6.75,"velocity":0.5039370078740157,"duration":1.875,"track":"4"},{"name":"C3","midi":48,"time":6.75,"velocity":0.5039370078740157,"duration":1.875,"track":"4"}],"10.125":[{"name":"A4","midi":69,"time":10.125,"velocity":0.5039370078740157,"duration":0.375,"track":"3"},{"name":"D4","midi":62,"time":10.125,"velocity":0.5039370078740157,"duration":0.375,"track":"3"},{"name":"C4","midi":60,"time":10.125,"velocity":0.5039370078740157,"duration":0.375,"track":"4"},{"name":"D3","midi":50,"time":10.125,"velocity":0.5039370078740157,"duration":0.375,"track":"4"}],"10.5":[{"name":"G4","midi":67,"time":10.5,"velocity":0.5039370078740157,"duration":0.375,"track":"3"},{"name":"D4","midi":62,"time":10.5,"velocity":0.5039370078740157,"duration":0.375,"track":"3"},{"name":"B3","midi":59,"time":10.5,"velocity":0.5039370078740157,"duration":0.375,"track":"4"},{"name":"D3","midi":50,"time":10.5,"velocity":0.5039370078740157,"duration":0.375,"track":"4"}],"10.875":[{"name":"F#4","midi":66,"time":10.875,"velocity":0.5039370078740157,"duration":0.375,"track":"3"},{"name":"D4","midi":62,"time":10.875,"velocity":0.5039370078740157,"duration":0.375,"track":"3"},{"name":"A3","midi":57,"time":10.875,"velocity":0.5039370078740157,"duration":0.375,"track":"4"},{"name":"D3","midi":50,"time":10.875,"velocity":0.5039370078740157,"duration":0.375,"track":"4"}],"11.25":[{"name":"G4","midi":67,"time":11.25,"velocity":0.5039370078740157,"duration":1.125,"track":"3"},{"name":"D4","midi":62,"time":11.25,"velocity":0.5039370078740157,"duration":1.125,"track":"3"},{"name":"B3","midi":59,"time":11.25,"velocity":0.5039370078740157,"duration":1.125,"track":"4"},{"name":"G3","midi":55,"time":11.25,"velocity":0.5039370078740157,"duration":1.125,"track":"4"}],"12.375":[{"name":"B4","midi":71,"time":12.375,"velocity":0.5039370078740157,"duration":1.125,"track":"3"},{"name":"G4","midi":67,"time":12.375,"velocity":0.5039370078740157,"duration":1.125,"track":"3"},{"name":"D4","midi":62,"time":12.375,"velocity":0.5039370078740157,"duration":1.125,"track":"4"},{"name":"G3","midi":55,"time":12.375,"velocity":0.5039370078740157,"duration":1.125,"track":"4"}],"13.5":[{"name":"D5","midi":74,"time":13.5,"velocity":0.5039370078740157,"duration":1.125,"track":"3"},{"name":"F#4","midi":66,"time":13.5,"velocity":0.5039370078740157,"duration":1.125,"track":"3"},{"name":"D4","midi":62,"time":13.5,"velocity":0.5039370078740157,"duration":1.125,"track":"4"},{"name":"D3","midi":50,"time":13.5,"velocity":0.5039370078740157,"duration":1.125,"track":"4"}],"14.625":[{"name":"D5","midi":74,"time":14.625,"velocity":0.5039370078740157,"duration":0.375,"track":"3"},{"name":"F#4","midi":66,"time":14.625,"velocity":0.5039370078740157,"duration":0.375,"track":"3"},{"name":"A3","midi":57,"time":14.625,"velocity":0.5039370078740157,"duration":0.375,"track":"4"},{"name":"D3","midi":50,"time":14.625,"velocity":0.5039370078740157,"duration":0.375,"track":"4"}],"15.375":[{"name":"A4","midi":69,"time":15.375,"velocity":0.5039370078740157,"duration":0.375,"track":"3"},{"name":"F#4","midi":66,"time":15.375,"velocity":0.5039370078740157,"duration":0.375,"track":"3"},{"name":"C4","midi":60,"time":15.375,"velocity":0.5039370078740157,"duration":0.375,"track":"4"},{"name":"D3","midi":50,"time":15.375,"velocity":0.5039370078740157,"duration":0.375,"track":"4"}],"15.75":[{"name":"G4","midi":67,"time":15.75,"velocity":0.5039370078740157,"duration":1.125,"track":"3"},{"name":"G4","midi":67,"time":15.75,"velocity":0.5039370078740157,"duration":1.875,"track":"3"},{"name":"B3","midi":59,"time":15.75,"velocity":0.5039370078740157,"duration":1.125,"track":"4"},{"name":"G3","midi":55,"time":15.75,"velocity":0.5039370078740157,"duration":1.875,"track":"4"}],"16.875":[{"name":"G4","midi":67,"time":16.875,"velocity":0.5039370078740157,"duration":10.125,"track":"3"},{"name":"F4","midi":65,"time":16.875,"velocity":0.5039370078740157,"duration":0.75,"track":"3"},{"name":"B3","midi":59,"time":16.875,"velocity":0.5039370078740157,"duration":0.75,"track":"4"}],"19.125":[{"name":"F4","midi":65,"time":19.125,"velocity":0.5039370078740157,"duration":0.375,"track":"3"},{"name":"D4","midi":62,"time":19.125,"velocity":0.5039370078740157,"duration":0.375,"track":"3"},{"name":"B3","midi":59,"time":19.125,"velocity":0.5039370078740157,"duration":0.375,"track":"4"},{"name":"G3","midi":55,"time":19.125,"velocity":0.5039370078740157,"duration":0.375,"track":"4"}],"19.5":[{"name":"A4","midi":69,"time":19.5,"velocity":0.5039370078740157,"duration":0.375,"track":"3"},{"name":"F4","midi":65,"time":19.5,"velocity":0.5039370078740157,"duration":0.375,"track":"3"},{"name":"B3","midi":59,"time":19.5,"velocity":0.5039370078740157,"duration":0.375,"track":"4"},{"name":"G3","midi":55,"time":19.5,"velocity":0.5039370078740157,"duration":0.375,"track":"4"}],"19.875":[{"name":"F4","midi":65,"time":19.875,"velocity":0.5039370078740157,"duration":0.375,"track":"3"},{"name":"D4","midi":62,"time":19.875,"velocity":0.5039370078740157,"duration":0.375,"track":"3"},{"name":"B3","midi":59,"time":19.875,"velocity":0.5039370078740157,"duration":0.375,"track":"4"},{"name":"G3","midi":55,"time":19.875,"velocity":0.5039370078740157,"duration":0.375,"track":"4"}],"20.25":[{"name":"F4","midi":65,"time":20.25,"velocity":0.5039370078740157,"duration":1.125,"track":"3"},{"name":"D4","midi":62,"time":20.25,"velocity":0.5039370078740157,"duration":1.125,"track":"3"},{"name":"A3","midi":57,"time":20.25,"velocity":0.5039370078740157,"duration":1.125,"track":"4"},{"name":"A3","midi":57,"time":20.25,"velocity":0.5039370078740157,"duration":1.125,"track":"4"}],"21.375":[{"name":"E4","midi":64,"time":21.375,"velocity":0.5039370078740157,"duration":1.125,"track":"3"},{"name":"C4","midi":60,"time":21.375,"velocity":0.5039370078740157,"duration":1.125,"track":"3"},{"name":"A3","midi":57,"time":21.375,"velocity":0.5039370078740157,"duration":1.125,"track":"4"},{"name":"A3","midi":57,"time":21.375,"velocity":0.5039370078740157,"duration":15.75,"track":"4"}],"22.5":[{"name":"A4","midi":69,"time":22.5,"velocity":0.5039370078740157,"duration":1.125,"track":"3"},{"name":"F4","midi":65,"time":22.5,"velocity":0.5039370078740157,"duration":1.125,"track":"3"},{"name":"C4","midi":60,"time":22.5,"velocity":0.5039370078740157,"duration":1.125,"track":"4"},{"name":"F3","midi":53,"time":22.5,"velocity":0.5039370078740157,"duration":1.125,"track":"4"}],"23.625":[{"name":"A4","midi":69,"time":23.625,"velocity":0.5039370078740157,"duration":0.375,"track":"3"},{"name":"F4","midi":65,"time":23.625,"velocity":0.5039370078740157,"duration":0.375,"track":"3"},{"name":"C4","midi":60,"time":23.625,"velocity":0.5039370078740157,"duration":0.375,"track":"4"},{"name":"F3","midi":53,"time":23.625,"velocity":0.5039370078740157,"duration":0.375,"track":"4"}],"24.375":[{"name":"A4","midi":69,"time":24.375,"velocity":0.5039370078740157,"duration":0.375,"track":"3"},{"name":"F4","midi":65,"time":24.375,"velocity":0.5039370078740157,"duration":0.375,"track":"3"},{"name":"C4","midi":60,"time":24.375,"velocity":0.5039370078740157,"duration":0.375,"track":"4"},{"name":"F3","midi":53,"time":24.375,"velocity":0.5039370078740157,"duration":0.375,"track":"4"}],"24.75":[{"name":"A4","midi":69,"time":24.75,"velocity":0.5039370078740157,"duration":1.125,"track":"3"},{"name":"F4","midi":65,"time":24.75,"velocity":0.5039370078740157,"duration":1.125,"track":"3"},{"name":"C4","midi":60,"time":24.75,"velocity":0.5039370078740157,"duration":1.125,"track":"4"},{"name":"C3","midi":48,"time":24.75,"velocity":0.5039370078740157,"duration":2.25,"track":"4"}],"25.875":[{"name":"G4","midi":67,"time":25.875,"velocity":0.5039370078740157,"duration":2.625,"track":"3"},{"name":"E4","midi":64,"time":25.875,"velocity":0.5039370078740157,"duration":1.125,"track":"3"},{"name":"C4","midi":60,"time":25.875,"velocity":0.5039370078740157,"duration":1.125,"track":"4"}],"28.125":[{"name":"E5","midi":76,"time":28.125,"velocity":0.5039370078740157,"duration":0.375,"track":"3"},{"name":"G4","midi":67,"time":28.125,"velocity":0.5039370078740157,"duration":0.75,"track":"3"},{"name":"C4","midi":60,"time":28.125,"velocity":0.5039370078740157,"duration":0.375,"track":"4"},{"name":"C3","midi":48,"time":28.125,"velocity":0.5039370078740157,"duration":0.375,"track":"4"}],"28.5":[{"name":"D5","midi":74,"time":28.5,"velocity":0.5039370078740157,"duration":0.375,"track":"3"},{"name":"G4","midi":67,"time":28.5,"velocity":0.5039370078740157,"duration":0.75,"track":"3"},{"name":"B3","midi":59,"time":28.5,"velocity":0.5039370078740157,"duration":0.375,"track":"4"},{"name":"D3","midi":50,"time":28.5,"velocity":0.5039370078740157,"duration":0.375,"track":"4"}],"28.875":[{"name":"C5","midi":72,"time":28.875,"velocity":0.5039370078740157,"duration":0.375,"track":"3"},{"name":"G4","midi":67,"time":28.875,"velocity":0.5039370078740157,"duration":7.125,"track":"3"},{"name":"C4","midi":60,"time":28.875,"velocity":0.5039370078740157,"duration":0.375,"track":"4"},{"name":"E3","midi":52,"time":28.875,"velocity":0.5039370078740157,"duration":0.375,"track":"4"}],"29.25":[{"name":"C5","midi":72,"time":29.25,"velocity":0.5039370078740157,"duration":1.125,"track":"3"},{"name":"A4","midi":69,"time":29.25,"velocity":0.5039370078740157,"duration":1.125,"track":"3"},{"name":"C4","midi":60,"time":29.25,"velocity":0.5039370078740157,"duration":1.125,"track":"4"},{"name":"F3","midi":53,"time":29.25,"velocity":0.5039370078740157,"duration":1.125,"track":"4"}],"30.375":[{"name":"A4","midi":69,"time":30.375,"velocity":0.5039370078740157,"duration":1.125,"track":"3"},{"name":"F4","midi":65,"time":30.375,"velocity":0.5039370078740157,"duration":1.125,"track":"3"},{"name":"C4","midi":60,"time":30.375,"velocity":0.5039370078740157,"duration":1.125,"track":"4"},{"name":"F3","midi":53,"time":30.375,"velocity":0.5039370078740157,"duration":1.125,"track":"4"}],"31.5":[{"name":"B4","midi":71,"time":31.5,"velocity":0.5039370078740157,"duration":1.125,"track":"3"},{"name":"D4","midi":62,"time":31.5,"velocity":0.5039370078740157,"duration":1.125,"track":"3"},{"name":"G3","midi":55,"time":31.5,"velocity":0.5039370078740157,"duration":1.125,"track":"4"},{"name":"G3","midi":55,"time":31.5,"velocity":0.5039370078740157,"duration":1.5,"track":"4"}],"32.625":[{"name":"D5","midi":74,"time":32.625,"velocity":0.5039370078740157,"duration":0.375,"track":"3"},{"name":"F4","midi":65,"time":32.625,"velocity":0.5039370078740157,"duration":0.375,"track":"3"},{"name":"G3","midi":55,"time":32.625,"velocity":0.5039370078740157,"duration":0.75,"track":"4"},{"name":"G2","midi":43,"time":32.625,"velocity":0.5039370078740157,"duration":0.375,"track":"4"}],"33.375":[{"name":"B4","midi":71,"time":33.375,"velocity":0.5039370078740157,"duration":0.375,"track":"3"},{"name":"D4","midi":62,"time":33.375,"velocity":0.5039370078740157,"duration":0.375,"track":"3"},{"name":"G3","midi":55,"time":33.375,"velocity":0.5039370078740157,"duration":1.125,"track":"4"},{"name":"G2","midi":43,"time":33.375,"velocity":0.5039370078740157,"duration":0.375,"track":"4"}],"33.75":[{"name":"C5","midi":72,"time":33.75,"velocity":0.5039370078740157,"duration":0.75,"track":"3"},{"name":"E4","midi":64,"time":33.75,"velocity":0.5039370078740157,"duration":0.75,"track":"3"},{"name":"G3","midi":55,"time":33.75,"velocity":0.5039370078740157,"duration":4.5,"track":"4"},{"name":"C3","midi":48,"time":33.75,"velocity":0.5039370078740157,"duration":0.75,"track":"4"}],"34.875":[{"name":"G4","midi":67,"time":34.875,"velocity":0.5039370078740157,"duration":1.875,"track":"3"},{"name":"E4","midi":64,"time":34.875,"velocity":0.5039370078740157,"duration":1.125,"track":"3"},{"name":"C4","midi":60,"time":34.875,"velocity":0.5039370078740157,"duration":1.125,"track":"4"},{"name":"C3","midi":48,"time":34.875,"velocity":0.5039370078740157,"duration":1.125,"track":"4"}],"36.375":[{"name":"G4","midi":67,"time":36.375,"velocity":0.5039370078740157,"duration":1.875,"track":"3"},{"name":"E4","midi":64,"time":36.375,"velocity":0.5039370078740157,"duration":0.375,"track":"3"},{"name":"C4","midi":60,"time":36.375,"velocity":0.5039370078740157,"duration":0.375,"track":"4"},{"name":"C3","midi":48,"time":36.375,"velocity":0.5039370078740157,"duration":0.375,"track":"4"}],"36.75":[{"name":"F#4","midi":66,"time":36.75,"velocity":0.5039370078740157,"duration":0.375,"track":"3"},{"name":"D#4","midi":63,"time":36.75,"velocity":0.5039370078740157,"duration":0.375,"track":"3"},{"name":"A3","midi":57,"time":36.75,"velocity":0.5039370078740157,"duration":3.75,"track":"4"},{"name":"C3","midi":48,"time":36.75,"velocity":0.5039370078740157,"duration":0.375,"track":"4"}],"37.125":[{"name":"G4","midi":67,"time":37.125,"velocity":0.5039370078740157,"duration":4.125,"track":"3"},{"name":"E4","midi":64,"time":37.125,"velocity":0.5039370078740157,"duration":1.125,"track":"3"},{"name":"G3","midi":55,"time":37.125,"velocity":0.5039370078740157,"duration":2.25,"track":"4"},{"name":"C3","midi":48,"time":37.125,"velocity":0.5039370078740157,"duration":1.125,"track":"4"}],"38.25":[{"name":"E4","midi":64,"time":38.25,"velocity":0.5039370078740157,"duration":1.125,"track":"3"},{"name":"C4","midi":60,"time":38.25,"velocity":0.5039370078740157,"duration":1.125,"track":"3"},{"name":"G3","midi":55,"time":38.25,"velocity":0.5039370078740157,"duration":9,"track":"4"},{"name":"C3","midi":48,"time":38.25,"velocity":0.5039370078740157,"duration":1.125,"track":"4"}],"39.375":[{"name":"C5","midi":72,"time":39.375,"velocity":0.5039370078740157,"duration":1.125,"track":"3"},{"name":"E4","midi":64,"time":39.375,"velocity":0.5039370078740157,"duration":1.125,"track":"3"},{"name":"A3","midi":57,"time":39.375,"velocity":0.5039370078740157,"duration":5.625,"track":"4"},{"name":"A2","midi":45,"time":39.375,"velocity":0.5039370078740157,"duration":1.125,"track":"4"}],"40.5":[{"name":"C5","midi":72,"time":40.5,"velocity":0.5039370078740157,"duration":0.375,"track":"3"},{"name":"A4","midi":69,"time":40.5,"velocity":0.5039370078740157,"duration":0.375,"track":"3"},{"name":"C4","midi":60,"time":40.5,"velocity":0.5039370078740157,"duration":0.375,"track":"4"},{"name":"F2","midi":41,"time":40.5,"velocity":0.5039370078740157,"duration":0.375,"track":"4"}],"40.875":[{"name":"B4","midi":71,"time":40.875,"velocity":0.5039370078740157,"duration":0.375,"track":"3"},{"name":"G4","midi":67,"time":40.875,"velocity":0.5039370078740157,"duration":2.625,"track":"3"},{"name":"C4","midi":60,"time":40.875,"velocity":0.5039370078740157,"duration":0.375,"track":"4"},{"name":"F2","midi":41,"time":40.875,"velocity":0.5039370078740157,"duration":0.375,"track":"4"}],"41.25":[{"name":"A4","midi":69,"time":41.25,"velocity":0.5039370078740157,"duration":0.375,"track":"3"},{"name":"F4","midi":65,"time":41.25,"velocity":0.5039370078740157,"duration":0.375,"track":"3"},{"name":"C4","midi":60,"time":41.25,"velocity":0.5039370078740157,"duration":0.375,"track":"4"},{"name":"A2","midi":45,"time":41.25,"velocity":0.5039370078740157,"duration":0.375,"track":"4"}],"41.625":[{"name":"G4","midi":67,"time":41.625,"velocity":0.5039370078740157,"duration":4.125,"track":"3"},{"name":"E4","midi":64,"time":41.625,"velocity":0.5039370078740157,"duration":1.875,"track":"3"},{"name":"C4","midi":60,"time":41.625,"velocity":0.5039370078740157,"duration":1.875,"track":"4"},{"name":"C3","midi":48,"time":41.625,"velocity":0.5039370078740157,"duration":1.875,"track":"4"}],"43.875":[{"name":"F#4","midi":66,"time":43.875,"velocity":0.5039370078740157,"duration":1.125,"track":"3"},{"name":"D4","midi":62,"time":43.875,"velocity":0.5039370078740157,"duration":1.125,"track":"3"},{"name":"A3","midi":57,"time":43.875,"velocity":0.5039370078740157,"duration":2.25,"track":"4"},{"name":"D3","midi":50,"time":43.875,"velocity":0.5039370078740157,"duration":1.125,"track":"4"}],"45.375":[{"name":"G4","midi":67,"time":45.375,"velocity":0.5039370078740157,"duration":1.875,"track":"3"},{"name":"D4","midi":62,"time":45.375,"velocity":0.5039370078740157,"duration":0.375,"track":"3"},{"name":"B3","midi":59,"time":45.375,"velocity":0.5039370078740157,"duration":0.375,"track":"4"},{"name":"D3","midi":50,"time":45.375,"velocity":0.5039370078740157,"duration":0.375,"track":"4"}],"45.75":[{"name":"F#4","midi":66,"time":45.75,"velocity":0.5039370078740157,"duration":0.375,"track":"3"},{"name":"D4","midi":62,"time":45.75,"velocity":0.5039370078740157,"duration":0.375,"track":"3"},{"name":"A3","midi":57,"time":45.75,"velocity":0.5039370078740157,"duration":4.125,"track":"4"},{"name":"D3","midi":50,"time":45.75,"velocity":0.5039370078740157,"duration":0.375,"track":"4"}],"46.125":[{"name":"G4","midi":67,"time":46.125,"velocity":0.5039370078740157,"duration":2.25,"track":"3"},{"name":"D4","midi":62,"time":46.125,"velocity":0.5039370078740157,"duration":1.125,"track":"3"},{"name":"B3","midi":59,"time":46.125,"velocity":0.5039370078740157,"duration":1.125,"track":"4"},{"name":"G3","midi":55,"time":46.125,"velocity":0.5039370078740157,"duration":2.25,"track":"4"}],"47.25":[{"name":"B4","midi":71,"time":47.25,"velocity":0.5039370078740157,"duration":1.125,"track":"3"},{"name":"G4","midi":67,"time":47.25,"velocity":0.5039370078740157,"duration":3.375,"track":"3"},{"name":"D4","midi":62,"time":47.25,"velocity":0.5039370078740157,"duration":1.125,"track":"4"},{"name":"G3","midi":55,"time":47.25,"velocity":0.5039370078740157,"duration":5.25,"track":"4"}],"48.375":[{"name":"D5","midi":74,"time":48.375,"velocity":0.5039370078740157,"duration":1.125,"track":"3"},{"name":"F#4","midi":66,"time":48.375,"velocity":0.5039370078740157,"duration":1.125,"track":"3"},{"name":"D4","midi":62,"time":48.375,"velocity":0.5039370078740157,"duration":1.125,"track":"4"},{"name":"D3","midi":50,"time":48.375,"velocity":0.5039370078740157,"duration":1.125,"track":"4"}],"49.5":[{"name":"D5","midi":74,"time":49.5,"velocity":0.5039370078740157,"duration":0.375,"track":"3"},{"name":"F#4","midi":66,"time":49.5,"velocity":0.5039370078740157,"duration":0.375,"track":"3"},{"name":"A3","midi":57,"time":49.5,"velocity":0.5039370078740157,"duration":0.75,"track":"4"},{"name":"D3","midi":50,"time":49.5,"velocity":0.5039370078740157,"duration":0.375,"track":"4"}],"49.875":[{"name":"C5","midi":72,"time":49.875,"velocity":0.5039370078740157,"duration":0.375,"track":"3"},{"name":"F#4","midi":66,"time":49.875,"velocity":0.5039370078740157,"duration":0.375,"track":"3"},{"name":"A3","midi":57,"time":49.875,"velocity":0.5039370078740157,"duration":5.25,"track":"4"},{"name":"D3","midi":50,"time":49.875,"velocity":0.5039370078740157,"duration":0.375,"track":"4"}],"50.25":[{"name":"A4","midi":69,"time":50.25,"velocity":0.5039370078740157,"duration":0.375,"track":"3"},{"name":"F#4","midi":66,"time":50.25,"velocity":0.5039370078740157,"duration":0.375,"track":"3"},{"name":"C4","midi":60,"time":50.25,"velocity":0.5039370078740157,"duration":0.375,"track":"4"},{"name":"D3","midi":50,"time":50.25,"velocity":0.5039370078740157,"duration":0.375,"track":"4"}],"50.625":[{"name":"G4","midi":67,"time":50.625,"velocity":0.5039370078740157,"duration":1.125,"track":"3"},{"name":"G4","midi":67,"time":50.625,"velocity":0.5039370078740157,"duration":1.875,"track":"3"},{"name":"B3","midi":59,"time":50.625,"velocity":0.5039370078740157,"duration":1.125,"track":"4"},{"name":"G3","midi":55,"time":50.625,"velocity":0.5039370078740157,"duration":3.375,"track":"4"}],"51.75":[{"name":"G4","midi":67,"time":51.75,"velocity":0.5039370078740157,"duration":10.125,"track":"3"},{"name":"F4","midi":65,"time":51.75,"velocity":0.5039370078740157,"duration":0.75,"track":"3"},{"name":"B3","midi":59,"time":51.75,"velocity":0.5039370078740157,"duration":0.75,"track":"4"}],"52.875":[{"name":"F4","midi":65,"time":52.875,"velocity":0.5039370078740157,"duration":1.125,"track":"3"},{"name":"D4","midi":62,"time":52.875,"velocity":0.5039370078740157,"duration":1.125,"track":"3"},{"name":"B3","midi":59,"time":52.875,"velocity":0.5039370078740157,"duration":1.125,"track":"4"},{"name":"G3","midi":55,"time":52.875,"velocity":0.5039370078740157,"duration":1.5,"track":"4"}],"54.375":[{"name":"A4","midi":69,"time":54.375,"velocity":0.5039370078740157,"duration":0.375,"track":"3"},{"name":"F4","midi":65,"time":54.375,"velocity":0.5039370078740157,"duration":0.375,"track":"3"},{"name":"B3","midi":59,"time":54.375,"velocity":0.5039370078740157,"duration":0.375,"track":"4"},{"name":"G3","midi":55,"time":54.375,"velocity":0.5039370078740157,"duration":0.75,"track":"4"}],"54.75":[{"name":"F4","midi":65,"time":54.75,"velocity":0.5039370078740157,"duration":0.375,"track":"3"},{"name":"D4","midi":62,"time":54.75,"velocity":0.5039370078740157,"duration":0.375,"track":"3"},{"name":"B3","midi":59,"time":54.75,"velocity":0.5039370078740157,"duration":0.375,"track":"4"},{"name":"G3","midi":55,"time":54.75,"velocity":0.5039370078740157,"duration":8.25,"track":"4"}],"55.125":[{"name":"F4","midi":65,"time":55.125,"velocity":0.5039370078740157,"duration":1.125,"track":"3"},{"name":"D4","midi":62,"time":55.125,"velocity":0.5039370078740157,"duration":1.125,"track":"3"},{"name":"A3","midi":57,"time":55.125,"velocity":0.5039370078740157,"duration":1.125,"track":"4"},{"name":"A3","midi":57,"time":55.125,"velocity":0.5039370078740157,"duration":1.125,"track":"4"}],"56.25":[{"name":"E4","midi":64,"time":56.25,"velocity":0.5039370078740157,"duration":1.125,"track":"3"},{"name":"C4","midi":60,"time":56.25,"velocity":0.5039370078740157,"duration":1.125,"track":"3"},{"name":"A3","midi":57,"time":56.25,"velocity":0.5039370078740157,"duration":1.125,"track":"4"},{"name":"A3","midi":57,"time":56.25,"velocity":0.5039370078740157,"duration":15.75,"track":"4"}],"57.375":[{"name":"A4","midi":69,"time":57.375,"velocity":0.5039370078740157,"duration":1.125,"track":"3"},{"name":"F4","midi":65,"time":57.375,"velocity":0.5039370078740157,"duration":1.125,"track":"3"},{"name":"C4","midi":60,"time":57.375,"velocity":0.5039370078740157,"duration":1.125,"track":"4"},{"name":"F3","midi":53,"time":57.375,"velocity":0.5039370078740157,"duration":1.125,"track":"4"}],"58.5":[{"name":"A4","midi":69,"time":58.5,"velocity":0.5039370078740157,"duration":0.375,"track":"3"},{"name":"F4","midi":65,"time":58.5,"velocity":0.5039370078740157,"duration":0.375,"track":"3"},{"name":"C4","midi":60,"time":58.5,"velocity":0.5039370078740157,"duration":0.375,"track":"4"},{"name":"F3","midi":53,"time":58.5,"velocity":0.5039370078740157,"duration":0.375,"track":"4"}],"58.875":[{"name":"C5","midi":72,"time":58.875,"velocity":0.5039370078740157,"duration":0.375,"track":"3"},{"name":"A4","midi":69,"time":58.875,"velocity":0.5039370078740157,"duration":0.375,"track":"3"},{"name":"C4","midi":60,"time":58.875,"velocity":0.5039370078740157,"duration":0.375,"track":"4"},{"name":"F3","midi":53,"time":58.875,"velocity":0.5039370078740157,"duration":0.375,"track":"4"}],"59.25":[{"name":"A4","midi":69,"time":59.25,"velocity":0.5039370078740157,"duration":0.375,"track":"3"},{"name":"F4","midi":65,"time":59.25,"velocity":0.5039370078740157,"duration":0.375,"track":"3"},{"name":"C4","midi":60,"time":59.25,"velocity":0.5039370078740157,"duration":0.375,"track":"4"},{"name":"F3","midi":53,"time":59.25,"velocity":0.5039370078740157,"duration":0.375,"track":"4"}],"59.625":[{"name":"A4","midi":69,"time":59.625,"velocity":0.5039370078740157,"duration":1.125,"track":"3"},{"name":"F4","midi":65,"time":59.625,"velocity":0.5039370078740157,"duration":1.125,"track":"3"},{"name":"C4","midi":60,"time":59.625,"velocity":0.5039370078740157,"duration":1.125,"track":"4"},{"name":"C3","midi":48,"time":59.625,"velocity":0.5039370078740157,"duration":2.25,"track":"4"}],"60.75":[{"name":"G4","midi":67,"time":60.75,"velocity":0.5039370078740157,"duration":2.625,"track":"3"},{"name":"E4","midi":64,"time":60.75,"velocity":0.5039370078740157,"duration":1.125,"track":"3"},{"name":"C4","midi":60,"time":60.75,"velocity":0.5039370078740157,"duration":1.125,"track":"4"}],"61.875":[{"name":"C5","midi":72,"time":61.875,"velocity":0.5039370078740157,"duration":1.125,"track":"3"},{"name":"E4","midi":64,"time":61.875,"velocity":0.5039370078740157,"duration":1.125,"track":"3"},{"name":"G3","midi":55,"time":61.875,"velocity":0.5039370078740157,"duration":4.5,"track":"4"},{"name":"C3","midi":48,"time":61.875,"velocity":0.5039370078740157,"duration":1.125,"track":"4"}],"63.375":[{"name":"D5","midi":74,"time":63.375,"velocity":0.5039370078740157,"duration":0.375,"track":"3"},{"name":"G4","midi":67,"time":63.375,"velocity":0.5039370078740157,"duration":0.75,"track":"3"},{"name":"B3","midi":59,"time":63.375,"velocity":0.5039370078740157,"duration":0.375,"track":"4"},{"name":"D3","midi":50,"time":63.375,"velocity":0.5039370078740157,"duration":0.375,"track":"4"}],"63.75":[{"name":"C5","midi":72,"time":63.75,"velocity":0.5039370078740157,"duration":0.375,"track":"3"},{"name":"G4","midi":67,"time":63.75,"velocity":0.5039370078740157,"duration":7.125,"track":"3"},{"name":"C4","midi":60,"time":63.75,"velocity":0.5039370078740157,"duration":0.375,"track":"4"},{"name":"E3","midi":52,"time":63.75,"velocity":0.5039370078740157,"duration":0.375,"track":"4"}],"64.125":[{"name":"C5","midi":72,"time":64.125,"velocity":0.5039370078740157,"duration":1.125,"track":"3"},{"name":"A4","midi":69,"time":64.125,"velocity":0.5039370078740157,"duration":1.125,"track":"3"},{"name":"C4","midi":60,"time":64.125,"velocity":0.5039370078740157,"duration":1.125,"track":"4"},{"name":"F3","midi":53,"time":64.125,"velocity":0.5039370078740157,"duration":1.125,"track":"4"}],"65.25":[{"name":"A4","midi":69,"time":65.25,"velocity":0.5039370078740157,"duration":1.125,"track":"3"},{"name":"F4","midi":65,"time":65.25,"velocity":0.5039370078740157,"duration":1.125,"track":"3"},{"name":"C4","midi":60,"time":65.25,"velocity":0.5039370078740157,"duration":1.125,"track":"4"},{"name":"F3","midi":53,"time":65.25,"velocity":0.5039370078740157,"duration":1.125,"track":"4"}],"66.375":[{"name":"B4","midi":71,"time":66.375,"velocity":0.5039370078740157,"duration":1.125,"track":"3"},{"name":"D4","midi":62,"time":66.375,"velocity":0.5039370078740157,"duration":1.125,"track":"3"},{"name":"G3","midi":55,"time":66.375,"velocity":0.5039370078740157,"duration":1.125,"track":"4"},{"name":"G3","midi":55,"time":66.375,"velocity":0.5039370078740157,"duration":1.5,"track":"4"}],"67.5":[{"name":"D5","midi":74,"time":67.5,"velocity":0.5039370078740157,"duration":0.375,"track":"3"},{"name":"F4","midi":65,"time":67.5,"velocity":0.5039370078740157,"duration":0.375,"track":"3"},{"name":"G3","midi":55,"time":67.5,"velocity":0.5039370078740157,"duration":0.75,"track":"4"},{"name":"G2","midi":43,"time":67.5,"velocity":0.5039370078740157,"duration":0.375,"track":"4"}],"67.875":[{"name":"C5","midi":72,"time":67.875,"velocity":0.5039370078740157,"duration":0.375,"track":"3"},{"name":"E4","midi":64,"time":67.875,"velocity":0.5039370078740157,"duration":0.375,"track":"3"},{"name":"G3","midi":55,"time":67.875,"velocity":0.5039370078740157,"duration":0.75,"track":"4"},{"name":"G2","midi":43,"time":67.875,"velocity":0.5039370078740157,"duration":0.375,"track":"4"}],"68.25":[{"name":"B4","midi":71,"time":68.25,"velocity":0.5039370078740157,"duration":0.375,"track":"3"},{"name":"D4","midi":62,"time":68.25,"velocity":0.5039370078740157,"duration":0.375,"track":"3"},{"name":"G3","midi":55,"time":68.25,"velocity":0.5039370078740157,"duration":1.125,"track":"4"},{"name":"G2","midi":43,"time":68.25,"velocity":0.5039370078740157,"duration":0.375,"track":"4"}],"68.625":[{"name":"C5","midi":72,"time":68.625,"velocity":0.5039370078740157,"duration":0.75,"track":"3"},{"name":"E4","midi":64,"time":68.625,"velocity":0.5039370078740157,"duration":0.75,"track":"3"},{"name":"G3","midi":55,"time":68.625,"velocity":0.5039370078740157,"duration":4.5,"track":"4"},{"name":"C3","midi":48,"time":68.625,"velocity":0.5039370078740157,"duration":0.75,"track":"4"}],"69.75":[{"name":"G4","midi":67,"time":69.75,"velocity":0.5039370078740157,"duration":1.875,"track":"3"},{"name":"E4","midi":64,"time":69.75,"velocity":0.5039370078740157,"duration":1.125,"track":"3"},{"name":"C4","midi":60,"time":69.75,"velocity":0.5039370078740157,"duration":1.125,"track":"4"},{"name":"C3","midi":48,"time":69.75,"velocity":0.5039370078740157,"duration":1.125,"track":"4"}],"70.875":[{"name":"A4","midi":69,"time":70.875,"velocity":0.5039370078740157,"duration":0.375,"track":"3"},{"name":"F4","midi":65,"time":70.875,"velocity":0.5039370078740157,"duration":0.375,"track":"3"},{"name":"C4","midi":60,"time":70.875,"velocity":0.5039370078740157,"duration":0.375,"track":"4"},{"name":"C3","midi":48,"time":70.875,"velocity":0.5039370078740157,"duration":0.375,"track":"4"}],"71.25":[{"name":"G4","midi":67,"time":71.25,"velocity":0.5039370078740157,"duration":1.875,"track":"3"},{"name":"E4","midi":64,"time":71.25,"velocity":0.5039370078740157,"duration":0.375,"track":"3"},{"name":"C4","midi":60,"time":71.25,"velocity":0.5039370078740157,"duration":0.375,"track":"4"},{"name":"C3","midi":48,"time":71.25,"velocity":0.5039370078740157,"duration":0.375,"track":"4"}],"71.625":[{"name":"F#4","midi":66,"time":71.625,"velocity":0.5039370078740157,"duration":0.375,"track":"3"},{"name":"D#4","midi":63,"time":71.625,"velocity":0.5039370078740157,"duration":0.375,"track":"3"},{"name":"A3","midi":57,"time":71.625,"velocity":0.5039370078740157,"duration":3.75,"track":"4"},{"name":"C3","midi":48,"time":71.625,"velocity":0.5039370078740157,"duration":0.375,"track":"4"}],"73.125":[{"name":"E4","midi":64,"time":73.125,"velocity":0.5039370078740157,"duration":1.125,"track":"3"},{"name":"C4","midi":60,"time":73.125,"velocity":0.5039370078740157,"duration":1.125,"track":"3"},{"name":"G3","midi":55,"time":73.125,"velocity":0.5039370078740157,"duration":9,"track":"4"},{"name":"C3","midi":48,"time":73.125,"velocity":0.5039370078740157,"duration":1.125,"track":"4"}],"74.25":[{"name":"C5","midi":72,"time":74.25,"velocity":0.5039370078740157,"duration":1.125,"track":"3"},{"name":"E4","midi":64,"time":74.25,"velocity":0.5039370078740157,"duration":1.125,"track":"3"},{"name":"A3","midi":57,"time":74.25,"velocity":0.5039370078740157,"duration":5.625,"track":"4"},{"name":"A2","midi":45,"time":74.25,"velocity":0.5039370078740157,"duration":1.125,"track":"4"}],"75.375":[{"name":"C5","midi":72,"time":75.375,"velocity":0.5039370078740157,"duration":0.375,"track":"3"},{"name":"A4","midi":69,"time":75.375,"velocity":0.5039370078740157,"duration":0.375,"track":"3"},{"name":"C4","midi":60,"time":75.375,"velocity":0.5039370078740157,"duration":0.375,"track":"4"},{"name":"F2","midi":41,"time":75.375,"velocity":0.5039370078740157,"duration":0.375,"track":"4"}],"75.75":[{"name":"B4","midi":71,"time":75.75,"velocity":0.5039370078740157,"duration":0.375,"track":"3"},{"name":"G4","midi":67,"time":75.75,"velocity":0.5039370078740157,"duration":2.625,"track":"3"},{"name":"C4","midi":60,"time":75.75,"velocity":0.5039370078740157,"duration":0.375,"track":"4"},{"name":"F2","midi":41,"time":75.75,"velocity":0.5039370078740157,"duration":0.375,"track":"4"}],"76.125":[{"name":"A4","midi":69,"time":76.125,"velocity":0.5039370078740157,"duration":0.375,"track":"3"},{"name":"F4","midi":65,"time":76.125,"velocity":0.5039370078740157,"duration":0.375,"track":"3"},{"name":"C4","midi":60,"time":76.125,"velocity":0.5039370078740157,"duration":0.375,"track":"4"},{"name":"A2","midi":45,"time":76.125,"velocity":0.5039370078740157,"duration":0.375,"track":"4"}],"76.5":[{"name":"G4","midi":67,"time":76.5,"velocity":0.5039370078740157,"duration":4.125,"track":"3"},{"name":"E4","midi":64,"time":76.5,"velocity":0.5039370078740157,"duration":1.875,"track":"3"},{"name":"C4","midi":60,"time":76.5,"velocity":0.5039370078740157,"duration":1.875,"track":"4"},{"name":"C3","midi":48,"time":76.5,"velocity":0.5039370078740157,"duration":1.875,"track":"4"}],"78.75":[{"name":"F#4","midi":66,"time":78.75,"velocity":0.5039370078740157,"duration":1.125,"track":"3"},{"name":"D4","midi":62,"time":78.75,"velocity":0.5039370078740157,"duration":1.125,"track":"3"},{"name":"A3","midi":57,"time":78.75,"velocity":0.5039370078740157,"duration":2.25,"track":"4"},{"name":"D3","midi":50,"time":78.75,"velocity":0.5039370078740157,"duration":1.125,"track":"4"}],"79.875":[{"name":"A4","midi":69,"time":79.875,"velocity":0.5039370078740157,"duration":0.375,"track":"3"},{"name":"D4","midi":62,"time":79.875,"velocity":0.5039370078740157,"duration":0.375,"track":"3"},{"name":"C4","midi":60,"time":79.875,"velocity":0.5039370078740157,"duration":0.375,"track":"4"},{"name":"D3","midi":50,"time":79.875,"velocity":0.5039370078740157,"duration":0.375,"track":"4"}],"80.25":[{"name":"G4","midi":67,"time":80.25,"velocity":0.5039370078740157,"duration":1.875,"track":"3"},{"name":"D4","midi":62,"time":80.25,"velocity":0.5039370078740157,"duration":0.375,"track":"3"},{"name":"B3","midi":59,"time":80.25,"velocity":0.5039370078740157,"duration":0.375,"track":"4"},{"name":"D3","midi":50,"time":80.25,"velocity":0.5039370078740157,"duration":0.375,"track":"4"}],"80.625":[{"name":"F#4","midi":66,"time":80.625,"velocity":0.5039370078740157,"duration":0.375,"track":"3"},{"name":"D4","midi":62,"time":80.625,"velocity":0.5039370078740157,"duration":0.375,"track":"3"},{"name":"A3","midi":57,"time":80.625,"velocity":0.5039370078740157,"duration":4.125,"track":"4"},{"name":"D3","midi":50,"time":80.625,"velocity":0.5039370078740157,"duration":0.375,"track":"4"}],"82.125":[{"name":"B4","midi":71,"time":82.125,"velocity":0.5039370078740157,"duration":1.125,"track":"3"},{"name":"G4","midi":67,"time":82.125,"velocity":0.5039370078740157,"duration":3.375,"track":"3"},{"name":"D4","midi":62,"time":82.125,"velocity":0.5039370078740157,"duration":1.125,"track":"4"},{"name":"G3","midi":55,"time":82.125,"velocity":0.5039370078740157,"duration":5.25,"track":"4"}],"83.25":[{"name":"D5","midi":74,"time":83.25,"velocity":0.5039370078740157,"duration":1.125,"track":"3"},{"name":"F#4","midi":66,"time":83.25,"velocity":0.5039370078740157,"duration":1.125,"track":"3"},{"name":"D4","midi":62,"time":83.25,"velocity":0.5039370078740157,"duration":1.125,"track":"4"},{"name":"D3","midi":50,"time":83.25,"velocity":0.5039370078740157,"duration":1.125,"track":"4"}],"84.375":[{"name":"D5","midi":74,"time":84.375,"velocity":0.5039370078740157,"duration":0.375,"track":"3"},{"name":"F#4","midi":66,"time":84.375,"velocity":0.5039370078740157,"duration":0.375,"track":"3"},{"name":"A3","midi":57,"time":84.375,"velocity":0.5039370078740157,"duration":0.75,"track":"4"},{"name":"D3","midi":50,"time":84.375,"velocity":0.5039370078740157,"duration":0.375,"track":"4"}],"84.75":[{"name":"C5","midi":72,"time":84.75,"velocity":0.5039370078740157,"duration":0.375,"track":"3"},{"name":"F#4","midi":66,"time":84.75,"velocity":0.5039370078740157,"duration":0.375,"track":"3"},{"name":"A3","midi":57,"time":84.75,"velocity":0.5039370078740157,"duration":5.25,"track":"4"},{"name":"D3","midi":50,"time":84.75,"velocity":0.5039370078740157,"duration":0.375,"track":"4"}],"85.125":[{"name":"A4","midi":69,"time":85.125,"velocity":0.5039370078740157,"duration":0.375,"track":"3"},{"name":"F#4","midi":66,"time":85.125,"velocity":0.5039370078740157,"duration":0.375,"track":"3"},{"name":"C4","midi":60,"time":85.125,"velocity":0.5039370078740157,"duration":0.375,"track":"4"},{"name":"D3","midi":50,"time":85.125,"velocity":0.5039370078740157,"duration":0.375,"track":"4"}],"85.5":[{"name":"G4","midi":67,"time":85.5,"velocity":0.5039370078740157,"duration":1.125,"track":"3"},{"name":"G4","midi":67,"time":85.5,"velocity":0.5039370078740157,"duration":1.875,"track":"3"},{"name":"B3","midi":59,"time":85.5,"velocity":0.5039370078740157,"duration":1.125,"track":"4"},{"name":"G3","midi":55,"time":85.5,"velocity":0.5039370078740157,"duration":3.375,"track":"4"}],"86.625":[{"name":"G4","midi":67,"time":86.625,"velocity":0.5039370078740157,"duration":10.125,"track":"3"},{"name":"F4","midi":65,"time":86.625,"velocity":0.5039370078740157,"duration":0.75,"track":"3"},{"name":"B3","midi":59,"time":86.625,"velocity":0.5039370078740157,"duration":0.75,"track":"4"}],"87.75":[{"name":"F4","midi":65,"time":87.75,"velocity":0.5039370078740157,"duration":1.125,"track":"3"},{"name":"D4","midi":62,"time":87.75,"velocity":0.5039370078740157,"duration":1.125,"track":"3"},{"name":"B3","midi":59,"time":87.75,"velocity":0.5039370078740157,"duration":1.125,"track":"4"},{"name":"G3","midi":55,"time":87.75,"velocity":0.5039370078740157,"duration":1.5,"track":"4"}],"88.875":[{"name":"F4","midi":65,"time":88.875,"velocity":0.5039370078740157,"duration":0.375,"track":"3"},{"name":"D4","midi":62,"time":88.875,"velocity":0.5039370078740157,"duration":0.375,"track":"3"},{"name":"B3","midi":59,"time":88.875,"velocity":0.5039370078740157,"duration":0.375,"track":"4"},{"name":"G3","midi":55,"time":88.875,"velocity":0.5039370078740157,"duration":0.75,"track":"4"}],"89.25":[{"name":"A4","midi":69,"time":89.25,"velocity":0.5039370078740157,"duration":0.375,"track":"3"},{"name":"F4","midi":65,"time":89.25,"velocity":0.5039370078740157,"duration":0.375,"track":"3"},{"name":"B3","midi":59,"time":89.25,"velocity":0.5039370078740157,"duration":0.375,"track":"4"},{"name":"G3","midi":55,"time":89.25,"velocity":0.5039370078740157,"duration":0.75,"track":"4"}],"89.625":[{"name":"F4","midi":65,"time":89.625,"velocity":0.5039370078740157,"duration":0.375,"track":"3"},{"name":"D4","midi":62,"time":89.625,"velocity":0.5039370078740157,"duration":0.375,"track":"3"},{"name":"B3","midi":59,"time":89.625,"velocity":0.5039370078740157,"duration":0.375,"track":"4"},{"name":"G3","midi":55,"time":89.625,"velocity":0.5039370078740157,"duration":8.25,"track":"4"}],"91.125":[{"name":"E4","midi":64,"time":91.125,"velocity":0.5039370078740157,"duration":1.125,"track":"3"},{"name":"C4","midi":60,"time":91.125,"velocity":0.5039370078740157,"duration":1.125,"track":"3"},{"name":"A3","midi":57,"time":91.125,"velocity":0.5039370078740157,"duration":1.125,"track":"4"},{"name":"A3","midi":57,"time":91.125,"velocity":0.5039370078740157,"duration":15.75,"track":"4"}],"92.25":[{"name":"A4","midi":69,"time":92.25,"velocity":0.5039370078740157,"duration":1.125,"track":"3"},{"name":"F4","midi":65,"time":92.25,"velocity":0.5039370078740157,"duration":1.125,"track":"3"},{"name":"C4","midi":60,"time":92.25,"velocity":0.5039370078740157,"duration":1.125,"track":"4"},{"name":"F3","midi":53,"time":92.25,"velocity":0.5039370078740157,"duration":1.125,"track":"4"}],"93.375":[{"name":"A4","midi":69,"time":93.375,"velocity":0.5039370078740157,"duration":0.375,"track":"3"},{"name":"F4","midi":65,"time":93.375,"velocity":0.5039370078740157,"duration":0.375,"track":"3"},{"name":"C4","midi":60,"time":93.375,"velocity":0.5039370078740157,"duration":0.375,"track":"4"},{"name":"F3","midi":53,"time":93.375,"velocity":0.5039370078740157,"duration":0.375,"track":"4"}],"93.75":[{"name":"C5","midi":72,"time":93.75,"velocity":0.5039370078740157,"duration":0.375,"track":"3"},{"name":"A4","midi":69,"time":93.75,"velocity":0.5039370078740157,"duration":0.375,"track":"3"},{"name":"C4","midi":60,"time":93.75,"velocity":0.5039370078740157,"duration":0.375,"track":"4"},{"name":"F3","midi":53,"time":93.75,"velocity":0.5039370078740157,"duration":0.375,"track":"4"}],"94.125":[{"name":"A4","midi":69,"time":94.125,"velocity":0.5039370078740157,"duration":0.375,"track":"3"},{"name":"F4","midi":65,"time":94.125,"velocity":0.5039370078740157,"duration":0.375,"track":"3"},{"name":"C4","midi":60,"time":94.125,"velocity":0.5039370078740157,"duration":0.375,"track":"4"},{"name":"F3","midi":53,"time":94.125,"velocity":0.5039370078740157,"duration":0.375,"track":"4"}],"94.5":[{"name":"A4","midi":69,"time":94.5,"velocity":0.5039370078740157,"duration":1.125,"track":"3"},{"name":"F4","midi":65,"time":94.5,"velocity":0.5039370078740157,"duration":1.125,"track":"3"},{"name":"C4","midi":60,"time":94.5,"velocity":0.5039370078740157,"duration":1.125,"track":"4"},{"name":"C3","midi":48,"time":94.5,"velocity":0.5039370078740157,"duration":2.25,"track":"4"}],"95.625":[{"name":"G4","midi":67,"time":95.625,"velocity":0.5039370078740157,"duration":2.625,"track":"3"},{"name":"E4","midi":64,"time":95.625,"velocity":0.5039370078740157,"duration":1.125,"track":"3"},{"name":"C4","midi":60,"time":95.625,"velocity":0.5039370078740157,"duration":1.125,"track":"4"}],"96.75":[{"name":"C5","midi":72,"time":96.75,"velocity":0.5039370078740157,"duration":1.125,"track":"3"},{"name":"E4","midi":64,"time":96.75,"velocity":0.5039370078740157,"duration":1.125,"track":"3"},{"name":"G3","midi":55,"time":96.75,"velocity":0.5039370078740157,"duration":4.5,"track":"4"},{"name":"C3","midi":48,"time":96.75,"velocity":0.5039370078740157,"duration":1.125,"track":"4"}],"97.875":[{"name":"E5","midi":76,"time":97.875,"velocity":0.5039370078740157,"duration":0.375,"track":"3"},{"name":"G4","midi":67,"time":97.875,"velocity":0.5039370078740157,"duration":0.75,"track":"3"},{"name":"C4","midi":60,"time":97.875,"velocity":0.5039370078740157,"duration":0.375,"track":"4"},{"name":"C3","midi":48,"time":97.875,"velocity":0.5039370078740157,"duration":0.375,"track":"4"}],"98.25":[{"name":"D5","midi":74,"time":98.25,"velocity":0.5039370078740157,"duration":0.375,"track":"3"},{"name":"G4","midi":67,"time":98.25,"velocity":0.5039370078740157,"duration":0.75,"track":"3"},{"name":"B3","midi":59,"time":98.25,"velocity":0.5039370078740157,"duration":0.375,"track":"4"},{"name":"D3","midi":50,"time":98.25,"velocity":0.5039370078740157,"duration":0.375,"track":"4"}],"98.625":[{"name":"C5","midi":72,"time":98.625,"velocity":0.5039370078740157,"duration":0.375,"track":"3"},{"name":"G4","midi":67,"time":98.625,"velocity":0.5039370078740157,"duration":7.125,"track":"3"},{"name":"C4","midi":60,"time":98.625,"velocity":0.5039370078740157,"duration":0.375,"track":"4"},{"name":"E3","midi":52,"time":98.625,"velocity":0.5039370078740157,"duration":0.375,"track":"4"}],"100.125":[{"name":"A4","midi":69,"time":100.125,"velocity":0.5039370078740157,"duration":1.125,"track":"3"},{"name":"F4","midi":65,"time":100.125,"velocity":0.5039370078740157,"duration":1.125,"track":"3"},{"name":"C4","midi":60,"time":100.125,"velocity":0.5039370078740157,"duration":1.125,"track":"4"},{"name":"F3","midi":53,"time":100.125,"velocity":0.5039370078740157,"duration":1.125,"track":"4"}],"101.25":[{"name":"B4","midi":71,"time":101.25,"velocity":0.5039370078740157,"duration":1.125,"track":"3"},{"name":"D4","midi":62,"time":101.25,"velocity":0.5039370078740157,"duration":1.125,"track":"3"},{"name":"G3","midi":55,"time":101.25,"velocity":0.5039370078740157,"duration":1.125,"track":"4"},{"name":"G3","midi":55,"time":101.25,"velocity":0.5039370078740157,"duration":1.5,"track":"4"}],"102.375":[{"name":"D5","midi":74,"time":102.375,"velocity":0.5039370078740157,"duration":0.375,"track":"3"},{"name":"F4","midi":65,"time":102.375,"velocity":0.5039370078740157,"duration":0.375,"track":"3"},{"name":"G3","midi":55,"time":102.375,"velocity":0.5039370078740157,"duration":0.75,"track":"4"},{"name":"G2","midi":43,"time":102.375,"velocity":0.5039370078740157,"duration":0.375,"track":"4"}],"102.75":[{"name":"C5","midi":72,"time":102.75,"velocity":0.5039370078740157,"duration":0.375,"track":"3"},{"name":"E4","midi":64,"time":102.75,"velocity":0.5039370078740157,"duration":0.375,"track":"3"},{"name":"G3","midi":55,"time":102.75,"velocity":0.5039370078740157,"duration":0.75,"track":"4"},{"name":"G2","midi":43,"time":102.75,"velocity":0.5039370078740157,"duration":0.375,"track":"4"}],"103.125":[{"name":"B4","midi":71,"time":103.125,"velocity":0.5039370078740157,"duration":0.375,"track":"3"},{"name":"D4","midi":62,"time":103.125,"velocity":0.5039370078740157,"duration":0.375,"track":"3"},{"name":"G3","midi":55,"time":103.125,"velocity":0.5039370078740157,"duration":1.125,"track":"4"},{"name":"G2","midi":43,"time":103.125,"velocity":0.5039370078740157,"duration":0.375,"track":"4"}],"103.5":[{"name":"C5","midi":72,"time":103.5,"velocity":0.5039370078740157,"duration":0.75,"track":"3"},{"name":"E4","midi":64,"time":103.5,"velocity":0.5039370078740157,"duration":0.75,"track":"3"},{"name":"G3","midi":55,"time":103.5,"velocity":0.5039370078740157,"duration":4.5,"track":"4"},{"name":"C3","midi":48,"time":103.5,"velocity":0.5039370078740157,"duration":0.75,"track":"4"}],"104.625":[{"name":"G4","midi":67,"time":104.625,"velocity":0.5039370078740157,"duration":1.875,"track":"3"},{"name":"E4","midi":64,"time":104.625,"velocity":0.5039370078740157,"duration":1.125,"track":"3"},{"name":"C4","midi":60,"time":104.625,"velocity":0.5039370078740157,"duration":1.125,"track":"4"},{"name":"C3","midi":48,"time":104.625,"velocity":0.5039370078740157,"duration":1.125,"track":"4"}],"105.75":[{"name":"A4","midi":69,"time":105.75,"velocity":0.5039370078740157,"duration":0.375,"track":"3"},{"name":"F4","midi":65,"time":105.75,"velocity":0.5039370078740157,"duration":0.375,"track":"3"},{"name":"C4","midi":60,"time":105.75,"velocity":0.5039370078740157,"duration":0.375,"track":"4"},{"name":"C3","midi":48,"time":105.75,"velocity":0.5039370078740157,"duration":0.375,"track":"4"}],"106.125":[{"name":"G4","midi":67,"time":106.125,"velocity":0.5039370078740157,"duration":1.875,"track":"3"},{"name":"E4","midi":64,"time":106.125,"velocity":0.5039370078740157,"duration":0.375,"track":"3"},{"name":"C4","midi":60,"time":106.125,"velocity":0.5039370078740157,"duration":0.375,"track":"4"},{"name":"C3","midi":48,"time":106.125,"velocity":0.5039370078740157,"duration":0.375,"track":"4"}],"106.5":[{"name":"F#4","midi":66,"time":106.5,"velocity":0.5039370078740157,"duration":0.375,"track":"3"},{"name":"D#4","midi":63,"time":106.5,"velocity":0.5039370078740157,"duration":0.375,"track":"3"},{"name":"A3","midi":57,"time":106.5,"velocity":0.5039370078740157,"duration":3.75,"track":"4"},{"name":"C3","midi":48,"time":106.5,"velocity":0.5039370078740157,"duration":0.375,"track":"4"}],"106.875":[{"name":"G4","midi":67,"time":106.875,"velocity":0.5039370078740157,"duration":4.125,"track":"3"},{"name":"E4","midi":64,"time":106.875,"velocity":0.5039370078740157,"duration":1.125,"track":"3"},{"name":"G3","midi":55,"time":106.875,"velocity":0.5039370078740157,"duration":2.25,"track":"4"},{"name":"C3","midi":48,"time":106.875,"velocity":0.5039370078740157,"duration":1.125,"track":"4"}],"109.125":[{"name":"C5","midi":72,"time":109.125,"velocity":0.5039370078740157,"duration":1.125,"track":"3"},{"name":"E4","midi":64,"time":109.125,"velocity":0.5039370078740157,"duration":1.125,"track":"3"},{"name":"A3","midi":57,"time":109.125,"velocity":0.5039370078740157,"duration":5.625,"track":"4"},{"name":"A2","midi":45,"time":109.125,"velocity":0.5039370078740157,"duration":1.125,"track":"4"}],"110.25":[{"name":"C5","midi":72,"time":110.25,"velocity":0.5039370078740157,"duration":0.375,"track":"3"},{"name":"A4","midi":69,"time":110.25,"velocity":0.5039370078740157,"duration":0.375,"track":"3"},{"name":"C4","midi":60,"time":110.25,"velocity":0.5039370078740157,"duration":0.375,"track":"4"},{"name":"F2","midi":41,"time":110.25,"velocity":0.5039370078740157,"duration":0.375,"track":"4"}],"110.625":[{"name":"B4","midi":71,"time":110.625,"velocity":0.5039370078740157,"duration":0.375,"track":"3"},{"name":"G4","midi":67,"time":110.625,"velocity":0.5039370078740157,"duration":2.625,"track":"3"},{"name":"C4","midi":60,"time":110.625,"velocity":0.5039370078740157,"duration":0.375,"track":"4"},{"name":"F2","midi":41,"time":110.625,"velocity":0.5039370078740157,"duration":0.375,"track":"4"}],"111.375":[{"name":"G4","midi":67,"time":111.375,"velocity":0.5039370078740157,"duration":4.125,"track":"3"},{"name":"E4","midi":64,"time":111.375,"velocity":0.5039370078740157,"duration":1.875,"track":"3"},{"name":"C4","midi":60,"time":111.375,"velocity":0.5039370078740157,"duration":1.875,"track":"4"},{"name":"C3","midi":48,"time":111.375,"velocity":0.5039370078740157,"duration":1.875,"track":"4"}],"113.625":[{"name":"F#4","midi":66,"time":113.625,"velocity":0.5039370078740157,"duration":1.125,"track":"3"},{"name":"D4","midi":62,"time":113.625,"velocity":0.5039370078740157,"duration":1.125,"track":"3"},{"name":"A3","midi":57,"time":113.625,"velocity":0.5039370078740157,"duration":2.25,"track":"4"},{"name":"D3","midi":50,"time":113.625,"velocity":0.5039370078740157,"duration":1.125,"track":"4"}],"114.75":[{"name":"A4","midi":69,"time":114.75,"velocity":0.5039370078740157,"duration":0.375,"track":"3"},{"name":"D4","midi":62,"time":114.75,"velocity":0.5039370078740157,"duration":0.375,"track":"3"},{"name":"C4","midi":60,"time":114.75,"velocity":0.5039370078740157,"duration":0.375,"track":"4"},{"name":"D3","midi":50,"time":114.75,"velocity":0.5039370078740157,"duration":0.375,"track":"4"}],"115.125":[{"name":"G4","midi":67,"time":115.125,"velocity":0.5039370078740157,"duration":1.875,"track":"3"},{"name":"D4","midi":62,"time":115.125,"velocity":0.5039370078740157,"duration":0.375,"track":"3"},{"name":"B3","midi":59,"time":115.125,"velocity":0.5039370078740157,"duration":0.375,"track":"4"},{"name":"D3","midi":50,"time":115.125,"velocity":0.5039370078740157,"duration":0.375,"track":"4"}],"115.5":[{"name":"F#4","midi":66,"time":115.5,"velocity":0.5039370078740157,"duration":0.375,"track":"3"},{"name":"D4","midi":62,"time":115.5,"velocity":0.5039370078740157,"duration":0.375,"track":"3"},{"name":"A3","midi":57,"time":115.5,"velocity":0.5039370078740157,"duration":4.125,"track":"4"},{"name":"D3","midi":50,"time":115.5,"velocity":0.5039370078740157,"duration":0.375,"track":"4"}],"115.875":[{"name":"G4","midi":67,"time":115.875,"velocity":0.5039370078740157,"duration":2.25,"track":"3"},{"name":"D4","midi":62,"time":115.875,"velocity":0.5039370078740157,"duration":1.125,"track":"3"},{"name":"B3","midi":59,"time":115.875,"velocity":0.5039370078740157,"duration":1.125,"track":"4"},{"name":"G3","midi":55,"time":115.875,"velocity":0.5039370078740157,"duration":2.25,"track":"4"}],"118.125":[{"name":"D5","midi":74,"time":118.125,"velocity":0.5039370078740157,"duration":1.125,"track":"3"},{"name":"F#4","midi":66,"time":118.125,"velocity":0.5039370078740157,"duration":1.125,"track":"3"},{"name":"D4","midi":62,"time":118.125,"velocity":0.5039370078740157,"duration":1.125,"track":"4"},{"name":"D3","midi":50,"time":118.125,"velocity":0.5039370078740157,"duration":1.125,"track":"4"}],"119.25":[{"name":"D5","midi":74,"time":119.25,"velocity":0.5039370078740157,"duration":0.375,"track":"3"},{"name":"F#4","midi":66,"time":119.25,"velocity":0.5039370078740157,"duration":0.375,"track":"3"},{"name":"A3","midi":57,"time":119.25,"velocity":0.5039370078740157,"duration":0.75,"track":"4"},{"name":"D3","midi":50,"time":119.25,"velocity":0.5039370078740157,"duration":0.375,"track":"4"}],"119.625":[{"name":"C5","midi":72,"time":119.625,"velocity":0.5039370078740157,"duration":0.375,"track":"3"},{"name":"F#4","midi":66,"time":119.625,"velocity":0.5039370078740157,"duration":0.375,"track":"3"},{"name":"A3","midi":57,"time":119.625,"velocity":0.5039370078740157,"duration":5.25,"track":"4"},{"name":"D3","midi":50,"time":119.625,"velocity":0.5039370078740157,"duration":0.375,"track":"4"}],"120.375":[{"name":"G4","midi":67,"time":120.375,"velocity":0.5039370078740157,"duration":1.125,"track":"3"},{"name":"G4","midi":67,"time":120.375,"velocity":0.5039370078740157,"duration":1.875,"track":"3"},{"name":"B3","midi":59,"time":120.375,"velocity":0.5039370078740157,"duration":1.125,"track":"4"},{"name":"G3","midi":55,"time":120.375,"velocity":0.5039370078740157,"duration":3.375,"track":"4"}],"121.5":[{"name":"G4","midi":67,"time":121.5,"velocity":0.5039370078740157,"duration":10.125,"track":"3"},{"name":"F4","midi":65,"time":121.5,"velocity":0.5039370078740157,"duration":0.75,"track":"3"},{"name":"B3","midi":59,"time":121.5,"velocity":0.5039370078740157,"duration":0.75,"track":"4"}],"122.625":[{"name":"F4","midi":65,"time":122.625,"velocity":0.5039370078740157,"duration":1.125,"track":"3"},{"name":"D4","midi":62,"time":122.625,"velocity":0.5039370078740157,"duration":1.125,"track":"3"},{"name":"B3","midi":59,"time":122.625,"velocity":0.5039370078740157,"duration":1.125,"track":"4"},{"name":"G3","midi":55,"time":122.625,"velocity":0.5039370078740157,"duration":1.5,"track":"4"}],"123.75":[{"name":"F4","midi":65,"time":123.75,"velocity":0.5039370078740157,"duration":0.375,"track":"3"},{"name":"D4","midi":62,"time":123.75,"velocity":0.5039370078740157,"duration":0.375,"track":"3"},{"name":"B3","midi":59,"time":123.75,"velocity":0.5039370078740157,"duration":0.375,"track":"4"},{"name":"G3","midi":55,"time":123.75,"velocity":0.5039370078740157,"duration":0.75,"track":"4"}],"124.125":[{"name":"A4","midi":69,"time":124.125,"velocity":0.5039370078740157,"duration":0.375,"track":"3"},{"name":"F4","midi":65,"time":124.125,"velocity":0.5039370078740157,"duration":0.375,"track":"3"},{"name":"B3","midi":59,"time":124.125,"velocity":0.5039370078740157,"duration":0.375,"track":"4"},{"name":"G3","midi":55,"time":124.125,"velocity":0.5039370078740157,"duration":0.75,"track":"4"}],"124.5":[{"name":"F4","midi":65,"time":124.5,"velocity":0.5039370078740157,"duration":0.375,"track":"3"},{"name":"D4","midi":62,"time":124.5,"velocity":0.5039370078740157,"duration":0.375,"track":"3"},{"name":"B3","midi":59,"time":124.5,"velocity":0.5039370078740157,"duration":0.375,"track":"4"},{"name":"G3","midi":55,"time":124.5,"velocity":0.5039370078740157,"duration":8.25,"track":"4"}],"124.875":[{"name":"F4","midi":65,"time":124.875,"velocity":0.5039370078740157,"duration":1.125,"track":"3"},{"name":"D4","midi":62,"time":124.875,"velocity":0.5039370078740157,"duration":1.125,"track":"3"},{"name":"A3","midi":57,"time":124.875,"velocity":0.5039370078740157,"duration":1.125,"track":"4"},{"name":"A3","midi":57,"time":124.875,"velocity":0.5039370078740157,"duration":1.125,"track":"4"}],"127.125":[{"name":"A4","midi":69,"time":127.125,"velocity":0.5039370078740157,"duration":1.125,"track":"3"},{"name":"F4","midi":65,"time":127.125,"velocity":0.5039370078740157,"duration":1.125,"track":"3"},{"name":"C4","midi":60,"time":127.125,"velocity":0.5039370078740157,"duration":1.125,"track":"4"},{"name":"F3","midi":53,"time":127.125,"velocity":0.5039370078740157,"duration":1.125,"track":"4"}],"128.25":[{"name":"A4","midi":69,"time":128.25,"velocity":0.5039370078740157,"duration":0.375,"track":"3"},{"name":"F4","midi":65,"time":128.25,"velocity":0.5039370078740157,"duration":0.375,"track":"3"},{"name":"C4","midi":60,"time":128.25,"velocity":0.5039370078740157,"duration":0.375,"track":"4"},{"name":"F3","midi":53,"time":128.25,"velocity":0.5039370078740157,"duration":0.375,"track":"4"}],"128.625":[{"name":"C5","midi":72,"time":128.625,"velocity":0.5039370078740157,"duration":0.375,"track":"3"},{"name":"A4","midi":69,"time":128.625,"velocity":0.5039370078740157,"duration":0.375,"track":"3"},{"name":"C4","midi":60,"time":128.625,"velocity":0.5039370078740157,"duration":0.375,"track":"4"},{"name":"F3","midi":53,"time":128.625,"velocity":0.5039370078740157,"duration":0.375,"track":"4"}],"129.375":[{"name":"A4","midi":69,"time":129.375,"velocity":0.5039370078740157,"duration":1.125,"track":"3"},{"name":"F4","midi":65,"time":129.375,"velocity":0.5039370078740157,"duration":1.125,"track":"3"},{"name":"C4","midi":60,"time":129.375,"velocity":0.5039370078740157,"duration":1.125,"track":"4"},{"name":"C3","midi":48,"time":129.375,"velocity":0.5039370078740157,"duration":2.25,"track":"4"}],"130.5":[{"name":"G4","midi":67,"time":130.5,"velocity":0.5039370078740157,"duration":2.625,"track":"3"},{"name":"E4","midi":64,"time":130.5,"velocity":0.5039370078740157,"duration":1.125,"track":"3"},{"name":"C4","midi":60,"time":130.5,"velocity":0.5039370078740157,"duration":1.125,"track":"4"}],"131.625":[{"name":"C5","midi":72,"time":131.625,"velocity":0.5039370078740157,"duration":1.125,"track":"3"},{"name":"E4","midi":64,"time":131.625,"velocity":0.5039370078740157,"duration":1.125,"track":"3"},{"name":"G3","midi":55,"time":131.625,"velocity":0.5039370078740157,"duration":4.5,"track":"4"},{"name":"C3","midi":48,"time":131.625,"velocity":0.5039370078740157,"duration":1.125,"track":"4"}],"132.75":[{"name":"E5","midi":76,"time":132.75,"velocity":0.5039370078740157,"duration":0.375,"track":"3"},{"name":"G4","midi":67,"time":132.75,"velocity":0.5039370078740157,"duration":0.75,"track":"3"},{"name":"C4","midi":60,"time":132.75,"velocity":0.5039370078740157,"duration":0.375,"track":"4"},{"name":"C3","midi":48,"time":132.75,"velocity":0.5039370078740157,"duration":0.375,"track":"4"}],"133.125":[{"name":"D5","midi":74,"time":133.125,"velocity":0.5039370078740157,"duration":0.375,"track":"3"},{"name":"G4","midi":67,"time":133.125,"velocity":0.5039370078740157,"duration":0.75,"track":"3"},{"name":"B3","midi":59,"time":133.125,"velocity":0.5039370078740157,"duration":0.375,"track":"4"},{"name":"D3","midi":50,"time":133.125,"velocity":0.5039370078740157,"duration":0.375,"track":"4"}],"133.5":[{"name":"C5","midi":72,"time":133.5,"velocity":0.5039370078740157,"duration":0.375,"track":"3"},{"name":"G4","midi":67,"time":133.5,"velocity":0.5039370078740157,"duration":9,"track":"3"},{"name":"C4","midi":60,"time":133.5,"velocity":0.5039370078740157,"duration":0.375,"track":"4"},{"name":"E3","midi":52,"time":133.5,"velocity":0.5039370078740157,"duration":0.375,"track":"4"}],"133.875":[{"name":"C5","midi":72,"time":133.875,"velocity":0.5039370078740157,"duration":1.125,"track":"3"},{"name":"A4","midi":69,"time":133.875,"velocity":0.5039370078740157,"duration":1.125,"track":"3"},{"name":"C4","midi":60,"time":133.875,"velocity":0.5039370078740157,"duration":1.125,"track":"4"},{"name":"F3","midi":53,"time":133.875,"velocity":0.5039370078740157,"duration":1.125,"track":"4"}],"136.125":[{"name":"B4","midi":71,"time":136.125,"velocity":0.5039370078740157,"duration":1.125,"track":"3"},{"name":"D4","midi":62,"time":136.125,"velocity":0.5039370078740157,"duration":1.125,"track":"3"},{"name":"G3","midi":55,"time":136.125,"velocity":0.5039370078740157,"duration":1.125,"track":"4"},{"name":"G3","midi":55,"time":136.125,"velocity":0.5039370078740157,"duration":1.5,"track":"4"}],"137.25":[{"name":"D5","midi":74,"time":137.25,"velocity":0.5039370078740157,"duration":0.375,"track":"3"},{"name":"F4","midi":65,"time":137.25,"velocity":0.5039370078740157,"duration":0.375,"track":"3"},{"name":"G3","midi":55,"time":137.25,"velocity":0.5039370078740157,"duration":0.75,"track":"4"},{"name":"G2","midi":43,"time":137.25,"velocity":0.5039370078740157,"duration":0.375,"track":"4"}],"137.625":[{"name":"C5","midi":72,"time":137.625,"velocity":0.5039370078740157,"duration":0.375,"track":"3"},{"name":"E4","midi":64,"time":137.625,"velocity":0.5039370078740157,"duration":0.375,"track":"3"},{"name":"G3","midi":55,"time":137.625,"velocity":0.5039370078740157,"duration":0.75,"track":"4"},{"name":"G2","midi":43,"time":137.625,"velocity":0.5039370078740157,"duration":0.375,"track":"4"}],"138.375":[{"name":"C5","midi":72,"time":138.375,"velocity":0.5039370078740157,"duration":0.75,"track":"3"},{"name":"E4","midi":64,"time":138.375,"velocity":0.5039370078740157,"duration":0.75,"track":"3"},{"name":"G3","midi":55,"time":138.375,"velocity":0.5039370078740157,"duration":2.625,"track":"4"},{"name":"C3","midi":48,"time":138.375,"velocity":0.5039370078740157,"duration":0.75,"track":"4"}],"139.5":[{"name":"C5","midi":72,"time":139.5,"velocity":0.5039370078740157,"duration":1.125,"track":"3"}],"140.625":[{"name":"G4","midi":67,"time":140.625,"velocity":0.5039370078740157,"duration":3.375,"track":"3"},{"name":"D4","midi":62,"time":140.625,"velocity":0.5039370078740157,"duration":0.375,"track":"3"},{"name":"B3","midi":59,"time":140.625,"velocity":0.5039370078740157,"duration":0.375,"track":"4"},{"name":"G3","midi":55,"time":140.625,"velocity":0.5039370078740157,"duration":0.75,"track":"4"}],"141.375":[{"name":"E4","midi":64,"time":141.375,"velocity":0.5039370078740157,"duration":0.375,"track":"3"},{"name":"C4","midi":60,"time":141.375,"velocity":0.5039370078740157,"duration":0.375,"track":"4"},{"name":"G3","midi":55,"time":141.375,"velocity":0.5039370078740157,"duration":1.125,"track":"4"}],"141.75":[{"name":"F4","midi":65,"time":141.75,"velocity":0.5039370078740157,"duration":0.375,"track":"3"},{"name":"D4","midi":62,"time":141.75,"velocity":0.5039370078740157,"duration":0.75,"track":"4"},{"name":"G3","midi":55,"time":141.75,"velocity":0.5039370078740157,"duration":1.125,"track":"4"}],"142.5":[{"name":"E4","midi":64,"time":142.5,"velocity":0.5039370078740157,"duration":0.375,"track":"3"},{"name":"C4","midi":60,"time":142.5,"velocity":0.5039370078740157,"duration":0.375,"track":"4"},{"name":"G3","midi":55,"time":142.5,"velocity":0.5039370078740157,"duration":1.5,"track":"4"}],"142.875":[{"name":"G4","midi":67,"time":142.875,"velocity":0.5039370078740157,"duration":4.125,"track":"3"},{"name":"D4","midi":62,"time":142.875,"velocity":0.5039370078740157,"duration":1.125,"track":"3"},{"name":"B3","midi":59,"time":142.875,"velocity":0.5039370078740157,"duration":1.125,"track":"4"},{"name":"G3","midi":55,"time":142.875,"velocity":0.5039370078740157,"duration":14.25,"track":"4"}],"145.125":[{"name":"C5","midi":72,"time":145.125,"velocity":0.5039370078740157,"duration":3.375,"track":"3"},{"name":"E4","midi":64,"time":145.125,"velocity":0.5039370078740157,"duration":0.375,"track":"3"},{"name":"C4","midi":60,"time":145.125,"velocity":0.5039370078740157,"duration":0.375,"track":"4"},{"name":"C3","midi":48,"time":145.125,"velocity":0.5039370078740157,"duration":0.375,"track":"4"}],"145.5":[{"name":"E4","midi":64,"time":145.5,"velocity":0.5039370078740157,"duration":0.375,"track":"3"},{"name":"C4","midi":60,"time":145.5,"velocity":0.5039370078740157,"duration":0.375,"track":"4"},{"name":"C3","midi":48,"time":145.5,"velocity":0.5039370078740157,"duration":0.375,"track":"4"}],"145.875":[{"name":"F4","midi":65,"time":145.875,"velocity":0.5039370078740157,"duration":0.375,"track":"3"},{"name":"D4","midi":62,"time":145.875,"velocity":0.5039370078740157,"duration":0.375,"track":"4"},{"name":"C3","midi":48,"time":145.875,"velocity":0.5039370078740157,"duration":0.375,"track":"4"}],"146.25":[{"name":"G4","midi":67,"time":146.25,"velocity":0.5039370078740157,"duration":5.25,"track":"3"},{"name":"E4","midi":64,"time":146.25,"velocity":0.5039370078740157,"duration":0.75,"track":"4"},{"name":"C3","midi":48,"time":146.25,"velocity":0.5039370078740157,"duration":0.75,"track":"4"}],"147.375":[{"name":"E4","midi":64,"time":147.375,"velocity":0.5039370078740157,"duration":1.125,"track":"3"},{"name":"C4","midi":60,"time":147.375,"velocity":0.5039370078740157,"duration":1.125,"track":"4"},{"name":"C3","midi":48,"time":147.375,"velocity":0.5039370078740157,"duration":1.125,"track":"4"}],"149.625":[{"name":"C5","midi":72,"time":149.625,"velocity":0.5039370078740157,"duration":1.125,"track":"3"},{"name":"A4","midi":69,"time":149.625,"velocity":0.5039370078740157,"duration":1.125,"track":"3"},{"name":"F2","midi":41,"time":149.625,"velocity":0.5039370078740157,"duration":2.25,"track":"4"}],"150.75":[{"name":"B4","midi":71,"time":150.75,"velocity":0.5039370078740157,"duration":0.75,"track":"3"},{"name":"G4","midi":67,"time":150.75,"velocity":0.5039370078740157,"duration":3,"track":"3"}],"151.5":[{"name":"A4","midi":69,"time":151.5,"velocity":0.5039370078740157,"duration":0.375,"track":"3"},{"name":"F4","midi":65,"time":151.5,"velocity":0.5039370078740157,"duration":0.375,"track":"3"}],"151.875":[{"name":"A4","midi":69,"time":151.875,"velocity":0.5039370078740157,"duration":0.375,"track":"3"},{"name":"F4","midi":65,"time":151.875,"velocity":0.5039370078740157,"duration":0.375,"track":"3"},{"name":"C3","midi":48,"time":151.875,"velocity":0.5039370078740157,"duration":1.875,"track":"4"},{"name":"C2","midi":36,"time":151.875,"velocity":0.5039370078740157,"duration":1.875,"track":"4"}],"152.25":[{"name":"G4","midi":67,"time":152.25,"velocity":0.5039370078740157,"duration":8.25,"track":"3"},{"name":"E4","midi":64,"time":152.25,"velocity":0.5039370078740157,"duration":1.5,"track":"3"}],"153.75":[{"name":"E4","midi":64,"time":153.75,"velocity":0.5039370078740157,"duration":0.375,"track":"3"},{"name":"C4","midi":60,"time":153.75,"velocity":0.5039370078740157,"duration":0.375,"track":"3"}],"154.125":[{"name":"F#4","midi":66,"time":154.125,"velocity":0.5039370078740157,"duration":1.125,"track":"3"},{"name":"C4","midi":60,"time":154.125,"velocity":0.5039370078740157,"duration":1.125,"track":"3"},{"name":"D3","midi":50,"time":154.125,"velocity":0.5039370078740157,"duration":1.125,"track":"4"}],"155.25":[{"name":"D4","midi":62,"time":155.25,"velocity":0.5039370078740157,"duration":1.125,"track":"3"},{"name":"C4","midi":60,"time":155.25,"velocity":0.5039370078740157,"duration":1.125,"track":"3"},{"name":"F#3","midi":54,"time":155.25,"velocity":0.5039370078740157,"duration":1.125,"track":"4"}],"156.375":[{"name":"F4","midi":65,"time":156.375,"velocity":0.5039370078740157,"duration":0.75,"track":"3"},{"name":"B3","midi":59,"time":156.375,"velocity":0.5039370078740157,"duration":0.75,"track":"3"},{"name":"G3","midi":55,"time":156.375,"velocity":0.5039370078740157,"duration":2.625,"track":"4"},{"name":"G2","midi":43,"time":156.375,"velocity":0.5039370078740157,"duration":0.75,"track":"4"}],"157.5":[{"name":"C5","midi":72,"time":157.5,"velocity":0.5039370078740157,"duration":1.125,"track":"3"}],"158.625":[{"name":"G4","midi":67,"time":158.625,"velocity":0.5039370078740157,"duration":3.375,"track":"3"},{"name":"D4","midi":62,"time":158.625,"velocity":0.5039370078740157,"duration":0.375,"track":"3"},{"name":"B3","midi":59,"time":158.625,"velocity":0.5039370078740157,"duration":0.375,"track":"4"},{"name":"G3","midi":55,"time":158.625,"velocity":0.5039370078740157,"duration":0.75,"track":"4"}],"159.375":[{"name":"E4","midi":64,"time":159.375,"velocity":0.5039370078740157,"duration":0.375,"track":"3"},{"name":"C4","midi":60,"time":159.375,"velocity":0.5039370078740157,"duration":0.375,"track":"4"},{"name":"G3","midi":55,"time":159.375,"velocity":0.5039370078740157,"duration":1.125,"track":"4"}],"159.75":[{"name":"F4","midi":65,"time":159.75,"velocity":0.5039370078740157,"duration":0.375,"track":"3"},{"name":"D4","midi":62,"time":159.75,"velocity":0.5039370078740157,"duration":0.75,"track":"4"},{"name":"G3","midi":55,"time":159.75,"velocity":0.5039370078740157,"duration":1.125,"track":"4"}],"160.5":[{"name":"E4","midi":64,"time":160.5,"velocity":0.5039370078740157,"duration":0.375,"track":"3"},{"name":"C4","midi":60,"time":160.5,"velocity":0.5039370078740157,"duration":0.375,"track":"4"},{"name":"G3","midi":55,"time":160.5,"velocity":0.5039370078740157,"duration":1.5,"track":"4"}],"160.875":[{"name":"G4","midi":67,"time":160.875,"velocity":0.5039370078740157,"duration":4.125,"track":"3"},{"name":"D4","midi":62,"time":160.875,"velocity":0.5039370078740157,"duration":1.125,"track":"3"},{"name":"B3","midi":59,"time":160.875,"velocity":0.5039370078740157,"duration":1.125,"track":"4"},{"name":"G3","midi":55,"time":160.875,"velocity":0.5039370078740157,"duration":20.25,"track":"4"}],"163.125":[{"name":"C5","midi":72,"time":163.125,"velocity":0.5039370078740157,"duration":3.375,"track":"3"},{"name":"E4","midi":64,"time":163.125,"velocity":0.5039370078740157,"duration":0.375,"track":"3"},{"name":"C4","midi":60,"time":163.125,"velocity":0.5039370078740157,"duration":0.375,"track":"4"},{"name":"C3","midi":48,"time":163.125,"velocity":0.5039370078740157,"duration":0.375,"track":"4"}],"163.5":[{"name":"E4","midi":64,"time":163.5,"velocity":0.5039370078740157,"duration":0.375,"track":"3"},{"name":"C4","midi":60,"time":163.5,"velocity":0.5039370078740157,"duration":0.375,"track":"4"},{"name":"C3","midi":48,"time":163.5,"velocity":0.5039370078740157,"duration":0.375,"track":"4"}],"163.875":[{"name":"F4","midi":65,"time":163.875,"velocity":0.5039370078740157,"duration":0.375,"track":"3"},{"name":"D4","midi":62,"time":163.875,"velocity":0.5039370078740157,"duration":0.375,"track":"4"},{"name":"C3","midi":48,"time":163.875,"velocity":0.5039370078740157,"duration":0.375,"track":"4"}],"164.25":[{"name":"G4","midi":67,"time":164.25,"velocity":0.5039370078740157,"duration":4.5,"track":"3"},{"name":"E4","midi":64,"time":164.25,"velocity":0.5039370078740157,"duration":0.75,"track":"4"},{"name":"C3","midi":48,"time":164.25,"velocity":0.5039370078740157,"duration":0.75,"track":"4"}],"165.375":[{"name":"E4","midi":64,"time":165.375,"velocity":0.5039370078740157,"duration":1.125,"track":"3"},{"name":"C4","midi":60,"time":165.375,"velocity":0.5039370078740157,"duration":1.125,"track":"4"},{"name":"C3","midi":48,"time":165.375,"velocity":0.5039370078740157,"duration":1.125,"track":"4"}],"167.625":[{"name":"E5","midi":76,"time":167.625,"velocity":0.5039370078740157,"duration":1.125,"track":"3"},{"name":"G4","midi":67,"time":167.625,"velocity":0.5039370078740157,"duration":4.125,"track":"3"},{"name":"C3","midi":48,"time":167.625,"velocity":0.5039370078740157,"duration":4.5,"track":"4"},{"name":"C2","midi":36,"time":167.625,"velocity":0.5039370078740157,"duration":4.5,"track":"4"}],"168.75":[{"name":"C5","midi":72,"time":168.75,"velocity":0.5039370078740157,"duration":0.375,"track":"3"},{"name":"E4","midi":64,"time":168.75,"velocity":0.5039370078740157,"duration":0.375,"track":"3"}],"169.125":[{"name":"A4","midi":69,"time":169.125,"velocity":0.5039370078740157,"duration":0.375,"track":"3"},{"name":"F4","midi":65,"time":169.125,"velocity":0.5039370078740157,"duration":0.375,"track":"3"}],"169.5":[{"name":"A4","midi":69,"time":169.5,"velocity":0.5039370078740157,"duration":0.375,"track":"3"},{"name":"F4","midi":65,"time":169.5,"velocity":0.5039370078740157,"duration":0.375,"track":"3"}],"169.875":[{"name":"G4","midi":67,"time":169.875,"velocity":0.5039370078740157,"duration":3.375,"track":"3"},{"name":"E4","midi":64,"time":169.875,"velocity":0.5039370078740157,"duration":1.875,"track":"3"}],"172.125":[{"name":"G4","midi":67,"time":172.125,"velocity":0.5039370078740157,"duration":2.25,"track":"3"},{"name":"F4","midi":65,"time":172.125,"velocity":0.5039370078740157,"duration":1.125,"track":"3"},{"name":"B2","midi":47,"time":172.125,"velocity":0.5039370078740157,"duration":3.375,"track":"4"},{"name":"G2","midi":43,"time":172.125,"velocity":0.5039370078740157,"duration":3.375,"track":"4"}],"173.25":[{"name":"A4","midi":69,"time":173.25,"velocity":0.5039370078740157,"duration":0.75,"track":"3"},{"name":"F4","midi":65,"time":173.25,"velocity":0.5039370078740157,"duration":0.75,"track":"3"}],"174.375":[{"name":"D5","midi":74,"time":174.375,"velocity":0.5039370078740157,"duration":1.125,"track":"3"},{"name":"F4","midi":65,"time":174.375,"velocity":0.5039370078740157,"duration":1.125,"track":"3"}],"176.625":[{"name":"E5","midi":76,"time":176.625,"velocity":0.5039370078740157,"duration":1.125,"track":"3"},{"name":"G4","midi":67,"time":176.625,"velocity":0.5039370078740157,"duration":2.25,"track":"3"},{"name":"C4","midi":60,"time":176.625,"velocity":0.5039370078740157,"duration":1.125,"track":"4"},{"name":"C3","midi":48,"time":176.625,"velocity":0.5039370078740157,"duration":1.125,"track":"4"}],"177.75":[{"name":"F5","midi":77,"time":177.75,"velocity":0.5039370078740157,"duration":0.75,"track":"3"},{"name":"A4","midi":69,"time":177.75,"velocity":0.5039370078740157,"duration":0.75,"track":"3"},{"name":"C4","midi":60,"time":177.75,"velocity":0.5039370078740157,"duration":0.75,"track":"4"},{"name":"C3","midi":48,"time":177.75,"velocity":0.5039370078740157,"duration":0.75,"track":"4"}],"178.5":[{"name":"E5","midi":76,"time":178.5,"velocity":0.5039370078740157,"duration":0.375,"track":"3"},{"name":"G4","midi":67,"time":178.5,"velocity":0.5039370078740157,"duration":0,"track":"3"},{"name":"C4","midi":60,"time":178.5,"velocity":0.5039370078740157,"duration":0.375,"track":"4"},{"name":"C3","midi":48,"time":178.5,"velocity":0.5039370078740157,"duration":0.375,"track":"4"}],"178.875":[{"name":"D5","midi":74,"time":178.875,"velocity":0.5039370078740157,"duration":0.375,"track":"3"},{"name":"F4","midi":65,"time":178.875,"velocity":0.5039370078740157,"duration":0.375,"track":"3"},{"name":"A3","midi":57,"time":178.875,"velocity":0.5039370078740157,"duration":6,"track":"4"},{"name":"F3","midi":53,"time":178.875,"velocity":0.5039370078740157,"duration":0.375,"track":"4"}],"179.25":[{"name":"A4","midi":69,"time":179.25,"velocity":0.5039370078740157,"duration":1.5,"track":"3"},{"name":"F4","midi":65,"time":179.25,"velocity":0.5039370078740157,"duration":1.5,"track":"3"},{"name":"C4","midi":60,"time":179.25,"velocity":0.5039370078740157,"duration":1.5,"track":"4"},{"name":"F3","midi":53,"time":179.25,"velocity":0.5039370078740157,"duration":1.5,"track":"4"}],"181.125":[{"name":"B4","midi":71,"time":181.125,"velocity":0.5039370078740157,"duration":1.125,"track":"3"},{"name":"D4","midi":62,"time":181.125,"velocity":0.5039370078740157,"duration":1.125,"track":"3"},{"name":"G3","midi":55,"time":181.125,"velocity":0.5039370078740157,"duration":1.125,"track":"4"},{"name":"G3","midi":55,"time":181.125,"velocity":0.5039370078740157,"duration":1.125,"track":"4"}],"182.25":[{"name":"C5","midi":72,"time":182.25,"velocity":0.5039370078740157,"duration":0.75,"track":"3"},{"name":"E4","midi":64,"time":182.25,"velocity":0.5039370078740157,"duration":0.75,"track":"3"},{"name":"G3","midi":55,"time":182.25,"velocity":0.5039370078740157,"duration":0.75,"track":"4"},{"name":"G3","midi":55,"time":182.25,"velocity":0.5039370078740157,"duration":0.75,"track":"4"}],"183.375":[{"name":"C5","midi":72,"time":183.375,"velocity":0.5039370078740157,"duration":2.25,"track":"3"},{"name":"E4","midi":64,"time":183.375,"velocity":0.5039370078740157,"duration":0.375,"track":"3"},{"name":"C3","midi":48,"time":183.375,"velocity":0.5039370078740157,"duration":2.25,"track":"4"},{"name":"G3","midi":55,"time":183.375,"velocity":0.5039370078740157,"duration":1.125,"track":"4"}],"183.75":[{"name":"D#4","midi":63,"time":183.75,"velocity":0.5039370078740157,"duration":0.375,"track":"3"},{"name":"F#3","midi":54,"time":183.75,"velocity":0.5039370078740157,"duration":0.375,"track":"4"}],"184.125":[{"name":"E4","midi":64,"time":184.125,"velocity":0.5039370078740157,"duration":0.375,"track":"3"},{"name":"G3","midi":55,"time":184.125,"velocity":0.5039370078740157,"duration":1.5,"track":"4"}],"184.5":[{"name":"F4","midi":65,"time":184.5,"velocity":0.5039370078740157,"duration":0.375,"track":"3"},{"name":"A3","midi":57,"time":184.5,"velocity":0.5039370078740157,"duration":0,"track":"4"}],"184.875":[{"name":"F4","midi":65,"time":184.875,"velocity":0.5039370078740157,"duration":0.375,"track":"3"},{"name":"G#3","midi":56,"time":184.875,"velocity":0.5039370078740157,"duration":0.375,"track":"4"}],"185.25":[{"name":"E4","midi":64,"time":185.25,"velocity":0.5039370078740157,"duration":0.375,"track":"3"},{"name":"G3","midi":55,"time":185.25,"velocity":0.5039370078740157,"duration":0,"track":"4"}]}