<?xml version="1.0" standalone="no"?>
<!DOCTYPE svg PUBLIC "-//W3C//DTD SVG 20010904//EN"
 "http://www.w3.org/TR/2001/REC-SVG-20010904/DTD/svg10.dtd">
<svg version="1.0" xmlns="http://www.w3.org/2000/svg"
 width="1063.000000pt" height="1280.000000pt" viewBox="0 0 1063.000000 1280.000000"
 preserveAspectRatio="xMidYMid meet">
<metadata>
Created by potrace 1.15, written by Peter Selinger 2001-2017
</metadata>
<g transform="translate(0.000000,1280.000000) scale(0.100000,-0.100000)"
fill="#000000" stroke="none">
<path d="M9986 12784 l-29 -16 6 -162 c3 -88 17 -399 31 -691 39 -839 41 -876
27 -884 -17 -11 5 -512 23 -526 9 -7 16 -109 25 -390 6 -209 16 -450 21 -535
22 -344 68 -1882 76 -2570 12 -984 -22 -5546 -47 -6253 -8 -236 -7 -302 2
-314 7 -8 63 -48 125 -88 120 -79 154 -113 154 -153 0 -52 20 -5 45 104 31
136 50 277 39 281 -5 2 -8 101 -7 220 1 120 7 891 13 1713 6 822 15 2037 20
2700 9 1083 15 1866 38 5016 l7 931 33 37 c17 20 35 48 38 63 17 65 -30 850
-51 872 -4 3 -93 7 -199 9 l-193 3 -6 127 c-4 70 -7 168 -7 218 0 50 -3 132
-7 183 -6 88 -7 93 -34 107 -36 18 -106 17 -143 -2z m433 -898 c56 -29 67
-102 22 -147 -62 -61 -161 -24 -161 60 0 78 70 122 139 87z m-30 -412 c37 -26
53 -80 59 -194 5 -112 13 -140 39 -140 18 0 18 141 -7 -3070 -20 -2515 -30
-3851 -40 -5235 -13 -1914 -19 -2303 -34 -2308 -21 -8 -109 12 -156 36 l-45
23 1 60 c0 32 8 183 17 334 44 712 69 1797 87 3735 5 583 12 1247 15 1475 6
459 -5 1193 -35 2315 -34 1227 -41 1572 -45 1985 -2 217 -9 436 -15 485 -25
205 -25 203 4 230 24 22 26 30 26 114 0 100 9 130 48 154 34 21 52 21 81 1z"/>
<path d="M1863 12275 c-113 -31 -196 -93 -238 -178 -31 -64 -59 -197 -82 -385
-15 -123 -19 -141 -34 -137 -38 12 -79 -59 -79 -139 1 -57 33 -126 60 -126 18
0 20 -6 20 -64 0 -64 0 -65 -27 -63 -41 3 -68 -50 -68 -135 0 -74 23 -120 64
-126 18 -3 21 -10 21 -58 0 -50 -1 -53 -19 -43 -44 28 -84 -32 -84 -126 0 -96
43 -156 84 -119 18 17 19 15 19 -57 0 -43 14 -148 35 -254 l35 -180 0 -2032 0
-2032 -42 -11 c-259 -66 -584 -210 -724 -321 -79 -63 -189 -180 -237 -252 -56
-84 -114 -214 -139 -309 -18 -69 -22 -112 -22 -253 -1 -244 25 -354 177 -745
l91 -235 -1 -110 c0 -181 -34 -263 -286 -702 -206 -360 -293 -561 -353 -819
-25 -106 -28 -139 -28 -299 -1 -162 2 -192 27 -300 147 -633 453 -1037 995
-1314 338 -172 661 -265 1144 -328 168 -22 681 -25 828 -5 371 51 638 143 803
275 29 23 104 77 167 119 324 215 526 446 640 732 135 337 133 687 -7 1066
-86 235 -414 849 -621 1162 -37 58 -80 134 -95 170 -72 181 -59 362 46 624
120 299 162 498 138 653 -28 180 -134 284 -316 310 -38 6 -132 15 -209 21
-244 19 -435 48 -492 75 -176 85 -274 325 -293 711 l-7 156 -34 29 c-57 46
-158 90 -275 119 l-110 27 -2 39 c-2 21 -16 482 -33 1024 -44 1436 -58 1903
-71 2295 -12 356 -8 552 10 615 11 35 63 98 113 135 24 18 27 29 37 130 17
170 22 205 31 205 4 0 11 -20 14 -44 9 -61 26 -81 60 -72 53 13 92 149 62 219
-13 33 -19 38 -43 35 -21 -2 -34 -14 -52 -46 -37 -68 -46 -43 -32 85 16 148
21 173 36 173 7 0 14 -18 18 -46 6 -59 27 -82 60 -67 64 30 92 223 37 253 -27
15 -54 -1 -74 -45 -19 -40 -46 -47 -46 -12 1 38 37 298 43 304 12 12 27 -10
27 -40 0 -39 24 -77 49 -77 41 0 80 80 81 165 0 96 -53 124 -99 53 -24 -37
-51 -51 -51 -25 0 6 11 77 25 157 26 155 46 242 70 302 10 25 12 45 6 61 -31
80 -267 203 -455 236 -82 15 -230 13 -293 -4z m456 -496 c36 -34 41 -61 29
-154 l-11 -85 -76 0 -77 0 3 63 c7 124 12 145 44 172 37 30 58 32 88 4z m-459
-45 l32 -37 -7 -86 c-4 -47 -9 -89 -12 -93 -2 -5 -37 -8 -78 -8 l-74 0 5 93
c6 104 14 126 52 150 38 23 46 22 82 -19z m370 -361 c0 -21 -3 -75 -7 -120
l-6 -83 -30 0 -30 0 7 77 c3 42 6 96 6 120 0 41 1 43 30 43 28 0 30 -2 30 -37z
m90 24 c0 -19 -20 -177 -26 -204 -3 -17 -12 -23 -29 -23 -24 0 -25 2 -25 74 0
40 3 94 6 120 6 44 8 46 40 46 22 0 34 -5 34 -13z m-564 -84 c-12 -138 -17
-163 -34 -163 -13 0 -14 12 -8 77 3 42 6 96 6 120 0 37 3 43 21 43 20 0 21 -3
15 -77z m104 49 c0 -16 -3 -70 -6 -120 l-7 -92 -45 0 -44 0 6 88 c12 152 12
152 57 152 36 0 39 -2 39 -28z m330 -330 c0 -15 -21 -176 -26 -199 -2 -13 -11
-23 -18 -23 -10 0 -13 10 -10 38 2 20 6 72 10 115 5 67 8 77 25 77 10 0 19 -4
19 -8z m74 -94 c-7 -57 -13 -109 -14 -115 0 -7 -7 -13 -15 -13 -17 0 -19 32
-9 153 6 70 9 77 29 77 l22 0 -13 -102z m-538 64 c-2 -10 -7 -57 -11 -105 -4
-49 -9 -86 -12 -83 -9 9 9 216 19 210 5 -3 7 -13 4 -22z m57 21 c3 -5 8 -56
12 -115 l7 -108 -42 0 c-35 0 -41 3 -36 18 2 9 8 58 11 107 8 98 10 105 30
105 8 0 16 -3 18 -7z m46 -50 c-1 -32 -5 -71 -9 -88 -7 -26 -8 -24 -9 20 -1
28 -4 67 -7 88 -5 30 -4 37 10 37 13 0 16 -11 15 -57z m376 -100 c-4 -35 -11
-63 -17 -63 -7 0 -8 14 -5 38 4 20 10 69 14 107 7 65 8 66 11 25 2 -25 1 -73
-3 -107z m-14 -196 c-1 -4 -1 -56 -1 -117 0 -87 -3 -110 -14 -110 -33 0 -38
26 -26 122 6 51 13 99 16 106 4 14 26 13 25 -1z m34 -62 c-10 -115 -24 -144
-18 -40 5 95 8 115 19 115 3 0 3 -34 -1 -75z m-477 -63 c2 -80 -1 -122 -8
-122 -15 0 -51 62 -46 80 3 8 7 50 11 93 6 65 10 78 23 75 15 -3 17 -21 20
-126z m52 86 c-1 -75 -18 -190 -29 -201 -8 -8 -11 23 -11 116 0 120 1 127 20
127 17 0 20 -7 20 -42z m331 -79 c-8 -51 -9 -52 -10 -14 -1 42 10 97 16 79 2
-6 -1 -35 -6 -65z"/>
<path d="M7948 10918 l-3 -63 -52 -3 -52 -3 -3 -47 -3 -47 -47 -3 c-46 -3 -48
-5 -48 -33 0 -26 -3 -29 -30 -29 l-30 0 0 -70 0 -70 30 0 c28 0 30 -3 30 -35
l0 -35 50 0 50 0 0 -50 c0 -28 5 -50 10 -50 7 0 10 -30 8 -82 -3 -78 -4 -83
-26 -86 -12 -2 -30 -14 -38 -28 -15 -22 -15 -26 0 -48 8 -14 25 -27 36 -31 15
-5 20 -15 20 -41 l0 -34 -90 0 -89 0 -11 38 c-26 99 -141 121 -232 44 -39 -33
-58 -78 -58 -137 0 -53 16 -88 57 -127 84 -80 204 -58 235 43 l11 40 84 -2 83
-2 0 -69 c0 -65 -2 -72 -30 -98 -37 -34 -37 -44 -5 -76 23 -23 26 -33 23 -82
l-3 -57 -77 -3 -77 -3 -10 39 c-27 99 -142 121 -233 44 -39 -33 -58 -78 -58
-137 0 -53 16 -88 57 -127 82 -78 201 -59 233 37 l12 35 73 0 73 0 5 -32 c3
-18 -3 -274 -13 -568 -10 -294 -28 -839 -40 -1210 -12 -371 -26 -685 -31 -697
-6 -16 -17 -23 -35 -23 -50 0 -271 -50 -360 -81 -192 -68 -332 -157 -457 -290
-219 -233 -328 -563 -329 -1004 -1 -145 2 -168 25 -246 14 -47 45 -126 69
-175 36 -75 43 -100 46 -164 l4 -75 -66 -99 c-73 -109 -80 -139 -42 -183 24
-27 28 -28 148 -34 157 -7 174 -15 228 -112 70 -126 73 -147 67 -442 -6 -360
-19 -423 -140 -676 -56 -118 -111 -189 -174 -226 -47 -27 -51 -28 -203 -28
l-154 0 -13 -25 c-7 -14 -13 -42 -13 -63 0 -34 7 -45 51 -88 l52 -50 -6 -54
c-3 -30 -27 -114 -52 -187 -128 -360 -166 -514 -185 -733 -38 -434 88 -806
361 -1071 272 -262 667 -420 1192 -475 l118 -12 13 -32 c52 -124 275 -128 326
-6 10 25 18 31 44 31 62 0 273 20 381 36 576 83 993 344 1179 737 181 384 180
881 -3 1355 -85 220 -111 308 -111 372 0 59 1 60 39 85 58 36 69 87 37 166 -6
14 -28 16 -159 15 -139 -1 -155 1 -194 21 -88 47 -141 123 -232 333 -76 175
-101 337 -101 660 0 182 11 238 72 352 53 99 75 111 213 115 122 5 140 8 165
33 34 34 26 89 -24 184 -25 47 -48 101 -51 120 -10 53 11 153 55 263 71 178
84 251 85 473 0 152 -4 214 -18 280 -71 332 -236 577 -509 757 -192 126 -400
201 -689 248 l-36 5 -7 213 c-43 1355 -65 2252 -56 2255 5 2 10 15 10 28 0 17
8 27 25 34 49 19 42 80 -12 101 -20 8 -23 15 -23 69 l0 60 90 0 c78 0 91 -3
96 -17 26 -90 82 -126 161 -104 118 32 170 156 112 262 -47 83 -165 116 -228
63 -17 -14 -35 -40 -39 -57 l-8 -32 -97 -3 -97 -3 0 76 c0 73 1 75 24 75 29 0
56 24 56 49 0 25 -32 51 -63 51 -24 0 -27 4 -27 35 l0 36 102 -3 102 -3 8 -32
c29 -111 199 -109 264 3 62 106 12 230 -107 266 -78 23 -136 -15 -163 -105 -5
-16 -17 -17 -108 -15 l-103 3 -3 83 c-2 68 0 82 13 82 11 0 15 12 15 50 l0 50
44 0 c43 0 45 1 48 33 3 28 7 32 36 35 l32 3 0 69 0 69 -32 3 c-29 3 -33 7
-36 36 -3 31 -5 32 -48 32 l-44 0 0 45 0 45 -60 0 -60 0 0 65 0 65 -110 0
-109 0 -3 -62z"/>
</g>
</svg>
