<?xml version="1.0" standalone="no"?>
<!DOCTYPE svg PUBLIC "-//W3C//DTD SVG 20010904//EN"
 "http://www.w3.org/TR/2001/REC-SVG-20010904/DTD/svg10.dtd">
<svg version="1.0" xmlns="http://www.w3.org/2000/svg"
 width="1253.000000pt" height="1280.000000pt" viewBox="0 0 1253.000000 1280.000000"
 preserveAspectRatio="xMidYMid meet">
<metadata>
Created by potrace 1.15, written by Peter Selinger 2001-2017
</metadata>
<g transform="translate(0.000000,1280.000000) scale(0.100000,-0.100000)"
fill="#000000" stroke="none">
<path d="M1538 12790 c-140 -22 -251 -64 -294 -112 -12 -12 -38 -57 -57 -99
-23 -46 -59 -100 -97 -141 -33 -36 -60 -73 -60 -82 0 -9 20 -65 44 -124 53
-129 70 -219 64 -338 -5 -107 -27 -157 -71 -162 -32 -4 -108 29 -195 86 -77
50 -124 66 -165 58 -69 -14 -171 -126 -182 -200 -14 -89 46 -211 140 -286 34
-27 46 -31 83 -27 40 4 42 3 42 -21 0 -14 -12 -41 -27 -61 -26 -33 -28 -43
-28 -121 1 -66 6 -96 23 -135 63 -137 158 -165 353 -104 174 56 206 31 254
-196 27 -128 51 -162 162 -235 57 -38 87 -82 102 -151 6 -25 22 -154 36 -285
14 -131 32 -291 40 -354 39 -307 70 -760 62 -920 -8 -172 -42 -248 -135 -294
-18 -9 -81 -28 -142 -41 -60 -14 -142 -37 -182 -51 -340 -122 -696 -414 -848
-696 -34 -63 -113 -258 -181 -445 -42 -115 -24 -277 87 -778 101 -455 114
-530 120 -665 5 -100 3 -123 -15 -174 -14 -39 -21 -83 -21 -130 0 -130 65
-218 180 -246 85 -20 128 -82 197 -287 45 -135 53 -256 29 -443 -23 -175 -43
-254 -69 -278 -12 -11 -53 -28 -92 -37 -129 -30 -178 -72 -250 -215 -51 -102
-115 -174 -205 -233 -83 -54 -88 -67 -69 -204 8 -60 14 -173 13 -253 0 -142
-1 -148 -41 -270 -49 -150 -85 -305 -114 -500 -32 -214 -33 -542 -1 -690 93
-429 345 -798 772 -1131 355 -278 684 -432 1160 -543 107 -25 312 -74 455
-108 224 -54 272 -63 345 -61 150 2 731 75 947 119 171 34 209 32 271 -11 56
-38 91 -50 125 -41 42 10 90 70 138 173 32 69 55 103 69 108 11 4 60 3 108 0
162 -13 190 21 347 419 102 259 163 399 293 671 129 271 140 313 106 393 -12
28 -16 66 -15 155 2 142 -22 296 -86 552 -123 499 -215 744 -350 932 -84 117
-144 181 -336 356 -268 243 -371 370 -472 578 -57 118 -70 205 -62 409 7 171
64 501 91 529 13 13 37 16 115 16 84 0 102 3 120 19 32 29 101 173 101 211 0
21 -18 60 -52 116 -119 195 -123 204 -123 304 0 50 11 176 24 280 20 152 25
236 25 420 0 356 -39 571 -139 770 -72 145 -157 256 -303 396 -233 224 -462
357 -779 455 -117 36 -122 38 -127 68 -3 17 -69 405 -146 863 -159 942 -206
1198 -255 1398 -51 212 -65 236 -144 254 -67 15 -82 58 -36 101 37 35 135 39
239 11 42 -12 86 -21 99 -21 60 1 178 86 204 147 20 50 16 121 -11 178 -13 28
-54 86 -91 130 -74 89 -101 131 -160 249 -52 105 -73 120 -179 124 -99 5 -169
-11 -164 -36 4 -18 41 -22 91 -9 50 14 28 -11 -30 -33 -58 -22 -137 -39 -273
-61 -59 -9 -80 -17 -102 -39 -48 -49 -36 -70 24 -45 15 6 17 3 12 -23 -7 -34
5 -59 53 -118 25 -31 33 -51 33 -80 0 -21 14 -86 30 -144 30 -103 60 -233 60
-257 0 -7 -4 -13 -10 -13 -16 0 -50 76 -61 135 -14 75 -58 182 -177 428 -125
258 -126 262 -78 219 39 -34 76 -48 102 -38 12 5 15 15 11 40 -6 40 19 101 58
136 44 41 65 94 80 208 15 117 32 167 65 197 29 26 60 88 60 119 0 47 -21 76
-64 87 -23 6 -52 13 -66 17 -14 4 -34 24 -46 46 -32 56 -118 151 -170 187 -52
35 -118 44 -216 29z m181 -123 c43 -40 53 -67 24 -67 -25 1 -47 19 -72 60 -43
71 -24 74 48 7z m-139 -40 c47 -60 73 -138 74 -227 1 -70 -2 -85 -15 -88 -21
-4 -36 35 -44 113 -9 85 -24 143 -51 197 -13 26 -24 50 -24 53 0 10 38 -20 60
-48z m-160 -134 c13 -59 5 -223 -10 -223 -9 0 -14 22 -30 133 -20 138 14 215
40 90z m-90 -77 c15 -19 9 -61 -9 -61 -19 0 -55 50 -47 64 10 16 41 14 56 -3z
m-109 -55 c27 -28 38 -51 22 -51 -12 0 -103 62 -103 71 0 21 53 7 81 -20z
m545 -147 c18 -44 18 -106 -1 -152 -16 -38 -52 -82 -67 -82 -12 0 -9 57 7 130
8 36 14 81 15 101 0 60 22 62 46 3z m-496 -611 c23 -29 22 -46 -4 -51 -23 -5
-46 16 -46 43 0 42 20 46 50 8z m307 -103 c18 -36 35 -78 39 -95 7 -29 7 -30
-13 -12 -22 19 -68 107 -79 151 -13 51 19 25 53 -44z m-438 -92 c72 -26 126
-70 137 -112 14 -56 -52 -59 -119 -5 -32 26 -45 30 -85 27 -43 -3 -47 -1 -44
19 4 26 -23 43 -68 43 -38 0 -73 17 -64 31 21 35 139 33 243 -3z m1052 -14
c10 -9 19 -23 19 -30 0 -20 -44 -45 -81 -46 -54 -2 -92 67 -51 92 23 14 89 5
113 -16z m-481 -299 c16 -62 32 -137 36 -165 6 -47 5 -52 -12 -48 -24 4 -69
96 -89 181 -19 85 -30 210 -20 234 11 28 51 -65 85 -202z m-189 166 c32 -33
38 -54 12 -44 -29 11 -93 55 -93 64 0 21 53 7 81 -20z m60 -367 c20 -18 16
-38 -14 -71 -31 -34 -47 -30 -40 11 4 28 1 36 -16 45 -11 7 -21 16 -21 21 0
16 72 11 91 -6z m234 -2523 c17 -7 14 -9 -15 -14 -187 -35 -508 -33 -374 2 21
5 53 12 69 14 54 7 300 6 320 -2z m-525 -91 c0 -12 -10 -16 -62 -25 -29 -4
-42 -13 -53 -35 -16 -31 -59 -57 -133 -80 -27 -8 -55 -27 -72 -49 -23 -27 -39
-36 -72 -40 -41 -6 -43 -8 -49 -45 -5 -30 -18 -51 -52 -83 -25 -24 -51 -43
-58 -43 -18 0 -2 59 28 102 74 108 390 308 485 308 21 0 38 -5 38 -10z m188
-190 c44 -27 42 -44 -4 -37 -35 6 -74 31 -74 49 0 15 44 8 78 -12z m-221 -106
c69 -39 79 -49 64 -68 -14 -17 13 -56 40 -56 10 0 36 15 56 34 44 40 41 47
-48 103 -57 34 -78 59 -41 47 95 -32 162 -64 194 -95 34 -32 38 -41 38 -87 0
-50 1 -52 36 -67 30 -12 34 -17 25 -34 -34 -63 9 -154 84 -178 l30 -10 -25
-13 c-14 -8 -77 -30 -140 -51 -90 -29 -110 -38 -90 -43 14 -3 67 -15 119 -26
51 -11 103 -26 114 -32 19 -10 17 -12 -24 -32 -83 -40 -58 -72 71 -91 l75 -11
-46 -21 c-61 -27 -91 -88 -91 -182 1 -74 22 -114 65 -119 35 -4 34 -13 -3 -40
-45 -34 -42 -79 8 -123 21 -19 53 -42 71 -51 35 -19 33 -38 -3 -38 -30 0 -44
-17 -51 -66 -8 -47 9 -178 32 -251 l17 -53 -32 -33 c-18 -18 -32 -43 -32 -54
0 -28 36 -53 77 -53 35 0 42 -10 19 -29 -22 -19 -36 -93 -36 -199 0 -120 9
-137 69 -134 30 2 43 -1 48 -13 9 -24 -14 -91 -42 -121 -32 -34 -41 -113 -28
-236 12 -109 27 -147 63 -165 33 -17 146 -16 305 2 72 8 136 15 144 15 11 0
13 -19 8 -102 -6 -122 -12 -142 -40 -134 -11 3 -45 -4 -76 -14 -30 -11 -61
-20 -67 -20 -6 0 -39 18 -73 41 -33 22 -74 44 -90 49 -45 13 -94 -5 -133 -48
-70 -77 -107 -189 -139 -417 -31 -224 -46 -247 -135 -216 -56 19 -204 107
-204 122 0 13 54 11 130 -5 36 -8 67 -12 69 -11 2 2 -47 29 -109 60 -62 31
-111 58 -109 60 2 1 38 -3 79 -10 210 -38 226 5 43 118 -46 27 -83 51 -83 52
0 1 47 2 104 1 89 -1 107 2 125 18 11 11 21 25 21 32 0 29 -60 77 -155 125
-56 28 -87 47 -70 44 150 -25 255 -27 255 -4 0 16 -61 47 -114 60 -115 27
-204 74 -182 97 5 4 56 7 114 7 90 0 107 2 110 16 2 12 -21 29 -80 59 -109 57
-139 80 -182 143 -34 51 -96 193 -96 222 0 22 32 18 71 -8 25 -16 37 -34 44
-64 12 -50 28 -68 51 -59 13 5 16 16 12 62 -7 77 -31 100 -131 119 -108 21
-158 58 -123 93 12 13 27 13 115 0 56 -8 101 -13 101 -12 0 1 -38 21 -85 43
-96 47 -120 74 -81 92 18 8 41 8 88 0 87 -15 131 -14 126 2 -10 30 -73 45
-209 51 -135 5 -196 17 -184 35 3 6 38 13 77 17 l72 7 -27 23 c-33 28 -105 40
-163 27 -52 -12 -55 -5 -14 25 37 28 38 40 4 44 -26 3 -54 31 -43 42 11 12
115 26 193 27 89 1 128 9 133 26 5 13 -49 33 -88 33 -56 0 -63 11 -24 37 19
13 35 27 35 32 0 34 -97 61 -220 61 -43 0 -81 4 -84 8 -3 5 29 17 70 27 108
27 109 37 4 75 -30 12 -62 23 -70 26 -25 10 18 23 81 23 31 1 71 4 88 7 30 6
31 8 15 25 -28 31 -109 52 -168 45 -57 -8 -101 5 -111 33 -18 45 89 51 217 11
55 -17 65 -18 77 -5 13 13 12 17 -3 34 -29 32 -175 71 -268 71 -21 0 -38 4
-38 8 0 5 69 16 153 27 83 10 158 21 164 24 7 4 -56 24 -140 45 -186 48 -211
57 -127 49 92 -9 277 -9 286 0 16 15 -26 39 -92 53 -71 14 -234 87 -234 104 0
6 57 7 148 3 116 -5 151 -3 157 7 11 18 -17 37 -167 115 -70 37 -135 73 -145
81 -16 12 -15 13 14 14 17 0 84 -13 148 -30 136 -35 155 -37 155 -12 0 25 -42
47 -134 70 -102 27 -111 36 -66 73 39 33 36 38 -32 63 -76 28 -108 90 -78 147
12 22 32 24 95 7 52 -14 55 -21 20 -44 -38 -25 -31 -50 22 -84 101 -64 233
-91 241 -48 2 12 -11 21 -48 33 -68 23 -110 59 -110 95 0 38 -44 80 -123 120
-53 26 -57 30 -27 25 91 -15 177 -17 185 -6 11 19 -24 50 -69 61 -61 15 -108
39 -101 50 7 12 18 10 184 -36 157 -43 255 -46 191 -6 -11 7 -64 30 -117 51
-147 59 -217 91 -210 97 3 3 56 -9 117 -26 62 -17 115 -28 118 -25 3 3 -24 36
-61 73 -37 38 -65 71 -61 74 9 9 79 -18 151 -58z m1754 56 c19 -6 46 -21 59
-36 23 -23 24 -27 9 -52 -25 -46 -127 -100 -163 -86 -6 2 -18 30 -25 62 -7 31
-15 67 -18 79 -4 17 1 25 18 32 32 13 76 13 120 1z m-1143 -17 c2 -9 -10 -13
-42 -13 -43 0 -63 10 -49 24 12 11 86 2 91 -11z m1733 -112 c60 -59 64 -81 11
-51 -44 25 -102 76 -102 91 0 25 47 5 91 -40z m-474 -96 c38 -39 155 -98 298
-150 115 -41 122 -45 104 -55 -20 -11 -139 6 -266 36 -123 29 -265 44 -247 25
16 -17 104 -46 307 -100 210 -56 336 -102 375 -137 l27 -23 -24 -1 c-13 0 -86
20 -161 45 -181 59 -292 74 -380 51 -133 -34 -107 -54 94 -71 203 -18 442 -81
508 -134 60 -49 -41 -40 -177 17 -79 32 -173 57 -182 48 -16 -16 57 -65 218
-146 261 -132 266 -153 17 -70 -165 55 -188 59 -188 32 0 -24 52 -52 170 -92
122 -42 209 -88 223 -117 18 -39 -2 -43 -83 -17 -196 63 -501 85 -517 38 -7
-21 52 -35 182 -44 236 -17 445 -88 445 -151 0 -31 -40 -31 -160 0 -137 36
-205 43 -205 22 0 -17 64 -51 165 -86 94 -33 175 -81 189 -112 17 -37 -5 -38
-97 -4 -101 37 -186 55 -219 46 -21 -5 -23 -8 -11 -22 17 -21 125 -71 247
-114 52 -18 90 -34 85 -36 -5 -1 -92 6 -194 16 -102 10 -186 17 -187 17 -1 -1
68 -31 153 -66 169 -69 194 -83 194 -107 0 -13 -10 -15 -57 -10 -32 3 -90 12
-130 21 -74 17 -103 14 -103 -10 0 -17 61 -46 157 -74 72 -20 135 -61 120 -77
-16 -15 -101 -5 -182 21 -83 27 -130 32 -140 17 -10 -17 49 -49 158 -87 218
-75 204 -117 -30 -87 -131 16 -187 12 -162 -11 17 -16 91 -40 174 -57 121 -23
203 -65 177 -91 -7 -7 -34 -5 -92 6 -45 10 -85 15 -88 11 -10 -10 104 -91 151
-107 33 -12 47 -24 47 -45 0 -18 -56 -16 -116 2 -118 36 -241 42 -215 11 10
-12 56 -31 256 -103 39 -14 80 -32 93 -40 58 -36 -31 -44 -149 -14 -111 28
-160 34 -193 21 -27 -10 -28 -12 -14 -26 9 -9 58 -27 109 -40 99 -26 143 -48
136 -67 -6 -18 -75 -26 -142 -16 -81 12 -175 11 -175 -1 0 -15 37 -32 150 -67
74 -22 96 -33 75 -34 -16 -1 -79 -5 -140 -8 l-110 -7 55 -24 c120 -53 195 -95
198 -114 4 -17 0 -18 -39 -12 -24 3 -77 9 -116 13 -63 5 -73 4 -79 -11 -10
-27 16 -45 79 -56 66 -10 93 -23 107 -50 15 -27 -4 -34 -61 -21 -68 16 -119
14 -126 -5 -9 -24 19 -41 80 -49 67 -9 109 -31 105 -53 -3 -14 -16 -17 -83
-16 -119 1 -167 33 -199 132 -25 74 -106 471 -106 516 0 23 7 52 16 65 32 45
2 310 -91 801 -54 289 -62 345 -75 535 -13 195 -18 222 -45 270 -22 38 -95
366 -95 427 0 34 48 77 112 99 29 10 55 18 57 19 2 0 19 -16 38 -35z m-2403
-11 c11 -29 -52 -114 -85 -114 -14 0 -11 28 7 63 32 63 65 85 78 51z m2586 -3
c77 -22 180 -69 180 -82 0 -12 3 -12 -71 12 -74 24 -189 75 -189 83 0 9 10 7
80 -13z m444 -50 c35 -19 32 -37 -7 -34 -31 1 -67 28 -67 50 0 17 28 11 74
-16z m-84 -68 c23 -29 22 -46 -4 -51 -23 -5 -46 16 -46 43 0 42 20 46 50 8z
m-1896 -29 c27 -10 7 -24 -34 -24 -37 0 -56 10 -43 24 8 8 56 8 77 0z m-1124
-85 c0 -24 -16 -32 -40 -19 -20 10 -28 58 -13 73 10 10 53 -34 53 -54z m3234
18 c49 -52 11 -45 -77 14 -5 4 -6 12 -2 18 10 18 46 3 79 -32z m-1784 -218 c0
-4 -5 -20 -11 -36 -9 -25 -11 -26 -21 -10 -5 11 -7 35 -3 55 6 35 8 36 21 17
8 -10 14 -22 14 -26z m-1435 -17 c0 -15 -55 -53 -67 -46 -10 6 -11 48 -1 58
12 12 68 2 68 -12z m299 -158 c34 -13 13 -24 -44 -24 -81 0 -80 25 2 29 14 0
33 -2 42 -5z m-330 -56 c21 -30 20 -58 -2 -58 -26 0 -42 20 -42 52 0 34 22 37
44 6z m3440 -163 c8 -39 -1 -102 -15 -111 -5 -3 -9 29 -9 70 0 79 13 101 24
41z m-124 -32 c0 -28 -10 -53 -21 -53 -10 0 -12 83 -2 93 9 10 23 -13 23 -40z
m-3263 -104 c16 -30 17 -76 1 -85 -15 -10 -58 41 -58 70 0 25 19 48 35 43 5
-2 16 -14 22 -28z m3388 -92 c4 -12 1 -36 -6 -52 l-11 -30 -10 28 c-11 30 -3
77 12 77 5 0 12 -10 15 -23z m-3005 -402 c0 -18 -35 -41 -75 -50 l-30 -7 37
36 c39 38 68 46 68 21z m1169 -141 c22 -28 18 -54 -8 -54 -25 0 -41 20 -41 52
0 36 22 37 49 2z m1796 -334 c0 -54 -23 -65 -50 -24 -23 35 -7 77 28 72 19 -3
22 -9 22 -48z m66 -141 c48 -34 99 -108 99 -144 0 -69 -81 -125 -190 -132
l-65 -3 67 18 c67 18 112 49 123 82 8 24 -9 63 -50 117 -54 71 -45 106 16 62z
m-3212 -71 c44 -21 175 -137 155 -138 -6 0 -31 16 -55 35 -40 31 -134 65 -180
65 -9 0 -27 8 -39 18 -21 17 -22 19 -5 36 21 20 56 15 124 -16z m2215 -28 c17
-44 63 -223 96 -378 20 -95 21 -104 6 -127 -20 -31 -67 -34 -95 -6 -30 30 -42
89 -41 203 1 57 -4 136 -9 176 -6 40 -9 84 -6 98 3 13 7 35 10 49 8 36 20 31
39 -15z m-1861 -291 c27 -12 50 -45 42 -59 -19 -31 -105 20 -92 54 7 19 18 20
50 5z m1733 -32 c33 -35 54 -90 54 -139 0 -43 -41 -68 -112 -68 -69 0 -115 20
-128 56 -12 30 -13 144 -2 160 16 24 49 34 101 31 47 -3 59 -9 87 -40z m-313
0 c17 -11 27 -35 41 -96 25 -109 20 -114 -90 -109 -71 3 -86 6 -108 27 -19 18
-26 35 -26 60 1 48 34 119 62 131 30 13 93 6 121 -13z m-1373 -101 c15 -19 9
-61 -9 -61 -19 0 -55 50 -47 64 10 16 41 14 56 -3z m720 -182 c6 -14 10 -36
10 -50 0 -36 35 -49 99 -35 98 21 95 29 41 -131 -60 -179 -74 -256 -68 -388 9
-213 67 -273 287 -300 46 -5 95 -17 107 -25 32 -20 40 -57 70 -310 l26 -219
-30 -27 c-16 -15 -56 -37 -88 -49 -80 -29 -138 -64 -158 -95 -20 -31 -73 -65
-101 -65 -58 0 -135 -41 -135 -70 0 -6 11 -15 25 -20 24 -9 32 -27 37 -84 5
-45 45 -68 166 -92 l107 -22 -61 -1 c-88 -1 -166 -18 -188 -41 -19 -19 -19
-19 10 -31 21 -8 53 -8 121 0 129 15 139 15 122 -5 -20 -25 -94 -53 -155 -60
-29 -4 -51 -10 -49 -15 3 -4 36 -18 73 -30 l67 -23 -63 -11 c-76 -14 -96 -30
-67 -52 15 -11 35 -13 74 -9 30 2 50 1 45 -3 -5 -4 -26 -19 -46 -35 -25 -17
-38 -35 -38 -50 0 -12 20 -58 45 -102 25 -43 43 -86 40 -95 -3 -9 4 -54 15
-100 24 -101 25 -138 5 -145 -22 -9 -19 -50 10 -140 26 -83 33 -181 15 -215
-6 -11 -30 -24 -58 -31 l-46 -12 42 -14 c60 -20 72 -48 79 -192 l6 -118 -240
1 c-212 2 -243 0 -259 -15 -35 -31 -70 -33 -98 -4 -32 31 -32 40 -1 64 34 27
32 32 -12 32 -44 0 -52 -5 -75 -42 -19 -29 -68 -45 -93 -31 -14 8 -13 13 6 37
27 34 106 86 130 86 27 0 52 29 39 45 -16 19 -126 42 -281 60 -150 16 -389 61
-403 75 -13 13 1 39 28 51 21 10 45 5 148 -29 136 -45 218 -61 218 -43 0 17
-68 47 -238 105 -184 63 -262 95 -262 108 0 12 54 4 160 -22 89 -23 158 -29
162 -15 5 16 -81 51 -252 104 -88 27 -172 56 -185 65 -30 20 -32 45 -4 80 24
31 18 46 -19 46 -32 0 -72 25 -72 46 0 43 134 -17 163 -73 18 -35 70 -64 161
-92 156 -48 185 -3 34 52 -37 13 -93 40 -124 58 -57 34 -190 156 -181 165 3 3
28 -6 56 -20 60 -31 94 -34 89 -9 -3 16 -30 39 -154 129 -21 16 -26 25 -18 33
16 17 91 -9 173 -63 39 -25 88 -53 109 -62 52 -22 141 -34 182 -26 34 8 34 8
-45 35 -126 44 -203 78 -221 98 -16 18 -16 19 2 19 11 0 34 -4 52 -9 17 -5 32
-7 32 -3 0 4 -39 46 -87 94 -48 49 -81 88 -72 88 8 0 62 -16 119 -35 57 -19
105 -33 107 -32 1 2 -27 28 -63 57 -72 59 -146 100 -177 100 -43 0 -78 63 -43
76 8 3 75 -26 149 -65 74 -39 144 -71 157 -71 24 0 24 0 -6 31 -16 17 -58 51
-94 74 -64 41 -120 91 -120 105 0 4 7 13 15 20 19 16 60 6 157 -36 82 -36 142
-45 132 -19 -3 8 -37 36 -76 62 -38 26 -65 49 -60 51 5 1 41 -9 80 -23 83 -30
105 -25 128 32 17 39 9 57 -29 69 -12 4 -80 40 -150 81 -70 41 -148 81 -172
90 -68 23 -101 92 -37 77 15 -4 90 -35 167 -70 145 -66 205 -85 205 -66 0 16
-70 61 -185 121 -55 28 -110 60 -123 71 -28 23 -25 54 4 58 12 2 121 -48 248
-112 227 -116 282 -138 240 -95 -12 11 -70 51 -130 88 -125 79 -157 115 -148
170 l6 36 -24 -29 c-33 -39 -71 -37 -150 6 -89 49 -94 64 -43 134 15 21 14 24
-22 57 -20 20 -34 39 -31 42 12 13 52 -8 98 -51 50 -46 98 -76 112 -68 12 8
-15 52 -71 119 -28 32 -51 62 -51 66 0 4 26 -2 58 -14 52 -18 62 -19 90 -8 57
24 55 79 -3 155 -19 26 -35 48 -35 51 0 3 18 -4 40 -15 73 -37 143 -61 152
-52 5 5 -7 23 -29 42 -70 61 -82 116 -37 169 32 38 57 39 87 5 12 -15 36 -33
54 -40 35 -15 133 -19 133 -6 0 5 -38 32 -84 61 -91 55 -104 67 -88 83 6 6 36
-1 87 -21 53 -22 82 -28 93 -22 14 8 12 13 -15 38 -17 16 -61 42 -97 57 -70
30 -79 40 -45 49 18 5 21 11 15 38 l-6 32 45 -5 c53 -6 144 -49 191 -90 70
-61 105 -252 84 -460 -18 -186 -50 -281 -110 -332 -58 -48 -125 -24 -148 53
-13 42 -53 81 -83 81 -33 0 -69 -23 -75 -47 -10 -38 2 -99 25 -132 47 -65 210
-88 304 -42 71 34 127 115 160 231 38 132 48 242 57 640 13 559 18 619 61 674
26 33 47 33 59 0z m557 -25 l28 -11 -24 -9 c-42 -16 -109 8 -68 24 20 9 34 8
64 -4z m616 -1 c26 -13 46 -38 47 -56 0 -16 -67 17 -94 47 -19 21 -19 21 3 21
12 0 32 -5 44 -12z m-1550 -94 c49 -32 50 -59 2 -51 -34 6 -155 82 -155 97 0
14 114 -21 153 -46z m1952 -50 c39 -36 22 -51 -38 -35 -24 7 -54 11 -67 9
l-22 -3 21 -27 c15 -19 37 -30 76 -38 30 -6 62 -19 71 -28 15 -14 15 -17 -2
-29 -10 -7 -35 -13 -56 -13 -111 0 -183 93 -127 164 29 37 104 37 144 0z
m-882 -60 c62 -11 41 -24 -38 -24 -41 0 -75 4 -75 9 0 8 13 12 65 19 6 1 27
-1 48 -4z m696 -169 c6 -24 18 -137 26 -250 14 -198 15 -209 48 -283 19 -42
53 -135 76 -207 62 -195 146 -357 232 -449 50 -53 89 -85 132 -106 87 -43 125
-47 160 -20 42 33 70 96 64 142 -3 24 -1 38 6 38 6 0 54 -13 107 -29 52 -16
140 -43 195 -60 55 -16 109 -37 120 -46 19 -15 17 -16 -30 -10 -27 4 -95 18
-150 32 -129 32 -219 42 -213 22 6 -21 120 -74 227 -105 107 -31 231 -82 231
-95 0 -17 -69 -8 -211 27 -143 37 -276 50 -281 29 -5 -19 312 -118 436 -136
78 -11 96 -21 96 -55 0 -32 -12 -31 -176 16 -207 60 -302 66 -206 13 20 -11
102 -44 182 -73 186 -67 240 -95 240 -127 0 -33 -19 -31 -203 31 -219 73 -259
78 -242 33 10 -24 73 -53 244 -112 163 -56 234 -86 245 -104 3 -5 3 -17 0 -26
-9 -23 -33 -18 -302 70 -124 41 -228 73 -230 70 -24 -23 76 -78 273 -150 221
-80 325 -139 325 -182 0 -23 -42 -13 -240 55 -145 50 -257 81 -381 106 -9 2
-23 0 -30 -5 -19 -11 77 -53 271 -119 272 -93 398 -147 408 -177 10 -31 -126
3 -493 126 -148 50 -280 91 -292 91 -42 0 -24 -29 35 -59 32 -16 141 -58 242
-94 338 -119 540 -212 540 -248 0 -30 -109 2 -429 126 -292 113 -451 154 -451
115 0 -18 49 -42 160 -76 295 -92 771 -295 690 -294 -21 1 -159 42 -265 80
-318 114 -519 170 -538 151 -13 -13 87 -58 283 -129 91 -33 183 -69 205 -81
l40 -22 -45 5 c-25 3 -112 26 -195 51 -158 48 -275 69 -260 46 4 -7 51 -34
104 -59 55 -27 96 -53 96 -61 0 -39 -176 -66 -310 -48 -102 14 -131 -39 -37
-66 36 -9 47 -17 47 -32 0 -30 -55 -30 -169 0 -95 24 -196 33 -196 17 0 -4 38
-20 84 -35 86 -28 136 -58 136 -82 0 -24 -49 -72 -90 -89 -29 -12 -56 -14 -95
-10 -46 6 -56 4 -61 -10 -10 -26 16 -46 75 -55 68 -11 82 -24 54 -53 -19 -18
-34 -21 -115 -22 -86 -1 -93 -3 -93 -21 0 -14 15 -28 48 -45 29 -15 46 -31 45
-40 -7 -33 -225 -118 -258 -100 -26 14 -40 70 -40 155 1 91 14 145 40 165 l21
16 -32 39 c-42 53 -53 84 -40 112 12 25 42 30 85 13 39 -15 32 -1 -34 62 -33
31 -60 62 -60 68 0 14 44 30 84 30 18 0 36 3 39 6 3 4 -17 27 -45 53 -95 85
-99 147 -8 135 62 -8 75 9 33 45 -16 14 -44 34 -62 43 -40 22 -50 47 -25 65
14 10 38 12 101 7 74 -6 83 -5 89 11 10 26 -26 51 -91 65 -30 6 -57 16 -60 21
-4 5 17 33 44 62 28 30 51 60 51 68 0 8 -21 25 -48 39 -85 45 -66 89 43 98 36
2 65 8 65 11 0 4 -23 24 -50 45 -87 66 -87 69 -21 334 66 263 68 292 21 346
-42 47 -56 124 -70 371 -14 234 -18 755 -6 803 10 41 21 34 35 -23z m216 -5
c8 -13 -71 -52 -97 -48 -28 4 -33 22 -13 42 18 18 100 23 110 6z m-2615 -115
c0 -44 -27 -111 -79 -200 -43 -73 -44 -71 -12 62 34 139 91 226 91 138z m1747
19 c3 -9 -2 -57 -11 -108 -23 -131 -22 -140 18 -164 27 -16 36 -30 45 -68 28
-121 41 -568 18 -614 -10 -21 -21 -25 -62 -28 -28 -1 -61 4 -75 11 -29 15 -32
26 -55 252 -9 88 -23 191 -31 229 -15 72 -9 96 23 96 18 0 15 16 -22 120 -21
57 -26 87 -23 130 5 68 32 126 67 145 36 20 100 19 108 -1z m884 -24 c17 -10
19 -18 13 -73 -6 -60 -5 -63 25 -91 37 -35 41 -66 9 -66 -29 0 -120 95 -134
141 -13 43 -3 76 28 89 31 12 36 12 59 0z m-418 -249 c20 -22 41 -59 48 -83
15 -53 14 -396 -2 -518 -12 -93 -22 -120 -44 -120 -8 0 -18 8 -23 18 -20 37
-35 173 -35 312 0 165 15 255 44 270 25 14 24 24 -11 98 -16 34 -25 62 -21 62
5 0 25 -18 44 -39z m-180 -90 c23 -68 44 -198 57 -341 22 -252 14 -280 -76
-280 -31 0 -64 5 -74 10 -26 14 -40 70 -40 165 0 44 -5 153 -11 243 -12 169
-7 212 25 212 8 0 24 -17 37 -37 l23 -38 10 63 c5 38 13 61 20 59 6 -2 19 -27
29 -56z m738 29 l24 -20 -24 -20 c-15 -13 -38 -20 -66 -20 -28 0 -51 7 -66 20
l-24 20 24 20 c15 13 38 20 66 20 28 0 51 -7 66 -20z m-3082 -97 c-82 -95 -99
-108 -99 -79 0 16 96 106 113 106 6 0 0 -12 -14 -27z m3094 -27 c50 -18 82
-47 65 -58 -32 -20 -176 0 -199 28 -6 8 -9 21 -5 29 7 19 86 20 139 1z m83
-131 c28 -8 58 -23 68 -34 16 -18 15 -19 -25 -25 -23 -4 -50 -11 -60 -17 -46
-24 0 -69 71 -69 61 0 142 -25 165 -50 13 -15 16 -29 11 -59 -7 -44 9 -61 57
-61 79 0 347 -93 347 -121 0 -16 -91 -6 -229 26 -128 29 -245 33 -279 9 -19
-13 -22 -24 -22 -85 0 -53 -4 -71 -15 -76 -24 -9 -51 22 -74 87 -13 34 -31 65
-43 71 -39 21 -188 378 -174 416 5 13 19 15 79 10 39 -4 95 -13 123 -22z
m-3282 -27 c30 -52 41 -94 27 -102 -14 -9 -36 28 -55 92 -18 63 -6 67 28 10z
m579 19 c44 -19 63 -42 41 -51 -22 -9 -88 25 -92 47 -4 21 8 21 51 4z m-888
-321 c35 -75 58 -163 45 -171 -17 -10 -55 62 -81 154 -36 124 -17 133 36 17z
m654 -52 c27 -35 27 -54 -2 -54 -29 0 -47 18 -47 45 0 42 20 46 49 9z m-393
-186 c-8 -39 -53 -118 -68 -118 -16 0 -2 57 28 107 30 51 49 57 40 11z m-256
-133 c0 -41 -9 -67 -21 -59 -10 6 -12 64 -3 88 10 25 24 8 24 -29z m2054 25
c7 -7 -6 -10 -42 -10 -49 0 -62 7 -44 24 9 10 72 0 86 -14z m-1499 -177 c39
-9 73 -21 77 -27 13 -19 9 -54 -8 -60 -20 -8 -96 33 -149 81 -35 30 -37 34
-15 29 14 -4 57 -14 95 -23z m-425 -93 c0 -22 -55 -89 -65 -78 -4 3 2 27 14
52 20 47 51 63 51 26z m370 -14 c19 -23 8 -61 -18 -64 -44 -7 -67 32 -36 62
19 20 38 20 54 2z m-590 -103 c0 -43 -28 -224 -45 -300 -22 -96 -35 -133 -47
-133 -20 0 16 258 54 388 21 74 38 93 38 45z m660 -85 c22 -36 15 -51 -21 -46
-24 3 -36 34 -25 64 9 23 25 16 46 -18z m-135 -163 c27 -26 31 -40 14 -50 -18
-12 -58 4 -75 30 -31 47 18 63 61 20z m213 1 c27 -14 54 -32 61 -40 22 -27
-27 -20 -83 12 -87 48 -67 73 22 28z m-140 -182 c2 -25 -3 -37 -28 -58 -36
-29 -126 -59 -167 -54 -26 3 -24 5 27 32 94 49 112 65 105 93 -5 22 -3 24 27
21 29 -3 33 -7 36 -34z m-324 -30 c20 -8 20 -52 1 -78 -7 -10 -18 -15 -24 -11
-12 7 -15 54 -5 79 7 18 7 18 28 10z m-357 -137 c7 -117 -40 -217 -59 -127 -8
39 6 161 23 192 17 32 33 6 36 -65z m403 -74 c23 -29 22 -46 -4 -51 -23 -5
-46 16 -46 43 0 42 20 46 50 8z m-126 -114 c10 -25 16 -59 14 -75 l-3 -29 -20
29 c-19 29 -46 134 -38 149 7 12 27 -20 47 -74z m2120 -9 c7 -7 -6 -10 -42
-10 -49 0 -62 7 -44 24 9 10 72 0 86 -14z m-1620 -26 c39 -15 -1 -74 -49 -74
-12 0 -32 12 -46 26 -24 25 -24 26 -5 40 20 14 72 19 100 8z m-604 -47 c0 -2
-7 -25 -16 -51 -9 -26 -14 -49 -11 -52 3 -3 19 2 36 11 39 20 42 3 6 -40 l-25
-30 -25 28 c-31 34 -32 75 -4 111 17 22 39 35 39 23z m761 -93 c18 -22 0 -47
-43 -58 -72 -18 -124 19 -79 56 29 23 103 25 122 2z m-581 -23 c28 -40 74
-164 58 -159 -37 13 -115 188 -83 188 2 0 13 -13 25 -29z m-339 -28 c11 -27
37 -91 56 -143 36 -96 117 -267 169 -357 16 -26 80 -121 142 -211 63 -89 112
-167 110 -173 -5 -16 -170 182 -247 296 -125 186 -251 461 -267 585 -9 65 10
67 37 3z m4853 -56 c29 -72 29 -73 -9 -73 -36 0 -65 -18 -167 -104 l-53 -45
38 53 c20 28 54 76 74 105 76 108 94 118 117 64z m-4026 -9 c17 -17 15 -68 -2
-68 -20 0 -56 48 -49 66 6 17 35 18 51 2z m-257 -38 c25 -14 25 -56 -1 -70
-45 -24 -86 44 -42 69 21 13 20 13 43 1z m464 -28 c51 -27 62 -50 22 -43 -30
4 -90 36 -106 55 -22 27 27 20 84 -12z m-553 -97 c20 -23 24 -69 6 -63 -15 5
-42 51 -53 88 -7 23 -7 24 11 10 10 -8 27 -23 36 -35z m955 34 c26 -10 27 -12
8 -19 -28 -12 -57 -12 -75 0 -13 9 -13 11 0 20 19 13 33 12 67 -1z m-247 -56
c23 -29 22 -46 -4 -51 -23 -5 -46 16 -46 43 0 42 20 46 50 8z m3576 -46 c-14
-29 -37 -64 -52 -78 l-26 -24 7 25 c18 61 86 163 93 141 2 -6 -8 -36 -22 -64z
m-4089 31 c34 -20 51 -54 35 -70 -18 -18 -66 23 -106 91 -11 17 26 7 71 -21z
m353 23 c0 -5 -12 -11 -27 -13 -42 -5 -94 3 -87 13 7 12 114 12 114 0z m345
-41 c18 -15 20 -60 3 -60 -24 1 -109 60 -102 71 8 14 79 6 99 -11z m-759 -116
c30 -25 54 -52 54 -60 0 -23 -14 -16 -51 24 -88 94 -89 110 -3 36z m531 35
l28 -12 -30 -8 c-30 -9 -75 -2 -75 10 0 23 33 27 77 10z m181 -45 c29 -20 27
-61 -2 -56 -24 4 -96 52 -96 63 0 15 74 10 98 -7z m184 -9 c8 -19 8 -28 -2
-40 -18 -21 -57 -19 -70 4 -13 25 -13 27 6 45 23 24 53 20 66 -9z m366 7 c4
-13 -84 -59 -94 -50 -9 10 5 28 40 49 33 20 47 20 54 1z m293 8 c57 -16 84
-52 83 -113 0 -60 -28 -144 -60 -184 -31 -39 -39 -24 -25 48 16 78 8 87 -80
97 l-64 8 73 24 c39 13 72 27 72 30 0 4 -39 10 -87 14 -92 7 -138 22 -138 46
0 33 145 52 226 30z m-1319 -27 c36 -35 37 -63 2 -63 -38 0 -84 36 -84 66 0
34 45 33 82 -3z m3752 -63 c-33 -60 -118 -156 -206 -231 l-63 -54 68 80 c59
68 107 140 107 160 0 13 -31 2 -69 -26 -24 -17 -45 -29 -47 -26 -2 2 13 23 34
47 31 35 46 44 77 46 24 2 56 15 80 32 22 16 42 28 43 26 2 -1 -9 -26 -24 -54z
m-2150 44 c27 -10 7 -24 -34 -24 -37 0 -56 10 -43 24 8 8 56 8 77 0z m-1385
-34 c25 -13 33 -37 20 -62 -11 -20 -11 -20 -35 3 -23 22 -31 49 -17 62 8 9 11
9 32 -3z m555 -6 c29 -28 14 -114 -19 -114 -18 0 -45 39 -45 65 0 23 26 65 40
65 5 0 16 -7 24 -16z m-360 -27 c44 -25 51 -41 21 -45 -26 -3 -85 33 -85 53 0
21 18 19 64 -8z m-466 -93 c-2 -8 -7 -16 -12 -17 -13 -3 -44 44 -51 78 l-7 30
37 -38 c20 -21 35 -45 33 -53z m670 69 c6 -11 6 -28 1 -42 l-9 -24 -25 23
c-33 31 -33 60 0 60 13 0 28 -8 33 -17z m1891 -18 c31 -16 50 -63 30 -75 -22
-14 -188 45 -172 61 8 8 73 26 101 28 7 1 26 -6 41 -14z m-2321 -69 c8 -9 -48
-18 -73 -12 -29 7 -33 23 -7 28 17 4 70 -7 80 -16z m752 9 c18 -21 -31 -67
-68 -63 -34 4 -44 45 -16 65 24 17 69 17 84 -2z m-826 -119 c110 -81 149 -116
125 -116 -20 0 -52 23 -144 103 -44 39 -84 74 -89 79 -6 4 -6 8 -2 8 5 0 54
-33 110 -74z m2334 35 c18 -11 -7 -21 -53 -21 -18 0 -41 3 -50 6 -26 10 3 24
50 24 22 0 46 -4 53 -9z m916 -128 c-46 -53 -70 -71 -81 -59 -4 4 19 32 51 62
33 30 62 52 64 49 3 -3 -13 -26 -34 -52z m-2900 -8 c25 -38 21 -57 -11 -53
-29 3 -41 32 -29 64 8 21 22 17 40 -11z m-394 -20 c-24 -64 -120 -185 -147
-185 -19 0 -9 31 29 92 60 95 144 161 118 93z m110 -64 c0 -11 -9 -40 -20 -66
-26 -61 -26 -77 2 -73 13 2 33 19 47 41 40 61 61 55 362 -116 139 -78 277
-143 406 -192 121 -45 146 -81 108 -155 -21 -40 -44 -44 -161 -25 -128 20
-195 40 -239 69 -20 14 -59 29 -87 36 -67 14 -208 81 -361 171 -140 83 -193
122 -202 149 -8 25 26 89 73 140 42 43 72 52 72 21z m610 -54 c0 -29 -18 -47
-46 -47 -36 0 -40 21 -10 47 35 29 56 30 56 0z m1300 -22 c26 -32 -13 -81 -47
-59 -35 22 -23 74 17 74 10 0 23 -7 30 -15z m348 5 c13 0 20 -4 17 -10 -8 -13
-235 -13 -235 -1 0 12 77 20 145 15 28 -2 60 -4 73 -4z m-776 -131 c44 -23 48
-49 8 -60 -81 -23 -195 4 -195 46 0 48 105 56 187 14z m517 -69 c0 -30 -4 -64
-8 -75 -13 -31 -25 64 -16 123 6 37 9 43 16 27 4 -11 8 -45 8 -75z m-303 69
c10 -16 -27 -162 -45 -176 -25 -21 -150 -16 -188 7 -48 29 -43 50 12 50 65 0
93 16 105 61 6 21 17 45 26 54 18 17 80 20 90 4z m645 -19 c9 -14 20 -37 23
-51 8 -37 -13 -43 -72 -21 -38 14 -48 23 -50 43 -7 57 64 78 99 29z m-1654
-22 c21 -17 0 -31 -35 -23 -34 7 -67 39 -57 54 6 11 65 -8 92 -31z m1098 31
c9 -14 -4 -79 -15 -79 -6 0 -10 20 -10 45 0 43 11 58 25 34z m125 -15 c23 -60
3 -164 -31 -164 -41 0 -54 100 -19 158 24 39 37 41 50 6z m224 -14 c6 -21 32
-56 63 -87 29 -29 53 -55 53 -58 0 -3 -22 -5 -49 -5 -75 0 -131 56 -131 133 0
64 47 77 64 17z m-846 -166 c37 -10 25 -24 -23 -24 -42 0 -54 7 -38 23 8 9 31
9 61 1z m969 -45 c25 -9 26 -11 10 -21 -11 -5 -35 -7 -55 -3 -35 6 -36 8 -17
21 23 17 26 17 62 3z m-1192 -45 c-29 -71 -96 -147 -113 -130 -8 9 46 110 78
144 37 41 55 34 35 -14z m107 -47 c-1 -31 0 -57 2 -57 3 0 17 5 31 12 32 15
56 -2 36 -26 -18 -22 -66 -29 -106 -16 -29 10 -35 16 -35 39 0 34 19 93 34
103 6 5 18 7 26 5 12 -2 14 -16 12 -60z m998 -62 c0 -16 -60 -88 -67 -81 -8 8
15 68 33 88 18 19 34 16 34 -7z m-456 -14 c16 -6 27 -13 25 -15 -2 -3 -39 -9
-82 -15 -78 -11 -142 -36 -166 -65 -20 -24 -31 -19 -31 12 0 31 38 74 80 91
31 13 134 8 174 -8z m46 -107 c39 -33 36 -61 -8 -91 -70 -47 -219 -54 -246
-11 -15 24 24 63 99 99 75 36 114 37 155 3z m1183 -51 c15 -7 27 -21 27 -30 0
-12 -7 -14 -32 -9 -36 7 -68 32 -68 53 0 16 24 11 73 -14z"/>
<path d="M1405 7780 c-10 -17 22 -59 50 -66 43 -11 73 34 43 64 -15 15 -84 16
-93 2z"/>
<path d="M1303 7683 c-14 -35 72 -80 164 -86 36 -2 38 0 38 27 0 34 -7 38 -97
60 -83 20 -97 20 -105 -1z"/>
<path d="M1150 7652 c-14 -11 -19 -23 -15 -35 13 -33 99 -36 119 -4 9 15 7 22
-13 38 -29 24 -62 24 -91 1z"/>
<path d="M1323 7563 c-4 -10 3 -24 21 -40 33 -28 62 -30 76 -4 13 25 13 27 -6
45 -21 22 -83 21 -91 -1z"/>
<path d="M1260 7376 c0 -32 63 -56 104 -40 24 9 19 22 -14 39 -38 19 -90 20
-90 1z"/>
<path d="M1285 7175 c45 -37 85 -52 96 -34 17 29 -14 54 -72 57 l-54 2 30 -25z"/>
<path d="M1442 5419 c6 -18 86 -58 131 -66 47 -7 61 18 28 50 -16 17 -36 22
-92 25 -57 4 -71 2 -67 -9z"/>
<path d="M3190 7237 c-61 -31 -22 -70 72 -71 69 -1 101 20 73 47 -15 16 -76
37 -105 37 -8 0 -26 -6 -40 -13z"/>
<path d="M3303 6764 c-10 -27 31 -57 79 -58 37 -1 43 2 46 21 6 41 -110 76
-125 37z"/>
<path d="M3327 6536 c-9 -23 26 -46 71 -46 53 0 61 15 20 40 -38 23 -83 26
-91 6z"/>
<path d="M3343 6343 c-7 -19 38 -63 66 -63 20 0 41 19 41 36 0 39 -93 63 -107
27z"/>
<path d="M3336 6134 c-19 -18 -19 -20 -6 -45 13 -23 52 -25 70 -4 10 12 10 21
2 40 -13 29 -43 33 -66 9z"/>
<path d="M3344 5932 c-32 -21 -18 -72 20 -72 35 0 52 25 38 55 -11 25 -36 32
-58 17z"/>
<path d="M3460 5921 c0 -13 40 -24 71 -19 42 5 26 23 -23 26 -29 2 -48 -1 -48
-7z"/>
<path d="M3318 5638 c-37 -13 -44 -39 -18 -60 12 -10 32 -18 45 -18 32 0 68
31 60 52 -9 23 -54 37 -87 26z"/>
<path d="M1310 4122 c0 -23 84 -72 125 -72 29 0 31 7 10 37 -22 31 -135 60
-135 35z"/>
<path d="M2144 3427 c-36 -32 -27 -57 20 -57 43 0 93 38 83 63 -10 26 -70 22
-103 -6z"/>
<path d="M1453 3153 c-7 -2 -13 -10 -13 -16 0 -18 50 -68 61 -62 17 11 10 64
-10 75 -11 5 -21 10 -23 9 -2 0 -9 -3 -15 -6z"/>
<path d="M1402 2938 c-24 -24 -14 -56 21 -67 65 -22 92 18 41 58 -30 24 -45
26 -62 9z"/>
<path d="M1317 2769 c-38 -22 -2 -65 58 -70 49 -3 85 0 85 9 0 9 -60 45 -101
60 -16 6 -31 7 -42 1z"/>
<path d="M1290 2565 c69 -18 126 -32 128 -30 1 1 0 10 -4 19 -13 33 -59 46
-156 45 l-93 -1 125 -33z"/>
<path d="M1055 2323 c-68 -16 -19 -47 105 -68 52 -8 114 -15 138 -15 35 0 42
3 42 20 0 26 -28 40 -119 56 -77 13 -129 16 -166 7z"/>
<path d="M1402 2298 c5 -14 96 -67 115 -68 7 0 25 11 40 25 27 24 28 25 9 40
-26 20 -170 22 -164 3z"/>
<path d="M1712 2238 c-31 -31 -7 -48 66 -48 70 0 83 13 41 39 -38 23 -89 27
-107 9z"/>
<path d="M1415 2156 c-5 -2 -22 -7 -37 -10 -16 -4 -28 -13 -28 -21 0 -12 21
-15 124 -15 69 0 127 4 130 9 9 14 -46 32 -114 37 -36 2 -69 2 -75 0z"/>
<path d="M1818 2053 c-51 -8 -29 -23 32 -23 33 0 60 4 60 10 0 6 -9 10 -19 10
-11 0 -25 2 -33 3 -7 2 -25 2 -40 0z"/>
<path d="M2128 2053 c-48 -13 10 -41 58 -29 16 4 23 11 18 16 -12 12 -55 19
-76 13z"/>
<path d="M1393 1993 c-8 -21 27 -50 75 -62 62 -16 238 -34 266 -27 31 8 35 40
7 56 -11 5 -70 14 -133 20 -62 5 -129 14 -148 20 -48 14 -60 13 -67 -7z"/>
<path d="M1994 1916 c-24 -18 -17 -25 34 -37 67 -15 216 19 181 42 -24 15
-193 11 -215 -5z"/>
<path d="M1650 1791 c0 -14 269 -53 340 -49 75 4 89 25 30 45 -41 14 -370 18
-370 4z"/>
<path d="M2033 1640 c-153 -17 -109 -37 88 -39 174 -1 258 12 204 33 -28 10
-219 15 -292 6z"/>
<path d="M4023 3112 c-48 -5 -59 -25 -27 -51 48 -37 124 -40 159 -5 15 15 15
19 1 32 -16 17 -84 29 -133 24z"/>
<path d="M4144 2976 c-8 -20 26 -68 45 -64 9 2 17 13 19 24 6 39 -51 74 -64
40z"/>
<path d="M3848 2883 c-24 -6 -23 -30 3 -43 26 -15 158 -25 194 -16 40 10 21
23 -69 46 -79 20 -96 22 -128 13z"/>
<path d="M3794 2675 c-15 -39 26 -70 117 -89 65 -14 89 -8 89 19 0 51 -189
115 -206 70z"/>
<path d="M3762 2428 c13 -40 145 -85 171 -59 17 17 -3 44 -44 58 -47 16 -132
17 -127 1z"/>
<path d="M3740 2180 c-35 -6 -35 -7 -10 -17 14 -6 47 -21 73 -32 27 -12 53
-21 58 -21 13 0 11 48 -3 56 -20 13 -82 20 -118 14z"/>
<path d="M3920 2093 c0 -18 99 -64 151 -70 66 -8 64 11 -5 46 -48 25 -146 41
-146 24z"/>
<path d="M8925 12783 c-89 -19 -175 -53 -234 -94 -44 -30 -207 -225 -244 -291
-29 -52 -19 -118 34 -223 l44 -89 0 -116 c0 -98 -4 -122 -23 -165 -13 -27 -30
-57 -39 -67 -31 -34 -115 -18 -187 37 -46 35 -90 46 -137 36 -33 -8 -39 -6
-39 8 0 9 5 22 12 29 6 6 8 15 4 19 -11 12 -109 -44 -147 -83 -34 -35 -34 -35
-34 -132 0 -85 3 -103 26 -147 53 -100 153 -150 336 -165 64 -5 118 -11 121
-14 9 -10 -45 -25 -128 -36 -167 -23 -192 -45 -173 -152 23 -134 99 -242 179
-254 90 -13 97 17 22 93 -28 29 -49 55 -45 59 13 13 55 -7 102 -48 48 -43 49
-43 124 -43 42 1 102 2 134 4 34 2 63 -1 69 -7 6 -6 14 -53 18 -104 9 -120 27
-155 141 -274 114 -121 139 -170 173 -349 25 -133 62 -444 101 -870 53 -570
17 -809 -131 -880 -20 -9 -77 -23 -128 -32 -337 -54 -697 -291 -949 -625 -111
-149 -164 -268 -201 -450 -28 -143 -36 -166 -65 -192 -17 -15 -21 -31 -21 -75
0 -124 130 -752 208 -1006 24 -79 23 -440 -2 -520 -21 -69 -17 -124 14 -185
34 -66 67 -90 125 -90 62 0 86 -16 129 -84 101 -158 155 -427 137 -674 -5 -65
-17 -144 -26 -176 -22 -75 -75 -132 -130 -140 -90 -15 -118 -28 -169 -79 -63
-64 -125 -165 -106 -177 32 -20 -67 -113 -181 -171 -42 -21 -79 -45 -83 -54
-24 -63 27 -262 78 -304 21 -18 20 -6 -4 65 -32 92 -51 174 -44 185 10 17 61
-39 85 -95 43 -100 36 -424 -11 -489 -37 -50 -120 -418 -120 -532 0 -52 18
-72 50 -55 32 17 37 4 10 -25 -14 -15 -35 -25 -51 -25 -24 0 -29 -5 -36 -37
-4 -21 -8 -137 -8 -258 0 -219 0 -220 27 -275 18 -37 30 -84 37 -140 20 -178
88 -311 321 -630 71 -96 114 -170 104 -179 -9 -9 -105 94 -196 209 -94 120
-154 190 -163 190 -11 0 25 -71 66 -132 55 -82 301 -328 454 -454 431 -357
690 -464 1581 -658 138 -31 271 -62 295 -70 24 -9 67 -16 95 -16 61 0 765 99
993 140 107 20 197 30 260 30 133 0 154 24 81 91 -27 25 -40 45 -40 63 0 14 2
26 5 26 2 0 24 -21 49 -46 36 -36 50 -44 67 -39 12 4 75 42 140 85 65 43 140
85 167 94 57 19 67 29 102 100 21 42 30 51 53 52 51 2 117 89 117 154 0 42
-24 35 -28 -8 -2 -18 -6 -32 -10 -32 -4 0 -20 14 -35 32 l-29 33 6 -35 c2 -19
8 -50 12 -67 6 -30 4 -33 -18 -33 -32 0 -68 27 -68 51 0 25 32 89 56 111 11 9
31 21 46 27 24 9 27 14 22 40 -7 31 -5 32 63 46 45 9 87 63 119 154 69 196
120 312 175 395 85 128 94 164 93 376 -1 175 -20 334 -47 389 -11 23 -19 26
-72 29 -73 4 -95 21 -95 74 0 45 9 48 31 9 29 -51 90 -44 118 13 12 26 11 40
-4 110 -20 94 -87 320 -185 626 -121 373 -147 501 -119 563 17 38 -5 69 -168
229 -378 371 -660 613 -691 594 -16 -10 -44 32 -59 86 -7 29 -18 111 -23 182
-6 70 -15 136 -20 146 -6 12 -24 20 -48 22 -30 2 -38 7 -40 26 -3 17 3 25 27
33 60 21 140 194 145 313 2 56 4 62 29 74 16 8 72 18 125 23 66 6 105 15 122
27 57 41 99 188 69 243 -7 13 -36 53 -64 89 -29 36 -58 75 -64 88 -27 51 -29
127 -10 382 33 447 23 861 -25 1047 -51 197 -181 409 -358 584 -171 169 -345
282 -614 398 -190 83 -300 136 -308 150 -11 18 -39 169 -172 931 -198 1136
-202 1163 -250 1355 -39 155 -61 196 -127 233 -56 31 -87 71 -87 110 0 28 35
32 246 32 196 -1 248 8 309 54 64 49 73 166 18 254 -36 58 -69 82 -129 93 -27
5 -55 16 -63 23 -8 9 -17 50 -22 104 -4 49 -15 107 -24 129 -17 44 -78 89
-132 99 -28 5 -37 2 -62 -25 -23 -25 -37 -31 -70 -31 -23 0 -41 3 -41 6 0 4
17 22 38 40 23 21 31 33 22 34 -16 0 -50 -21 -198 -123 -46 -31 -94 -57 -107
-57 -15 0 -40 18 -74 56 -79 86 -81 132 -7 184 55 40 83 95 97 196 20 142 34
179 108 281 30 41 36 77 16 97 -23 23 -65 20 -129 -8 -30 -13 -56 -22 -59 -20
-2 2 -2 26 1 53 6 64 -20 116 -101 206 -88 98 -118 107 -252 78z m3 -76 c58
-61 117 -260 110 -367 -6 -78 -42 -170 -60 -152 -7 7 -15 71 -20 154 -14 221
-42 295 -109 281 -28 -5 -31 -4 -26 11 4 10 7 21 7 26 0 14 51 70 64 70 7 0
22 -10 34 -23z m247 -164 c37 -76 44 -178 20 -310 -24 -135 -50 -215 -79 -242
-39 -37 -49 -20 -43 69 6 89 33 159 79 207 l31 32 -26 10 c-29 11 -33 24 -41
121 -5 70 -28 149 -70 245 l-26 60 64 -68 c35 -38 76 -93 91 -124z m-419 22
c39 -42 112 -184 120 -235 5 -30 1 -42 -28 -76 -39 -48 -96 -94 -115 -94 -23
0 -11 44 15 55 30 13 37 44 22 107 -20 84 -24 85 -54 15 -33 -78 -65 -112 -98
-104 -32 8 -80 84 -76 122 3 27 9 32 68 51 81 26 105 54 90 104 -26 92 -2 116
56 55z m124 -55 c0 -34 -9 -60 -21 -60 -10 0 -12 83 -3 93 12 12 24 -4 24 -33z
m-62 -457 c2 -12 -4 -36 -14 -54 l-17 -33 -18 23 c-19 23 -25 71 -12 85 16 15
58 1 61 -21z m-140 -216 c-2 -11 -11 -25 -21 -31 -15 -9 -21 -7 -33 8 -17 24
-18 68 -1 85 10 10 17 7 35 -15 13 -14 22 -36 20 -47z m100 11 c13 -21 14 -30
4 -40 -18 -18 -62 6 -62 35 0 46 31 49 58 5z m345 -77 c55 -52 80 -92 71 -115
-4 -10 2 -19 17 -25 13 -5 32 -17 41 -28 27 -30 60 -112 67 -167 5 -46 9 -51
35 -56 27 -5 29 -8 32 -57 1 -30 26 -122 58 -219 31 -92 56 -170 56 -174 0
-16 -96 21 -117 45 -12 14 -25 46 -29 72 -13 95 -55 200 -200 509 -57 122
-107 237 -111 255 -6 32 -5 33 13 20 10 -8 41 -35 67 -60z m-1056 12 c5 -14
-32 -39 -70 -49 -27 -6 -28 -5 -16 13 14 23 60 54 73 50 6 -2 11 -8 13 -14z
m1493 -68 c0 -28 -27 -46 -58 -38 -28 7 -28 17 0 43 31 28 58 26 58 -5z m233
14 c12 -6 29 -20 36 -31 13 -21 17 -120 6 -139 -9 -13 -25 -1 -25 19 0 14 -20
66 -57 150 -6 15 8 16 40 1z m-1129 -115 c29 -28 12 -64 -29 -64 -28 0 -69 44
-62 64 8 21 71 21 91 0z m1012 -75 c12 -13 14 -23 7 -30 -22 -22 -96 27 -146
95 l-20 29 70 -37 c39 -21 79 -46 89 -57z m-742 22 c57 -63 196 -513 196 -634
0 -70 -57 -74 -84 -6 -9 22 -37 141 -62 265 -25 124 -56 262 -70 306 -13 45
-24 83 -24 85 0 10 30 0 44 -16z m-740 -23 c28 -12 61 -56 51 -66 -12 -13
-109 54 -99 69 7 12 18 11 48 -3z m1610 -54 c40 -36 47 -47 35 -55 -21 -14
-72 -2 -91 22 -24 29 -23 80 1 79 3 -1 28 -21 55 -46z m-1310 -64 c80 -27 131
-56 160 -90 32 -39 32 -45 0 -66 -40 -27 -120 -5 -184 50 -48 41 -104 66 -147
66 -27 0 -54 22 -45 37 23 36 117 37 216 3z m1084 -16 c28 -19 28 -26 -3 -62
-30 -36 -79 -48 -112 -27 -23 15 -30 49 -15 71 23 34 93 44 130 18z m425 -15
c28 -15 37 -28 37 -57 0 -14 9 -27 25 -34 34 -15 32 -26 -15 -69 -45 -41 -49
-54 -19 -62 31 -8 21 -47 -19 -70 -41 -24 -61 -11 -54 33 4 28 -4 39 -83 116
l-88 84 46 0 c57 0 77 8 77 29 0 38 48 53 93 30z m-1092 -109 c19 -11 27 -54
10 -64 -9 -6 -94 45 -105 63 -9 14 68 15 95 1z m649 -101 c0 -45 -14 -57 -41
-33 -24 22 -25 70 -2 83 26 14 43 -5 43 -50z m-741 18 c31 -16 36 -31 16 -51
-21 -20 -84 -21 -113 0 -24 17 -29 49 -9 57 23 10 82 7 106 -6z m-104 -154 c5
-17 2 -23 -9 -23 -19 0 -42 34 -52 75 l-6 30 30 -30 c16 -16 33 -40 37 -52z
m234 -25 c34 -54 22 -211 -17 -222 -9 -2 -30 -7 -46 -11 l-28 -6 7 -62 7 -62
-26 24 c-32 31 -34 76 -5 133 12 23 27 79 35 126 18 112 39 135 73 80z m267
-1183 c8 -20 -5 -85 -16 -85 -6 0 -10 23 -10 50 0 48 14 67 26 35z m4 -1445
c0 -25 -26 -36 -106 -44 -104 -12 -124 -17 -124 -30 0 -22 -25 -26 -146 -25
-127 1 -171 -9 -227 -54 -21 -17 -75 -49 -120 -71 -78 -39 -82 -43 -82 -74 0
-30 -2 -32 -23 -27 -53 13 -175 -81 -215 -167 -8 -18 -25 -55 -38 -81 -12 -28
-33 -54 -46 -60 -22 -10 -24 -16 -21 -66 3 -51 1 -55 -22 -61 -21 -5 -25 -12
-23 -42 2 -40 -19 -57 -43 -37 -51 42 40 285 159 426 133 156 360 300 563 358
122 34 354 73 442 74 66 1 72 -1 72 -19z m1088 -145 c30 -30 52 -58 48 -62 -8
-9 -115 67 -134 95 -13 20 -13 22 8 22 15 0 44 -21 78 -55z m-924 1 c-1 -21
-6 -42 -13 -49 -8 -8 -11 3 -11 42 0 38 4 51 13 48 7 -2 11 -20 11 -41z m188
-20 c-12 -25 -25 -46 -31 -46 -30 0 -23 58 11 90 33 31 43 9 20 -44z m-411 3
c19 -9 42 -25 50 -35 13 -16 10 -17 -44 -12 -64 5 -105 33 -93 63 7 18 27 15
87 -16z m-286 -43 c37 -16 44 -36 20 -56 -8 -7 -17 -28 -20 -49 -16 -93 -39
-111 -116 -91 -58 16 -149 63 -173 89 -44 48 46 35 174 -27 41 -20 80 -38 85
-41 6 -2 -26 30 -70 73 l-80 77 46 -6 c42 -5 48 -3 63 20 19 29 25 30 71 11z
m1565 -65 c0 -5 -9 -13 -20 -16 -50 -16 10 -116 78 -131 87 -19 135 -38 180
-71 29 -21 52 -41 52 -44 0 -4 -34 4 -75 17 -41 13 -94 27 -118 31 -71 11 -30
-20 76 -57 137 -48 221 -95 275 -154 64 -70 67 -72 98 -36 30 33 58 39 68 14
11 -28 7 -42 -14 -47 -30 -8 -25 -40 19 -115 81 -139 68 -152 -84 -88 -65 28
-129 35 -123 14 3 -7 57 -34 122 -60 136 -54 189 -89 184 -121 -4 -32 -33 -26
-175 38 -123 55 -214 81 -198 55 4 -7 69 -42 144 -77 237 -111 283 -140 274
-173 -3 -11 -9 -20 -14 -20 -5 0 -69 20 -142 43 -149 50 -197 61 -197 47 0
-15 65 -44 175 -80 167 -55 234 -97 221 -138 -9 -29 -28 -33 -90 -20 -31 7
-59 8 -63 4 -13 -12 55 -66 83 -66 29 0 74 -41 74 -68 0 -10 -6 -27 -14 -37
-13 -18 -15 -18 -87 2 -92 27 -198 47 -205 40 -3 -2 16 -13 43 -22 214 -79
275 -120 258 -175 -9 -27 -45 -26 -133 5 -142 50 -134 26 18 -50 60 -30 112
-60 116 -66 4 -8 -8 -25 -32 -45 -38 -32 -38 -34 -19 -48 11 -8 36 -19 56 -25
21 -6 48 -20 61 -31 23 -20 23 -20 3 -36 -16 -12 -36 -14 -100 -9 l-80 6 27
-23 c35 -30 52 -73 38 -99 -12 -21 -21 -20 -125 13 -73 24 -181 36 -171 20 3
-6 43 -25 89 -42 171 -64 297 -131 297 -159 0 -17 -54 -12 -190 18 -100 22
-175 27 -184 12 -7 -11 32 -26 116 -46 120 -27 189 -65 167 -92 -6 -7 -26 -13
-43 -14 -17 0 -40 -4 -51 -8 -18 -7 -14 -12 30 -40 27 -17 74 -39 103 -48 31
-10 57 -25 61 -34 3 -10 4 -45 3 -79 -3 -54 -7 -62 -29 -71 -35 -13 -131 -11
-268 6 -66 8 -124 15 -130 14 -41 -3 412 -135 491 -144 136 -15 147 28 54 212
-37 72 -64 141 -71 178 -17 93 4 285 32 285 19 0 30 -55 38 -190 10 -155 18
-176 90 -256 68 -74 86 -145 54 -211 -21 -45 -62 -70 -127 -78 -86 -11 -122
-24 -185 -66 -61 -41 -91 -45 -91 -13 0 13 -7 16 -35 11 -40 -6 -44 2 -15 28
16 14 29 16 73 11 45 -6 56 -4 61 9 25 67 -117 98 -231 50 -35 -15 -37 -17
-18 -27 30 -17 34 -28 28 -79 -5 -43 -4 -47 20 -53 30 -7 44 -41 26 -62 -11
-13 -32 -14 -137 -8 -117 6 -124 6 -120 -12 3 -18 40 -36 101 -49 34 -7 81
-51 72 -66 -4 -6 -36 -8 -91 -3 -55 4 -84 3 -84 -3 0 -21 33 -37 98 -48 l67
-11 0 -76 c0 -65 3 -80 23 -100 29 -32 28 -43 -8 -70 -41 -30 -38 -38 13 -38
51 0 83 -19 74 -44 -8 -20 -66 -46 -102 -46 -14 0 -25 -4 -25 -9 0 -9 109 -57
183 -81 20 -6 37 -13 37 -15 0 -2 -43 -1 -95 2 -68 4 -99 2 -110 -7 -19 -16
-3 -47 27 -52 21 -3 23 -8 23 -70 0 -81 11 -96 81 -106 54 -8 114 -2 186 18
42 12 51 12 80 -2 18 -9 122 -100 230 -202 109 -102 201 -186 204 -186 7 0
-60 81 -128 157 -61 68 -44 61 40 -17 74 -69 152 -162 152 -181 0 -5 -11 -16
-25 -25 -41 -27 -134 -15 -180 22 -72 57 -92 63 -206 64 -75 0 -111 4 -125 14
-18 14 -18 15 7 24 14 6 55 8 92 5 64 -5 67 -5 67 16 0 24 -79 146 -128 199
-36 39 -56 40 -78 7 -17 -26 -34 -33 -34 -13 0 22 -33 48 -60 48 -41 0 -51
-19 -44 -84 6 -53 6 -56 -20 -65 -14 -6 -26 -13 -26 -16 0 -4 37 -24 82 -45
49 -23 77 -41 68 -44 -8 -3 -43 -12 -77 -22 -35 -9 -63 -21 -63 -25 0 -5 1 -9
3 -9 2 0 59 -11 127 -24 133 -26 230 -57 250 -81 19 -23 36 -18 64 18 27 34
34 25 15 -17 -17 -36 -53 -45 -124 -30 -82 18 -186 18 -211 0 -31 -24 -5 -37
89 -47 112 -11 277 -71 277 -100 0 -5 -14 -16 -31 -25 -19 -9 -28 -19 -22 -25
5 -5 65 -21 134 -35 157 -32 213 -63 196 -108 -9 -22 -51 -21 -146 4 -155 39
-342 48 -379 17 -10 -8 -11 -27 -7 -73 11 -99 -24 -96 -101 8 -103 140 -215
440 -254 682 -6 38 -40 166 -76 284 -120 399 -124 428 -73 471 45 38 38 47
-88 124 -55 35 -85 100 -117 257 -46 231 -57 374 -31 420 32 56 16 183 -103
810 -28 146 -67 380 -87 520 -20 140 -42 278 -50 305 -30 107 -106 562 -107
645 -2 97 9 125 55 145 36 16 127 20 127 6z m325 -45 c28 -12 55 -41 55 -60 0
-6 -62 16 -112 39 -64 31 -13 50 57 21z m-1516 -33 c35 -23 13 -34 -60 -31
-51 2 -64 6 -67 21 -7 37 74 43 127 10z m1390 -22 c15 -11 34 -27 41 -36 24
-29 -43 -17 -93 16 -52 34 -61 44 -52 59 7 11 62 -9 104 -39z m-2029 -15 c85
-29 150 -71 150 -97 0 -26 13 -24 65 14 43 30 53 32 138 35 80 3 98 0 137 -20
30 -15 48 -33 55 -52 8 -25 6 -31 -19 -53 -30 -26 -47 -26 -136 -6 -18 3 -9
-6 28 -31 28 -20 52 -42 52 -48 0 -7 -12 -24 -27 -40 -30 -31 -27 -34 51 -41
104 -10 98 -67 -14 -126 l-65 -34 69 6 c94 9 110 -1 101 -61 -4 -26 -14 -60
-22 -76 -14 -27 -17 -28 -64 -23 -28 4 -49 2 -49 -3 0 -6 36 -28 80 -50 44
-22 87 -51 96 -64 14 -23 14 -28 -2 -62 -11 -23 -29 -41 -46 -48 -22 -8 -28
-16 -26 -35 2 -13 11 -29 21 -35 16 -9 27 -2 74 48 39 42 53 53 48 35 -5 -13
-16 -51 -24 -84 -22 -80 -26 -85 -74 -85 l-42 -1 26 -14 c32 -17 31 -16 55
-132 21 -107 15 -123 -47 -123 -21 0 -41 -4 -44 -10 -8 -13 82 -70 111 -70 28
0 40 15 67 86 13 32 29 60 36 62 20 7 9 -122 -14 -171 -20 -43 -30 -45 -127
-20 -53 14 -70 15 -80 5 -20 -20 11 -41 72 -51 59 -9 90 -36 90 -77 0 -32 -25
-44 -67 -32 -19 5 -37 7 -40 5 -3 -3 7 -23 21 -44 32 -46 32 -56 4 -77 -22
-16 -21 -17 28 -11 64 7 76 -5 64 -60 -10 -43 -49 -85 -79 -85 -76 0 -41 -129
69 -253 65 -74 65 -71 17 -140 -10 -14 -9 -19 3 -28 12 -8 8 -15 -25 -44 l-40
-35 43 0 c44 0 108 26 131 54 28 33 29 14 4 -41 -15 -32 -29 -82 -31 -112 l-5
-54 33 6 c28 6 31 5 25 -11 -18 -42 -17 -60 5 -72 32 -17 95 3 150 46 49 39
66 43 49 13 -12 -23 -6 -34 33 -53 12 -6 23 -20 23 -31 0 -18 -7 -20 -55 -20
-47 0 -56 -3 -65 -22 -13 -30 -23 -29 -105 7 -38 17 -73 30 -79 30 -14 0 -14
-26 0 -52 15 -29 6 -31 -25 -7 -24 19 -27 26 -21 58 6 34 4 37 -25 48 -28 11
-29 13 -18 37 16 36 -1 54 -36 38 -70 -32 -30 -164 61 -204 44 -19 58 -20 213
-14 205 9 200 12 200 -107 0 -97 -12 -122 -67 -132 -43 -7 -77 -35 -101 -80
-31 -60 -92 -259 -113 -368 -36 -186 -18 -311 59 -412 31 -41 44 -50 69 -51
18 -1 72 -9 122 -19 99 -21 121 -15 121 32 0 13 4 21 10 18 15 -9 47 -124 66
-232 9 -54 20 -101 23 -105 8 -9 4 142 -9 427 -6 116 -10 227 -10 248 l0 39
103 -4 c133 -4 143 -11 115 -76 -12 -27 -23 -77 -26 -118 -4 -65 -2 -73 21
-98 31 -33 47 -101 48 -204 0 -84 17 -151 18 -75 2 74 23 192 37 204 10 8 23
4 56 -20 45 -33 56 -34 39 -3 -31 59 21 75 62 20 55 -75 71 -168 72 -404 0
-232 -1 -234 -99 -234 -34 0 -66 4 -72 8 -22 14 -34 52 -35 109 0 69 -18 128
-39 128 -12 0 -15 -19 -15 -109 0 -109 0 -109 -28 -126 -36 -22 -121 -34 -146
-20 -11 5 -22 24 -26 42 -8 35 -31 68 -48 68 -6 0 -7 -23 -4 -59 7 -69 2 -76
-63 -86 -69 -11 -119 -37 -190 -100 -36 -31 -81 -65 -100 -75 l-35 -19 66 1
c71 0 109 -13 109 -38 0 -9 -9 -18 -20 -21 -29 -8 -25 -28 14 -70 38 -43 56
-75 56 -98 0 -23 -56 -43 -145 -51 -94 -8 -84 -12 87 -39 65 -10 116 -20 115
-22 -2 -2 -62 -19 -133 -38 -71 -20 -133 -40 -138 -45 -6 -6 38 -7 111 -3 134
7 182 0 164 -21 -15 -18 -80 -34 -171 -42 -79 -8 -74 -16 17 -29 29 -4 55 -10
57 -14 3 -4 -32 -29 -77 -56 -91 -55 -87 -63 23 -46 113 18 122 15 60 -19 -60
-33 -90 -63 -90 -90 0 -14 12 -18 63 -23 34 -3 80 -13 102 -23 l40 -18 -70 -8
c-38 -5 -73 -12 -78 -17 -4 -4 8 -19 28 -32 42 -29 43 -35 9 -43 -36 -10 -22
-21 61 -50 l70 -25 -45 -1 c-25 -1 -65 -5 -90 -9 l-45 -7 58 -29 c31 -16 57
-32 57 -35 0 -4 -24 -7 -52 -9 -29 -1 -55 -4 -58 -7 -2 -3 13 -20 35 -39 l40
-33 -28 -7 c-37 -10 -23 -24 48 -51 l50 -18 -50 -11 c-60 -13 -67 -32 -34 -97
33 -67 67 -98 108 -99 20 0 30 -3 24 -6 -7 -2 -13 -20 -13 -39 0 -40 -6 -41
-83 -15 -52 18 -89 24 -129 22 -30 -2 -20 -18 14 -25 35 -7 115 -55 144 -87
19 -21 19 -21 -17 -14 -56 10 -66 -7 -74 -129 -8 -119 -1 -191 22 -209 79 -63
80 -83 5 -79 -57 4 -72 -10 -72 -68 0 -32 -15 -70 -33 -82 -26 -16 -36 6 -39
80 -3 83 -10 91 -64 78 -22 -6 -24 -11 -24 -64 0 -45 -5 -63 -20 -80 -25 -26
-33 -27 -55 -5 -40 39 17 173 86 202 21 9 39 19 39 22 0 11 -89 19 -203 19
l-110 0 -39 42 c-50 54 -65 46 -95 -48 -27 -82 -60 -117 -107 -112 -26 3 -31
7 -28 28 3 31 32 72 60 85 49 22 15 105 -42 105 -40 0 -49 9 -73 74 -10 27
-22 50 -28 50 -12 1 -54 -61 -62 -92 -7 -30 17 -52 58 -52 15 0 37 -8 49 -18
21 -17 21 -19 4 -32 -27 -23 -211 -21 -247 3 -25 16 -27 22 -21 55 4 20 22 74
40 119 19 45 34 91 34 103 0 30 -31 22 -48 -13 -17 -34 -45 -35 -79 -1 -22 23
-25 31 -19 71 l6 46 -54 -51 c-76 -72 -160 -91 -186 -43 -14 27 19 52 76 59
l47 5 -44 38 -44 38 34 35 34 36 -34 13 c-19 8 -55 21 -80 31 -54 20 -84 48
-75 72 5 14 15 15 56 10 31 -4 50 -3 50 3 0 22 -52 43 -126 52 -43 6 -82 13
-87 16 -9 5 -6 43 9 112 8 36 4 38 -50 15 -18 -7 -19 -3 -13 56 3 36 1 72 -5
83 -5 10 -33 29 -62 42 -28 13 -57 29 -63 36 -6 8 -16 43 -21 79 -12 77 -1
104 48 113 28 6 31 10 28 39 -2 25 2 35 20 44 33 16 35 20 22 44 -10 18 -19
21 -53 18 -41 -3 -42 -3 -45 32 -3 42 45 143 70 148 10 2 44 -13 77 -33 63
-39 76 -39 115 3 24 28 13 42 -35 42 -126 0 -183 100 -127 222 31 66 96 140
143 162 45 22 65 16 229 -70 240 -125 260 -118 46 16 -197 124 -240 188 -102
153 66 -16 83 -13 66 14 -34 54 -137 82 -174 48 -11 -10 -20 -31 -20 -47 0
-15 -5 -28 -11 -28 -15 0 -69 59 -69 76 0 8 17 27 39 42 51 35 81 81 81 120 0
39 -13 40 -62 7 -20 -14 -42 -25 -47 -25 -17 0 -13 32 9 68 28 45 81 67 132
54 21 -5 38 -7 38 -3 0 3 -24 28 -52 56 -47 44 -51 49 -31 53 12 2 56 -13 99
-32 42 -20 79 -36 81 -36 3 0 -12 22 -32 50 -20 27 -34 54 -31 59 8 12 47 1
103 -28 71 -36 71 -23 0 43 -113 105 -228 148 -243 91 -9 -35 -40 -33 -134 10
-43 19 -85 35 -94 35 -26 0 -68 -25 -100 -59 -45 -47 -50 -38 -16 29 46 92 72
98 218 49 99 -33 117 -31 124 14 2 17 10 22 32 22 36 1 65 34 147 167 60 98
98 138 129 138 9 0 33 -18 53 -40 19 -22 43 -40 52 -40 23 0 32 33 49 189 17
149 24 174 56 191 16 9 18 15 9 37 -15 40 1 46 69 29 78 -21 86 -20 37 6 -86
44 -125 99 -125 177 0 42 4 53 26 70 15 12 37 21 50 21 40 0 27 14 -41 48 -36
17 -65 38 -65 46 0 7 17 22 37 31 38 19 75 15 150 -16 36 -15 58 -4 48 23 -10
25 -55 39 -151 46 l-89 7 -6 40 c-10 72 -61 141 -95 128 -10 -4 -13 9 -12 54
1 96 -59 228 -170 375 -73 97 -125 193 -127 239 -3 50 -44 111 -88 133 -20 9
-57 19 -84 22 -133 16 -137 55 -8 71 69 8 70 8 73 40 4 36 -32 234 -53 293
-15 44 -10 55 41 87 18 11 17 12 -7 12 -31 1 -52 24 -69 74 -17 54 -71 75
-115 43 -17 -12 -18 -26 -16 -142 2 -128 2 -128 -18 -110 -24 22 -47 89 -57
166 -8 68 -19 99 -45 127 -23 24 -22 61 2 76 12 8 26 6 50 -5 57 -27 108 -37
279 -53 91 -9 182 -20 204 -26 43 -12 49 -9 40 15 -9 22 -91 43 -202 51 -110
7 -147 18 -138 41 9 22 -11 44 -40 44 -48 0 -31 19 36 39 70 22 92 41 45 41
-14 0 -34 9 -45 20 -25 25 -14 52 31 79 32 20 31 24 -12 35 -30 7 -46 35 -27
48 17 10 63 10 111 -1 20 -5 37 -5 37 -1 0 5 -39 34 -87 65 -49 31 -77 54 -63
51 14 -3 51 -9 84 -13 48 -5 58 -4 54 8 -6 21 -66 48 -134 60 -69 13 -94 24
-94 43 0 15 50 36 86 36 34 0 29 12 -14 35 -20 11 -36 25 -35 30 5 20 105 17
175 -6 92 -29 101 -42 47 -70 -40 -20 -42 -22 -24 -35 20 -15 73 -18 91 -6 6
4 17 17 23 30 19 36 -4 61 -105 112 -67 34 -89 50 -89 65 0 31 44 30 152 -5
53 -17 98 -28 100 -26 3 2 2 14 -2 25 -8 27 -47 46 -110 56 -59 8 -85 20 -85
40 0 20 33 28 114 27 71 -1 71 -1 34 13 -52 19 -88 45 -88 63 0 13 13 14 88 8
l87 -7 -34 29 c-24 20 -32 34 -28 45 9 24 52 21 137 -7z m1016 -6 l27 -11 -23
-24 c-41 -43 -86 -26 -56 20 19 29 17 28 52 15z m1312 -54 c35 -18 69 -56 74
-81 2 -15 -8 -25 -42 -42 -60 -30 -94 -29 -114 2 -9 13 -16 27 -16 31 0 7 63
0 95 -11 11 -4 -6 17 -38 47 -32 29 -57 56 -57 61 0 12 70 8 98 -7z m-1512
-51 c8 -20 -5 -85 -16 -85 -6 0 -10 23 -10 50 0 48 14 67 26 35z m250 -81 c-3
-9 -6 -20 -6 -24 0 -31 -119 -124 -137 -107 -5 6 103 134 119 140 24 10 30 7
24 -9z m1454 -49 c24 -25 21 -55 -4 -55 -19 0 -76 48 -76 65 0 31 47 25 80
-10z m-1674 -26 c14 -23 -34 -124 -52 -107 -11 12 -7 87 5 102 16 19 37 21 47
5z m1802 -145 c12 -14 22 -30 22 -35 0 -33 -83 -6 -95 31 -15 47 31 49 73 4z
m-3244 -100 c28 -11 38 -41 20 -58 -28 -29 -114 -14 -114 19 0 34 51 55 94 39z
m3306 -8 c15 -19 9 -61 -9 -61 -19 0 -55 50 -47 64 10 16 41 14 56 -3z m-1831
-59 c25 -75 39 -278 22 -322 -8 -19 -8 -19 -19 1 -17 33 -52 216 -52 276 0 77
30 104 49 45z m-194 -84 c-7 -49 -20 -62 -34 -34 -17 31 -13 73 11 111 l23 35
3 -35 c2 -19 1 -54 -3 -77z m1953 35 c4 -20 -26 -50 -46 -46 -8 2 -21 13 -29
25 -13 19 -12 24 7 43 19 19 24 20 43 7 12 -8 23 -21 25 -29z m-3218 -19 c0
-5 -11 -27 -25 -47 -32 -47 -31 -58 5 -77 38 -20 38 -25 -1 -25 -67 0 -115 94
-72 142 18 20 93 26 93 7z m3372 -47 c20 -34 10 -57 -22 -47 -24 8 -55 69 -46
92 5 12 9 12 28 -1 13 -8 31 -28 40 -44z m-1401 -163 c-15 -43 -39 -75 -48
-65 -5 4 -8 28 -8 53 0 33 5 48 20 59 16 12 21 12 33 0 11 -11 12 -21 3 -47z
m1443 -14 c-7 -18 -35 -20 -52 -3 -13 13 -16 60 -5 72 12 12 63 -52 57 -69z
m-1694 20 c14 -17 2 -100 -30 -203 l-17 -57 -13 59 c-16 78 -9 169 15 196 22
24 29 25 45 5z m-1710 -15 c8 -14 8 -26 0 -40 -19 -35 -80 -20 -80 20 0 40 61
55 80 20z m3410 -184 c0 -64 -18 -135 -30 -116 -12 19 -23 164 -15 191 l8 23
18 -23 c13 -16 19 -39 19 -75z m-1910 40 c19 -36 2 -55 -35 -38 -25 11 -31 34
-19 66 8 21 35 6 54 -28z m1790 -47 c0 -10 -5 -30 -11 -46 l-12 -28 -8 30 c-5
17 -6 43 -3 58 5 23 8 26 20 16 8 -6 14 -20 14 -30z m139 -195 c21 -26 19 -51
-6 -71 -26 -21 -43 -4 -43 41 0 63 16 73 49 30z m-1895 -36 c3 -13 7 -56 10
-97 3 -41 15 -103 27 -138 17 -48 20 -66 11 -75 -16 -16 -50 15 -73 68 -25 54
-34 167 -20 222 13 46 38 57 45 20z m266 -48 c0 -20 -27 -75 -43 -89 -15 -12
-17 -11 -19 5 -3 36 3 58 19 76 18 20 43 24 43 8z m1616 -106 c8 -41 -1 -116
-17 -145 -32 -61 -55 73 -25 146 19 45 33 44 42 -1z m-3332 -30 c20 -66 28
-81 54 -96 l27 -17 -37 -15 c-76 -32 -98 -17 -98 67 0 91 33 129 54 61z m1734
-35 c1 -8 -7 -29 -18 -47 -15 -24 -27 -32 -43 -30 -30 4 -25 46 9 76 28 24 47
25 52 1z m58 -174 c18 -48 13 -95 -10 -95 -19 0 -36 53 -36 113 0 42 2 48 14
37 8 -6 22 -31 32 -55z m-297 4 c21 -62 5 -185 -23 -176 -21 7 -38 79 -31 132
10 77 35 98 54 44z m1807 7 c19 -30 15 -65 -8 -80 -25 -15 -42 5 -40 49 2 60
20 72 48 31z m-1282 -82 c8 -20 -3 -84 -14 -84 -12 0 -21 47 -14 75 7 29 19
32 28 9z m-1966 -30 c39 -11 24 -24 -28 -24 -46 0 -60 7 -43 23 8 9 41 9 71 1z
m1672 -94 c13 -24 4 -60 -15 -60 -15 0 -45 43 -45 65 0 23 47 19 60 -5z m-192
-66 c16 -46 7 -183 -13 -210 -12 -17 -13 -16 -23 2 -15 28 -30 152 -24 194 10
70 39 77 60 14z m-1460 -24 c6 -35 -15 -95 -44 -130 -45 -53 -55 -35 -31 57
24 90 67 132 75 73z m1152 -15 c0 -28 -31 -49 -60 -40 -26 8 -25 19 2 45 31
28 58 26 58 -5z m1167 -353 c0 -42 18 -160 38 -262 39 -199 46 -280 24 -306
-20 -24 -57 -36 -79 -24 -38 20 -45 51 -51 220 -3 91 -12 196 -19 234 -20 114
10 216 64 216 19 0 21 -6 23 -78z m-2342 17 c124 -46 225 -125 282 -220 69
-117 49 -149 -25 -38 -95 142 -113 156 -229 170 -92 12 -118 22 -139 53 -36
57 12 72 111 35z m3246 -69 c23 -13 25 -46 3 -54 -26 -10 -59 -7 -78 7 -18 13
-17 15 9 35 31 25 39 26 66 12z m-3421 -50 c0 -31 -56 -130 -74 -130 -9 0 -7
65 3 93 20 51 71 78 71 37z m560 -22 c23 -39 27 -98 6 -98 -21 0 -76 68 -76
94 0 48 42 50 70 4z m1404 4 c2 -4 2 -13 -2 -19 -10 -14 -67 -43 -88 -43 -14
0 -15 2 -3 17 15 17 69 53 81 53 4 0 9 -4 12 -8z m299 -75 c91 -112 140 -231
135 -335 -3 -65 -4 -68 -36 -83 l-33 -17 32 -26 c17 -15 28 -30 25 -34 -9 -8
-155 -6 -164 3 -4 3 1 11 11 16 23 13 22 42 -2 63 -32 29 -61 103 -71 181 -12
95 -1 158 34 190 21 19 25 30 20 54 -9 43 7 39 49 -12z m-235 -117 c18 -11 41
-34 52 -52 41 -67 36 -183 -8 -203 -32 -14 -27 -29 25 -74 26 -22 45 -43 41
-46 -20 -20 -268 -16 -268 5 0 4 23 25 50 46 28 21 49 43 47 49 -2 5 -20 11
-40 13 -19 2 -41 10 -49 19 -16 20 -16 144 1 196 22 66 84 86 149 47z m-1391
-42 c33 -31 29 -38 -21 -38 -52 0 -76 8 -76 24 0 39 61 48 97 14z m2566 -66
c13 -7 -34 -52 -55 -52 -29 0 -35 30 -9 51 20 16 37 16 64 1z m-2525 -58 c47
-19 92 -62 92 -87 0 -10 -9 -32 -21 -48 -22 -32 -18 -49 12 -49 32 0 22 -25
-31 -74 -58 -54 -90 -61 -90 -17 0 32 11 43 55 59 17 6 23 11 14 11 -25 1 -69
47 -69 71 0 20 4 21 40 15 36 -6 40 -5 40 14 0 20 -10 29 -79 74 -66 42 -41
64 37 31z m2463 -64 c24 -13 25 -56 2 -68 -23 -12 -57 1 -77 30 -15 21 -15 24
1 35 21 16 48 16 74 3z m-2564 -57 c5 -16 7 -72 6 -126 -1 -89 -6 -118 -17
-106 -7 8 -23 209 -18 234 6 33 20 32 29 -2z m1200 -74 l28 -12 -25 -7 c-36
-11 -53 -11 -70 0 -13 9 -13 11 0 20 20 13 33 12 67 -1z m839 -12 c36 -32 27
-57 -20 -57 -43 0 -93 38 -83 63 10 26 70 22 103 -6z m-636 -112 c0 -3 -5 -14
-12 -24 -6 -10 -8 -26 -5 -35 9 -24 42 -12 90 30 24 22 47 34 65 33 24 0 25
-1 9 -12 -55 -35 -54 -34 -22 -61 17 -13 26 -28 22 -32 -4 -5 -36 -10 -70 -12
-70 -4 -134 13 -151 41 -9 15 -5 23 22 48 29 26 52 37 52 24z m-1275 -68 c-5
-25 0 -41 24 -77 16 -24 29 -46 27 -47 -2 -2 -18 2 -37 8 -47 15 -79 53 -79
93 0 38 15 56 47 56 22 0 23 -3 18 -33z m1904 15 c11 -20 4 -62 -10 -62 -15 0
-49 43 -49 62 0 24 46 24 59 0z m546 -16 c0 -36 -27 -56 -52 -40 -40 25 -20
77 26 72 21 -2 26 -8 26 -32z m-1347 2 c42 -20 44 -22 26 -35 -25 -19 -110
-12 -132 11 -16 16 -16 18 2 32 27 19 52 18 104 -8z m466 -39 c32 -38 36 -89
7 -89 -26 0 -61 51 -61 89 0 40 20 40 54 0z m170 -53 c8 -31 -7 -71 -30 -80
-24 -9 -56 22 -48 48 16 54 67 75 78 32z m330 -81 c9 -33 25 -123 37 -200 49
-325 199 -783 310 -944 60 -88 161 -149 247 -150 63 -1 100 22 123 77 24 57
42 72 88 72 74 0 371 -112 371 -140 0 -18 -74 -10 -198 20 -134 33 -152 35
-152 20 0 -15 73 -48 214 -97 72 -24 146 -56 164 -70 31 -23 32 -27 18 -41
-13 -13 -23 -14 -66 -4 -63 15 -80 15 -80 2 0 -23 42 -49 97 -60 88 -17 91
-19 102 -50 9 -26 13 -29 34 -21 31 12 72 -8 72 -34 0 -40 -76 -26 -295 54
-48 17 -104 31 -130 31 l-45 -1 38 -23 c21 -13 133 -56 249 -95 199 -68 212
-71 229 -55 11 10 19 29 19 43 0 14 4 33 9 40 8 12 11 10 16 -10 8 -32 -10
-109 -37 -162 -21 -42 -21 -42 -30 -17 -7 23 -14 26 -61 27 -53 0 -139 23
-285 74 -46 16 -93 29 -103 29 -56 0 56 -66 153 -90 155 -39 395 -175 373
-211 -9 -14 -53 -3 -139 33 -38 17 -112 41 -164 54 -178 45 -165 30 63 -71
238 -106 295 -148 283 -212 -2 -14 -10 -9 -33 23 -28 40 -32 42 -95 48 -37 3
-179 37 -316 75 -137 38 -265 72 -284 75 l-35 7 40 -22 c67 -37 152 -68 331
-119 185 -53 260 -84 317 -131 36 -30 47 -61 27 -74 -17 -10 -102 13 -277 76
-169 61 -217 73 -174 43 13 -10 125 -63 250 -119 287 -129 337 -160 329 -202
-6 -31 -44 -27 -68 6 -19 27 -27 31 -68 31 -33 0 -77 13 -147 44 -55 23 -112
46 -127 50 -59 14 -23 -15 90 -72 143 -74 202 -115 202 -142 0 -33 -24 -33
-97 -2 -99 44 -111 45 -193 23 -41 -11 -106 -23 -145 -26 -283 -27 -496 -140
-660 -350 -85 -108 -127 -134 -230 -142 l-77 -6 54 -29 c76 -41 105 -65 93
-77 -16 -15 -246 -82 -290 -84 l-40 -2 3 75 c1 41 -5 126 -14 189 -22 154 -17
209 24 256 18 19 32 40 32 45 0 5 -13 16 -29 24 -74 39 -65 205 16 288 31 32
34 38 17 38 -31 0 -64 29 -64 56 0 34 42 74 78 74 42 0 45 9 12 47 -16 18 -32
44 -36 57 -8 31 11 66 36 66 24 0 25 12 3 53 -44 83 -1 455 78 670 40 108 38
126 -15 180 -49 51 -58 81 -75 235 -29 253 -41 964 -17 1000 14 23 33 -5 50
-73z m-178 29 c4 -14 4 -71 0 -127 -6 -92 -5 -100 9 -83 8 11 17 17 20 14 16
-16 26 -162 35 -513 10 -374 10 -391 -8 -415 -27 -35 -68 -49 -88 -28 -25 25
-37 157 -30 343 7 190 17 253 48 276 l20 16 -21 48 c-29 65 -27 89 9 115 l30
21 -29 52 c-29 51 -51 140 -51 201 0 82 41 140 56 80z m-769 -11 c15 -54 8
-123 -14 -145 -24 -23 -160 -46 -208 -34 l-28 7 32 33 c20 21 31 42 31 61 1
58 62 105 137 105 38 0 43 -3 50 -27z m198 -3 c9 -15 -12 -48 -36 -55 -33 -11
-69 3 -69 25 0 28 57 62 81 49 10 -5 21 -13 24 -19z m-1346 -6 c25 -32 26 -42
5 -94 -15 -36 -18 -39 -38 -28 -29 15 -128 99 -123 105 3 2 30 -3 61 -12 75
-22 92 -16 71 25 -19 37 -4 39 24 4z m1680 -34 c67 -34 105 -93 82 -128 -6
-10 -15 -4 -35 23 -29 38 -46 38 -46 0 0 -29 -34 -52 -47 -33 -4 7 -8 35 -8
63 0 42 -3 50 -20 53 -43 7 -48 11 -35 27 17 21 64 19 109 -5z m-1979 -107 c0
-29 -9 -76 -20 -104 -21 -57 -67 -129 -82 -129 -24 0 31 243 65 286 26 33 37
18 37 -53z m144 -31 c-8 -31 -75 -167 -97 -197 -9 -11 -18 -18 -20 -15 -10 10
43 156 73 203 32 50 55 55 44 9z m2705 -8 c25 -31 27 -57 6 -74 -36 -30 -84
24 -65 74 12 33 33 33 59 0z m145 -315 c34 -27 35 -59 1 -59 -32 0 -77 43 -69
64 8 22 36 20 68 -5z m-3412 -243 c40 -62 55 -132 22 -105 -14 12 -35 53 -81
159 -14 32 -14 33 3 20 9 -8 35 -42 56 -74z m4036 -89 c13 -14 21 -30 18 -36
-9 -14 -114 -14 -155 0 -42 15 -42 45 2 58 50 16 107 6 135 -22z m-280 -27
c38 -24 41 -40 7 -40 -29 0 -71 24 -79 46 -8 21 33 18 72 -6z m-3612 -47 c8
-31 -15 -104 -33 -111 -9 -2 -13 11 -13 48 0 78 32 122 46 63z m-111 -63 c8
-24 -2 -77 -16 -85 -5 -4 -9 18 -9 49 0 56 13 74 25 36z m105 -135 c21 -26 4
-45 -39 -45 -47 0 -59 14 -35 41 20 23 57 25 74 4z m3867 -37 c11 -13 26 -33
32 -46 10 -19 9 -23 -5 -29 -22 -8 -46 7 -62 41 -14 27 -10 56 6 56 5 0 18
-10 29 -22z m-3953 -67 c33 -47 29 -77 -6 -65 -13 5 -36 8 -53 9 -36 0 -45
-27 -19 -56 17 -18 16 -19 -19 -19 -23 0 -37 -5 -37 -12 0 -7 27 -40 61 -74
l60 -61 -50 10 c-36 8 -57 8 -75 -1 -31 -14 -34 -47 -5 -55 25 -7 19 -21 -40
-92 -51 -62 -76 -131 -75 -215 0 -78 12 -102 64 -135 60 -38 67 -59 31 -95
-16 -17 -40 -30 -53 -30 -22 0 -24 4 -24 47 1 37 -3 48 -16 51 -28 6 -38 -38
-38 -166 0 -121 18 -267 46 -375 17 -65 74 -207 84 -207 3 0 25 35 50 76 53
89 106 154 126 154 25 0 16 -19 -53 -110 -39 -51 -40 -66 -11 -97 29 -31 51
-29 83 8 32 39 60 40 122 3 46 -27 47 -28 23 -35 -14 -4 -41 -8 -60 -8 -43 -2
-72 -17 -100 -54 l-23 -29 -43 43 c-29 29 -48 40 -60 35 -27 -10 -13 -85 22
-114 24 -21 34 -23 78 -18 62 8 99 -11 80 -41 -12 -19 -29 -21 -81 -9 -29 7
-33 5 -33 -13 0 -68 452 -527 646 -656 62 -41 104 -54 104 -32 0 20 38 47 66
47 12 0 32 -9 45 -19 23 -19 23 -20 6 -39 -12 -13 -38 -23 -69 -27 l-51 -7 39
-33 c21 -18 36 -36 33 -39 -10 -10 -128 55 -210 116 -228 168 -432 365 -561
538 -271 365 -332 534 -332 910 0 210 17 348 69 555 53 210 155 476 187 488
20 7 42 -9 72 -52z m4145 -130 c12 -12 17 -27 14 -40 -9 -33 -19 -33 -47 0
-21 24 -24 34 -15 45 15 19 25 18 48 -5z m31 -169 c30 -23 37 -50 16 -58 -16
-6 -146 79 -146 96 0 13 101 -17 130 -38z m-4149 -94 c5 -50 -31 -74 -71 -48
-13 9 -11 14 13 35 30 27 56 33 58 13z m-133 -70 c16 -16 15 -33 -4 -75 -22
-46 -58 -70 -79 -53 -24 20 -18 49 11 56 23 6 25 10 20 39 -4 17 -3 34 1 38
10 11 38 8 51 -5z m2506 -117 c34 -19 39 -35 11 -39 -26 -3 -85 33 -85 54 0
18 26 13 74 -15z m1900 -42 c30 -35 33 -57 10 -66 -21 -8 -52 25 -60 65 -9 43
15 43 50 1z m-1980 -55 c28 -11 6 -24 -39 -24 -42 0 -62 10 -48 24 8 8 66 8
87 0z m2021 -100 c20 -30 14 -54 -14 -54 -25 0 -44 34 -36 60 9 28 29 25 50
-6z m40 -164 c28 -55 32 -90 11 -90 -29 0 -56 50 -56 102 0 59 11 56 45 -12z
m-2055 -6 c0 -48 -35 -94 -71 -94 -28 0 4 100 38 119 23 13 33 5 33 -25z
m-2465 -63 c11 -35 -52 -157 -71 -138 -11 11 6 92 26 125 23 37 36 40 45 13z
m228 -39 c13 -14 16 -29 11 -66 -6 -40 -4 -50 16 -71 26 -27 29 -60 16 -137
l-8 -48 52 0 c87 0 114 -29 64 -69 -33 -26 -85 -27 -106 -3 -20 21 -40 80 -67
197 -32 132 -52 153 -125 125 -32 -12 -33 -3 -3 32 45 55 119 74 150 40z
m-499 -78 c3 -9 6 -41 6 -73 0 -59 -18 -100 -38 -87 -13 8 -16 114 -6 154 7
25 29 29 38 6z m2804 -10 c39 -11 24 -24 -28 -24 -46 0 -60 7 -43 23 8 9 41 9
71 1z m-2408 -59 c0 -9 -34 -50 -75 -93 -70 -72 -74 -75 -69 -45 6 28 3 33
-20 39 -14 3 -26 12 -26 20 0 16 38 44 60 44 8 0 35 11 60 25 53 28 70 31 70
10z m4460 -109 c0 -25 -4 -48 -10 -51 -13 -8 -24 39 -16 70 10 40 26 29 26
-19z m-2116 -56 c7 -7 -6 -10 -42 -10 -49 0 -62 7 -44 24 9 10 72 0 86 -14z
m2084 -68 c26 -13 38 -27 40 -45 4 -32 5 -31 -64 -11 -68 19 -117 58 -94 74
20 14 73 6 118 -18z m-4749 -38 c29 -37 28 -75 -1 -71 -23 2 -23 0 -24 -106
-1 -59 -4 -110 -7 -113 -3 -3 -14 9 -24 28 -27 49 -26 237 1 267 25 27 30 26
55 -5z m4393 -11 c19 -17 25 -77 9 -102 -7 -11 -14 -7 -30 20 -21 33 -28 79
-14 92 9 10 15 9 35 -10z m-153 -25 c64 -102 75 -168 34 -195 -22 -14 -22 -14
-16 21 4 25 -2 54 -21 101 -26 66 -32 95 -18 95 4 0 14 -10 21 -22z m-3511
-20 c26 -26 4 -123 -36 -163 -32 -32 -93 -34 -122 -5 -37 37 -19 128 32 164
26 19 109 21 126 4z m3981 -105 c-137 -113 -214 -199 -206 -231 3 -13 20 -1
73 54 79 81 117 109 139 100 25 -9 17 -44 -14 -60 -67 -35 -222 -239 -223
-295 -1 -21 10 -47 31 -76 l32 -45 -49 31 c-86 53 -128 24 -77 -53 33 -50 24
-58 -54 -51 -65 6 -91 -9 -91 -55 0 -39 -15 -56 -48 -58 -39 -2 -80 -34 -142
-110 -68 -84 -104 -114 -130 -107 -13 3 -44 -9 -87 -35 -73 -44 -114 -58 -138
-48 -13 4 -14 10 -5 26 8 15 21 20 48 20 30 0 45 7 69 33 41 41 73 112 73 160
0 34 2 37 19 27 27 -14 26 -15 77 32 57 53 88 110 81 153 -5 30 -4 31 23 27
22 -3 38 5 73 37 25 23 53 58 62 77 16 35 16 37 -5 59 -14 14 -20 32 -18 50 3
24 -1 29 -29 37 -30 8 -32 10 -21 33 9 20 7 36 -11 83 -24 67 -26 93 -9 110
23 23 33 11 50 -58 19 -79 75 -199 100 -214 12 -7 29 -3 66 17 27 15 64 27 81
27 38 0 39 11 6 82 -31 67 -32 80 -2 73 33 -9 72 26 93 81 l18 46 -24 18 -25
18 25 6 c24 6 191 13 199 9 2 -1 -12 -15 -30 -30z m-262 -30 c5 -12 -6 -27
-34 -52 -54 -49 -64 -71 -57 -125 8 -54 -7 -62 -31 -16 -20 39 -19 56 9 116
35 75 97 118 113 77z m-3867 -83 c26 -26 26 -60 1 -60 -26 0 -71 38 -71 61 0
26 44 25 70 -1z m258 -66 c47 -19 28 -34 -43 -34 -61 0 -103 23 -83 47 14 17
67 12 126 -13z m183 -13 c20 -16 22 -23 13 -38 -19 -31 -105 -30 -118 2 -8 21
28 55 58 55 13 0 34 -9 47 -19z m1235 8 c10 -16 -41 -63 -60 -56 -19 7 -21 38
-4 55 15 15 55 16 64 1z m-1752 -24 c29 -27 34 -66 10 -86 -13 -11 -20 -11
-42 2 -32 18 -64 71 -56 93 9 24 57 20 88 -9z m2226 -5 c22 -11 40 -25 40 -30
0 -19 -63 -10 -87 12 -44 42 -19 51 47 18z m-1936 -70 c6 -6 -6 -24 -33 -49
-40 -37 -43 -43 -39 -83 3 -42 3 -43 -31 -46 -44 -4 -78 14 -98 52 -15 29 -15
30 16 55 21 17 31 35 31 53 0 17 6 28 18 32 25 7 125 -3 136 -14z m196 -35
c19 -22 2 -54 -33 -63 -45 -11 -71 -66 -71 -153 -1 -78 8 -93 69 -108 47 -12
87 -53 68 -72 -17 -17 -108 19 -169 67 -110 84 -130 134 -57 134 59 0 70 12
44 48 -36 51 -25 84 41 132 44 32 88 39 108 15z m1734 -1 c25 -9 19 -21 -15
-33 -76 -26 -176 1 -106 29 26 10 98 13 121 4z m1182 -29 c7 -19 14 -48 14
-64 0 -25 -4 -30 -27 -33 -20 -2 -29 -9 -31 -26 -4 -28 -47 -51 -63 -35 -8 8
-1 28 25 70 19 32 41 73 47 91 6 17 13 32 15 32 3 0 12 -16 20 -35z m-1608
-27 c3 -22 -2 -30 -23 -38 -34 -13 -125 -13 -125 0 0 9 59 50 90 63 32 13 55
3 58 -25z m1849 10 c22 -25 46 -88 37 -97 -8 -9 -94 85 -94 103 0 23 33 19 57
-6z m-3054 -105 c29 -15 37 -43 11 -43 -32 0 -98 46 -88 62 6 10 34 3 77 -19z
m2297 -38 c0 -30 -4 -57 -10 -60 -6 -4 -10 18 -10 60 0 42 4 64 10 60 6 -3 10
-30 10 -60z m680 39 c0 -19 -8 -28 -35 -40 -20 -8 -38 -22 -41 -32 -18 -57
-42 -97 -76 -127 -35 -32 -58 -44 -58 -29 0 3 14 33 32 66 32 60 145 188 167
188 6 0 11 -11 11 -26z m-2787 -26 c24 -37 -29 -70 -82 -52 -34 12 -36 53 -3
70 28 14 71 5 85 -18z m331 -10 c-10 -32 4 -64 47 -114 22 -25 38 -49 34 -52
-3 -3 -34 -4 -69 -3 -83 3 -110 -10 -101 -50 9 -40 -20 -52 -48 -18 -15 19
-18 33 -13 69 14 104 105 230 143 198 8 -6 11 -19 7 -30z m140 1 c7 -37 -12
-82 -37 -87 -28 -6 -32 27 -9 74 26 52 37 55 46 13z m965 -3 c55 -35 53 -50
-5 -43 -50 5 -97 34 -103 62 -3 15 2 17 32 12 19 -3 53 -17 76 -31z m496 -3
c-6 -37 -1 -48 47 -115 23 -32 -2 -39 -133 -36 l-124 3 95 25 c52 13 88 25 80
26 -8 2 -54 6 -102 9 -60 5 -88 11 -88 19 0 15 75 70 122 91 18 8 50 14 71 15
l37 0 -5 -37z m549 -75 c-29 -36 -134 -132 -139 -127 -9 10 77 128 108 148 39
24 57 12 31 -21z m-2364 -26 c25 -20 21 -55 -7 -66 -21 -8 -77 25 -81 48 -7
37 50 48 88 18z m-230 -24 c11 -18 20 -46 20 -62 0 -28 -1 -28 -19 -12 -25 22
-45 71 -37 91 8 22 14 19 36 -17z m-788 -81 c11 -37 18 -71 14 -74 -20 -21
-66 85 -66 151 1 30 1 30 16 11 8 -11 24 -51 36 -88z m1814 -36 c-10 -16 -92
-14 -109 4 -17 17 -12 51 11 78 15 17 18 15 60 -26 25 -25 41 -50 38 -56z
m-1570 55 c41 8 44 -7 13 -67 -25 -51 -124 -154 -138 -145 -15 9 -2 37 32 69
29 27 29 28 22 105 l-7 77 22 -23 c17 -18 28 -21 56 -16z m3888 -107 c-22 -24
-61 -24 -101 1 -36 21 -39 30 -21 48 19 19 56 14 63 -8 10 -30 19 -25 45 28
l25 47 3 -49 c2 -35 -2 -53 -14 -67z m-2651 62 c13 -13 -55 -25 -84 -16 -22 7
-22 8 -3 22 20 15 70 11 87 -6z m1224 7 c6 -7 13 -29 17 -49 7 -42 19 -54 59
-64 57 -15 72 -81 24 -107 -12 -6 -87 -14 -167 -18 -185 -9 -217 -24 -171 -81
l19 -23 88 17 c82 17 93 17 148 2 66 -17 135 -63 175 -114 l26 -34 -65 7 c-68
7 -78 4 -96 -29 -14 -26 -43 -33 -139 -33 -154 -1 -195 24 -195 119 0 84 -27
129 -78 129 -24 0 -56 35 -47 50 14 23 75 40 142 40 71 0 113 17 113 45 0 8
20 20 48 28 l47 15 -2 43 c-3 56 2 69 25 69 11 0 24 -6 29 -12z m201 -45 c45
-44 53 -57 39 -60 -25 -6 -83 32 -106 71 -25 40 -26 46 -6 46 9 0 41 -26 73
-57z m-475 -25 c-25 -44 -43 -47 -43 -8 0 21 9 40 28 58 l27 27 3 -23 c2 -12
-5 -37 -15 -54z m-2075 9 c6 -47 -120 -209 -149 -192 -31 20 20 136 86 194 42
36 59 36 63 -2z m3082 16 c0 -18 -44 -78 -88 -122 -76 -75 -201 -122 -210 -78
-5 23 35 67 60 67 10 0 23 -9 30 -20 7 -11 20 -20 29 -20 29 0 43 29 42 84 -1
50 0 53 22 48 14 -2 38 6 61 22 40 27 54 32 54 19z m-2473 -53 c-9 -66 -53
-118 -79 -92 -7 7 -6 17 1 31 10 18 8 25 -15 46 -15 14 -25 27 -23 30 12 11
57 24 88 24 34 1 34 1 28 -39z m307 24 c22 -8 20 -19 -6 -44 -31 -28 -58 -26
-58 5 0 33 31 52 64 39z m209 -3 c17 -6 14 -11 -20 -42 -65 -59 -68 -66 -48
-89 17 -19 16 -21 -18 -55 -51 -51 -71 -45 -75 25 -4 75 21 138 62 156 34 15
71 17 99 5z m232 -5 c19 -8 35 -18 35 -21 0 -22 -34 -65 -62 -78 -38 -18 -55
-9 -39 21 20 38 14 43 -43 36 -56 -7 -77 4 -52 26 37 30 110 37 161 16z m-581
-2 c32 -12 15 -24 -34 -24 -46 0 -60 7 -43 23 8 9 56 9 77 1z m895 -108 l53
-36 -61 6 c-52 6 -67 3 -114 -20 -54 -26 -95 -61 -85 -72 3 -3 35 -10 72 -16
50 -8 82 -8 134 2 128 24 139 24 146 3 9 -29 -11 -121 -35 -154 -30 -43 -49
-50 -172 -59 -203 -16 -280 -55 -336 -168 -23 -45 -42 -92 -38 -92 1 0 38 42
82 94 44 52 81 93 83 91 2 -1 -6 -38 -17 -81 -11 -43 -18 -80 -16 -82 2 -2 21
15 42 39 34 38 118 87 129 76 18 -17 -49 -73 -146 -122 -75 -38 -177 -46 -203
-17 -21 23 -23 42 -13 95 l7 38 -50 -52 -50 -52 -58 6 c-32 3 -176 36 -320 72
-144 36 -273 65 -288 65 -25 0 -25 0 -10 -31 21 -39 15 -45 -19 -18 -16 13
-26 30 -25 43 0 11 1 26 0 33 -1 17 -71 63 -192 125 -160 83 -205 119 -223
176 -17 53 88 207 136 200 33 -4 34 -38 4 -104 -14 -31 -26 -61 -26 -66 0 -6
20 8 44 30 77 71 90 69 312 -58 193 -111 295 -154 531 -224 260 -78 290 -81
338 -30 34 36 35 36 91 29 53 -6 56 -5 49 12 -4 10 -8 27 -9 38 -1 19 4 20 75
17 80 -4 184 12 195 30 13 21 -24 28 -137 26 -129 -3 -149 4 -149 54 0 36 24
83 45 92 12 4 16 16 14 43 -2 21 1 37 6 36 6 -1 28 -5 49 -9 l39 -7 -6 30 c-3
17 -9 44 -13 59 -7 29 -6 29 37 -12 24 -23 68 -58 98 -78z m1901 66 c0 -4 -21
-28 -46 -52 -64 -63 -114 -131 -174 -235 -54 -94 -76 -123 -85 -113 -12 12 36
123 88 201 66 98 169 207 197 207 11 0 20 -4 20 -8z m-2820 -47 c31 -37 -23
-78 -77 -59 -56 19 -36 74 27 74 21 0 43 -7 50 -15z m1131 -77 c8 -19 14 -68
14 -118 0 -71 -4 -93 -25 -134 -33 -66 -85 -107 -145 -114 -51 -5 -182 16
-192 31 -3 5 3 6 14 3 11 -3 60 -7 109 -9 112 -3 133 9 165 90 18 45 23 81 25
163 3 127 2 120 13 120 5 0 15 -15 22 -32z m-1233 -47 c189 -74 242 -91 283
-91 32 0 59 -29 62 -66 2 -27 0 -29 -32 -26 -84 6 -511 210 -511 243 0 16 19
10 198 -60z m227 46 c21 -16 15 -61 -11 -71 -39 -15 -73 41 -42 72 16 16 30
15 53 -1z m1145 -119 c14 -51 1 -140 -31 -205 -40 -83 -70 -20 -51 108 19 132
60 180 82 97z m840 27 c13 -16 6 -65 -9 -65 -13 0 -51 50 -51 66 0 19 44 18
60 -1z m338 -7 c-14 -47 -504 -207 -774 -253 -104 -18 -277 -25 -290 -12 -18
17 20 29 122 38 84 7 120 15 157 34 38 19 64 25 117 25 81 0 201 30 400 100
213 76 275 91 268 68z m-1898 -33 c26 -32 -13 -81 -47 -59 -35 22 -23 74 17
74 10 0 23 -7 30 -15z m1407 4 c26 -10 27 -12 8 -19 -28 -12 -57 -12 -75 0
-13 9 -13 11 0 20 19 13 33 12 67 -1z m-615 -281 c39 -21 57 -23 198 -23 85 0
161 -4 167 -8 16 -10 -29 -105 -54 -114 -9 -4 -33 3 -54 15 -51 29 -70 28
-104 -8 -16 -17 -39 -30 -53 -30 -22 0 -23 3 -17 40 6 36 5 40 -14 40 -22 0
-55 -27 -63 -51 -9 -25 -21 0 -25 53 -7 83 -10 86 -43 41 -41 -56 -84 -73
-202 -84 -56 -4 -102 -10 -105 -12 -2 -2 18 -12 44 -22 87 -33 120 -66 108
-105 -9 -27 -79 -67 -143 -81 -45 -9 -57 -8 -77 5 -34 22 -56 59 -71 118 -24
91 13 137 145 178 35 11 83 20 107 20 43 0 43 0 38 -30 -4 -20 -2 -30 5 -30
21 0 68 29 116 70 25 22 48 40 50 40 3 0 24 -10 47 -22z m583 12 c10 -16 -15
-80 -30 -80 -8 0 -17 9 -20 20 -10 31 -29 24 -80 -27 l-47 -48 23 44 c32 58
82 101 119 101 16 0 32 -5 35 -10z m273 -137 c3 -28 -1 -33 -23 -39 -29 -7
-55 10 -55 35 0 25 22 42 50 39 20 -2 26 -9 28 -35z m-128 -23 c12 -22 5 -60
-10 -60 -13 0 -50 41 -50 55 0 31 44 34 60 5z"/>
<path d="M8810 12330 c0 -27 4 -50 10 -50 11 0 24 65 16 85 -12 32 -26 13 -26
-35z"/>
<path d="M8641 12357 c-17 -21 -42 -87 -33 -87 11 0 46 39 60 66 16 31 -5 47
-27 21z"/>
<path d="M9972 11344 c-29 -20 -55 -70 -47 -94 6 -20 32 -33 47 -24 26 16 52
134 30 134 -4 0 -18 -7 -30 -16z"/>
<path d="M10430 7652 c14 -8 147 -42 228 -57 45 -9 40 7 -10 35 -35 20 -60 25
-138 28 -60 2 -89 0 -80 -6z"/>
<path d="M10800 7572 c0 -4 43 -22 95 -39 52 -17 95 -29 95 -26 0 18 -27 47
-55 59 -36 15 -135 19 -135 6z"/>
<path d="M10613 7516 c-18 -6 -37 -16 -44 -23 -18 -18 21 -24 121 -21 l85 3
-28 19 c-38 25 -96 35 -134 22z"/>
<path d="M10586 7228 c-13 -19 -14 -25 -2 -43 18 -26 40 -30 60 -10 20 21 20
39 0 59 -21 22 -40 20 -58 -6z"/>
<path d="M10890 7002 c0 -34 99 -65 136 -44 17 9 14 13 -26 31 -46 21 -110 28
-110 13z"/>
<path d="M10677 6983 c-17 -16 -3 -23 46 -23 48 1 50 2 33 15 -20 15 -67 20
-79 8z"/>
<path d="M10727 6523 c-29 -7 -14 -28 22 -31 39 -4 68 5 55 17 -12 12 -55 19
-77 14z"/>
<path d="M10710 6350 c0 -9 66 -55 95 -66 8 -3 16 4 20 17 6 17 2 27 -15 41
-24 19 -100 25 -100 8z"/>
<path d="M10930 6350 c-33 -21 31 -39 75 -20 19 7 18 9 -8 19 -34 13 -48 14
-67 1z"/>
<path d="M10842 5918 c6 -16 41 -22 76 -13 20 5 23 8 11 16 -22 14 -91 11 -87
-3z"/>
<path d="M10931 5794 c16 -19 103 -64 125 -64 28 0 9 24 -42 52 -56 32 -105
39 -83 12z"/>
<path d="M11171 5728 c-63 -24 -54 -38 27 -38 58 0 92 13 92 34 0 31 -45 33
-119 4z"/>
<path d="M10674 5638 c-7 -11 16 -30 69 -58 43 -24 47 -14 12 28 -25 30 -71
47 -81 30z"/>
<path d="M10797 5504 c-14 -14 6 -24 48 -24 45 0 67 13 39 24 -21 8 -79 8 -87
0z"/>
<path d="M8950 7910 c-33 -21 31 -39 75 -20 19 7 18 9 -8 19 -34 13 -48 14
-67 1z"/>
<path d="M8603 7809 c-16 -16 -5 -39 25 -50 26 -10 92 -2 92 11 0 9 -80 50
-96 50 -6 0 -15 -5 -21 -11z"/>
<path d="M8685 7680 c13 -20 182 -97 192 -87 23 23 -103 97 -165 97 -20 0 -31
-4 -27 -10z"/>
<path d="M8526 7661 c-16 -26 50 -85 82 -74 18 7 15 37 -5 56 -24 21 -69 31
-77 18z"/>
<path d="M9027 7614 c-14 -14 6 -24 49 -24 44 0 58 12 28 24 -21 8 -69 8 -77
0z"/>
<path d="M8690 7573 c0 -9 67 -57 93 -66 26 -10 20 11 -12 44 -27 26 -81 41
-81 22z"/>
<path d="M8470 7494 c0 -13 96 -74 115 -74 3 0 5 14 5 30 0 24 -6 33 -26 40
-28 11 -94 13 -94 4z"/>
<path d="M8655 7389 c-10 -16 47 -60 74 -57 13 2 26 8 28 13 6 21 -91 63 -102
44z"/>
<path d="M8400 7320 c-13 -9 -13 -11 0 -20 19 -12 60 -13 80 0 11 7 9 11 -13
19 -35 13 -48 14 -67 1z"/>
<path d="M9077 7233 c-17 -16 -3 -23 43 -23 28 0 50 4 50 9 0 16 -79 29 -93
14z"/>
<path d="M8400 7151 c0 -10 111 -61 134 -61 15 0 15 2 1 24 -9 14 -30 29 -47
35 -37 13 -88 14 -88 2z"/>
<path d="M8296 6885 c-37 -34 -29 -50 24 -50 50 0 73 22 54 53 -17 26 -47 26
-78 -3z"/>
<path d="M8437 6854 c-14 -14 6 -24 49 -24 44 0 58 12 28 24 -21 8 -69 8 -77
0z"/>
<path d="M8350 6773 c0 -28 141 -82 177 -68 16 6 14 9 -11 22 -35 18 -134 53
-153 53 -7 0 -13 -3 -13 -7z"/>
<path d="M8385 6620 c-10 -16 2 -28 41 -40 37 -13 124 -6 124 10 0 12 -88 40
-126 40 -18 0 -36 -4 -39 -10z"/>
<path d="M8316 6522 c-5 -9 43 -35 107 -58 40 -14 42 -13 26 18 -18 34 -118
64 -133 40z"/>
<path d="M8441 6383 c15 -17 106 -63 127 -63 6 0 12 9 12 20 0 29 -56 60 -109
60 -39 0 -42 -2 -30 -17z"/>
<path d="M8692 5969 c7 -22 81 -58 133 -66 66 -9 57 14 -18 43 -82 32 -120 39
-115 23z"/>
<path d="M9306 5099 c-16 -12 -26 -30 -26 -45 0 -24 2 -25 43 -19 45 6 65 -4
86 -43 16 -30 69 -62 102 -62 58 0 67 59 17 116 -62 70 -168 96 -222 53z"/>
<path d="M8930 4969 c56 -49 116 -81 147 -77 28 3 27 3 -17 30 -25 15 -72 38
-105 53 l-60 25 35 -31z"/>
<path d="M9201 4867 c-10 -35 -27 -115 -35 -178 -21 -146 -44 -244 -68 -293
l-20 -39 26 -51 c34 -68 43 -206 27 -421 -18 -243 -35 -293 -119 -346 -82 -52
-126 -36 -142 51 -16 90 -84 136 -130 90 -42 -42 -10 -154 56 -192 54 -31 137
-41 197 -24 91 26 177 138 221 286 40 135 46 218 45 680 -1 245 -4 456 -8 469
-12 45 -29 34 -50 -32z"/>
<path d="M8900 4704 c0 -5 89 -46 128 -58 30 -10 28 9 -4 39 -21 20 -38 25
-75 25 -27 0 -49 -2 -49 -6z"/>
<path d="M8897 4623 c-12 -12 -7 -50 8 -63 16 -13 47 -10 52 6 4 12 -34 64
-46 64 -4 0 -11 -3 -14 -7z"/>
<path d="M8610 4407 c0 -7 14 -33 32 -57 32 -43 32 -43 8 -36 -43 12 -90 19
-90 13 0 -3 4 -17 10 -32 8 -22 6 -30 -15 -51 -13 -13 -29 -24 -34 -24 -11 0
-41 -51 -41 -69 0 -25 32 -41 70 -35 36 6 37 5 33 -18 -8 -40 43 -90 115 -112
32 -10 29 14 -7 48 -34 33 -42 65 -28 112 20 66 34 69 130 29 145 -60 176 -39
45 30 -97 51 -106 59 -101 90 10 47 -60 125 -112 125 -8 0 -15 -6 -15 -13z"/>
<path d="M8740 4097 c0 -22 35 -48 66 -50 41 -3 37 24 -6 45 -43 21 -60 22
-60 5z"/>
<path d="M8267 3323 c-19 -18 -1 -37 66 -68 39 -19 86 -37 102 -41 l30 -7 -28
30 c-43 46 -154 102 -170 86z"/>
<path d="M8201 3176 c-33 -53 -28 -81 17 -99 42 -17 181 -42 189 -34 2 3 -15
18 -39 33 -89 57 -105 84 -50 84 l27 1 -30 24 c-45 37 -88 34 -114 -9z"/>
<path d="M9492 3178 c5 -14 61 -23 86 -13 14 5 14 7 2 15 -23 15 -92 12 -88
-2z"/>
<path d="M9552 3101 c-29 -18 90 -29 133 -12 16 7 14 9 -14 14 -46 9 -103 8
-119 -2z"/>
<path d="M8560 2980 c0 -10 87 -70 102 -70 16 0 7 22 -21 51 -29 28 -81 40
-81 19z"/>
<path d="M8773 2939 c-20 -20 -15 -47 12 -65 45 -29 61 6 23 51 -19 21 -25 24
-35 14z"/>
<path d="M8121 2891 c-8 -5 -11 -16 -8 -24 6 -15 163 -108 205 -121 19 -7 22
-4 22 23 0 34 -14 45 -72 55 -25 5 -44 17 -63 41 -26 35 -55 44 -84 26z"/>
<path d="M8380 2871 c19 -16 73 -53 120 -81 80 -48 85 -50 88 -30 2 12 -4 30
-13 40 -22 25 -152 88 -195 96 l-35 6 35 -31z"/>
<path d="M8205 2726 c-25 -18 -13 -44 31 -62 47 -20 78 -15 82 13 6 38 -78 75
-113 49z"/>
<path d="M8121 2604 c-58 -49 -39 -75 122 -172 120 -72 137 -79 137 -60 0 14
-32 35 -170 117 -36 21 -64 43 -64 47 1 5 22 19 48 31 48 24 54 31 34 51 -21
21 -74 14 -107 -14z"/>
<path d="M8614 2426 c-18 -14 -18 -15 9 -21 32 -8 84 2 71 14 -18 17 -61 20
-80 7z"/>
<path d="M8490 2301 c0 -10 128 -51 184 -59 37 -5 40 -4 28 11 -31 37 -212 78
-212 48z"/>
<path d="M8823 2303 c-29 -11 -10 -23 37 -23 52 0 67 13 28 24 -26 7 -48 7
-65 -1z"/>
<path d="M8405 2209 c-19 -30 53 -59 150 -59 91 0 90 12 -3 39 -87 25 -140 32
-147 20z"/>
<path d="M9086 2211 c-3 -5 7 -11 23 -13 41 -6 102 2 95 13 -7 12 -111 12
-118 0z"/>
<path d="M8796 2131 c-18 -7 -18 -8 5 -14 32 -9 99 -8 124 2 16 7 14 9 -14 14
-42 9 -90 8 -115 -2z"/>
<path d="M8576 2001 c-7 -11 59 -22 95 -14 16 3 26 9 23 14 -7 12 -111 12
-118 0z"/>
<path d="M9046 1791 c-7 -11 17 -21 54 -21 16 0 35 3 44 6 29 11 5 24 -44 24
-27 0 -51 -4 -54 -9z"/>
<path d="M8927 1713 c-9 -2 -15 -9 -12 -14 8 -12 145 -12 145 0 0 16 -88 26
-133 14z"/>
<path d="M9365 1620 c-4 -6 30 -10 94 -10 61 0 101 4 101 10 0 6 -38 10 -94
10 -53 0 -98 -4 -101 -10z"/>
<path d="M10210 5376 c-9 -12 -6 -16 22 -21 18 -3 44 -2 58 3 l25 10 -28 11
c-38 15 -62 14 -77 -3z"/>
<path d="M11673 3233 c-47 -9 -21 -23 44 -23 41 0 63 4 58 9 -13 12 -73 20
-102 14z"/>
<path d="M11390 3095 c0 -34 60 -65 126 -65 41 0 24 22 -48 60 -44 24 -78 26
-78 5z"/>
<path d="M11213 2643 c-49 -10 -19 -23 54 -23 51 0 74 3 67 10 -12 12 -89 20
-121 13z"/>
<path d="M11477 2553 c-17 -16 -3 -23 43 -23 49 0 66 12 34 24 -21 8 -69 8
-77 -1z"/>
<path d="M11130 2432 c0 -15 79 -60 118 -68 46 -9 40 10 -11 40 -50 30 -107
44 -107 28z"/>
<path d="M11440 2432 c0 -14 89 -58 172 -86 80 -27 108 -32 108 -17 0 11 -139
74 -209 95 -62 18 -71 19 -71 8z"/>
<path d="M11610 2234 c161 -76 220 -97 220 -76 -1 30 -73 66 -185 92 -117 27
-122 25 -35 -16z"/>
<path d="M11427 2174 c-14 -14 6 -24 48 -24 45 0 67 13 39 24 -21 8 -79 8 -87
0z"/>
<path d="M11606 2141 c-17 -7 -14 -11 26 -39 57 -39 78 -41 78 -6 0 19 -8 28
-35 40 -38 16 -42 16 -69 5z"/>
<path d="M10707 2093 c-12 -12 -7 -50 8 -63 18 -15 49 -9 53 10 1 9 -7 26 -18
38 -22 23 -32 27 -43 15z"/>
<path d="M9680 4602 c-28 -23 -22 -34 35 -68 49 -28 58 -26 81 17 l15 30 -35
-7 c-32 -5 -37 -3 -46 20 -11 31 -20 32 -50 8z"/>
<path d="M8276 1839 c-24 -14 -4 -29 39 -29 49 0 62 16 24 29 -38 13 -39 13
-63 0z"/>
<path d="M12014 1378 c-102 -107 -354 -435 -354 -461 0 -15 17 2 132 135 204
236 318 388 290 388 -5 0 -36 -28 -68 -62z"/>
<path d="M10681 714 c-22 -28 -28 -69 -11 -79 13 -8 50 53 50 83 0 29 -14 28
-39 -4z"/>
<path d="M7559 3105 c-26 -48 -56 -148 -94 -310 -37 -158 -55 -294 -35 -263
36 58 154 510 148 571 l-3 32 -16 -30z"/>
<path d="M7381 2305 c-2 -90 19 -368 35 -460 25 -146 107 -362 168 -440 26
-33 18 -3 -30 127 -81 214 -120 384 -149 648 -19 173 -22 191 -24 125z"/>
<path d="M11933 463 c-58 -63 -62 -66 -98 -60 l-37 6 17 -27 c29 -45 44 -53
71 -36 49 32 136 166 116 178 -4 3 -35 -25 -69 -61z"/>
<path d="M11384 126 c-4 -10 -2 -22 4 -28 15 -15 116 -23 138 -10 16 9 14 11
-14 26 -17 9 -52 19 -77 22 -36 6 -46 4 -51 -10z"/>
</g>
</svg>
